<svg id="_013-twitter-1" data-name="013-twitter-1" xmlns="http://www.w3.org/2000/svg" width="43.894" height="35.664" viewBox="0 0 43.894 35.664">
  <g id="Group_52" data-name="Group 52" transform="translate(0 0)">
    <path id="Path_1017" data-name="Path 1017" d="M43.894,52.222a18.761,18.761,0,0,1-5.185,1.421,8.948,8.948,0,0,0,3.959-4.974,17.983,17.983,0,0,1-5.706,2.178A9,9,0,0,0,21.4,57a9.266,9.266,0,0,0,.208,2.052A25.471,25.471,0,0,1,3.056,49.641,9,9,0,0,0,5.821,61.667a8.887,8.887,0,0,1-4.066-1.108v.1A9.04,9.04,0,0,0,8.965,69.5a8.981,8.981,0,0,1-2.359.3,7.956,7.956,0,0,1-1.7-.154,9.084,9.084,0,0,0,8.408,6.269A18.081,18.081,0,0,1,2.154,79.749,16.854,16.854,0,0,1,0,79.625a25.333,25.333,0,0,0,13.8,4.038c16.559,0,25.612-13.717,25.612-25.606,0-.4-.014-.782-.033-1.163A17.951,17.951,0,0,0,43.894,52.222Z" transform="translate(0 -48)" fill="#9fa2a8"/>
  </g>
</svg>
