<svg id="_034-instagram" data-name="034-instagram" xmlns="http://www.w3.org/2000/svg" width="43.894" height="43.894" viewBox="0 0 43.894 43.894">
  <g id="Group_54" data-name="Group 54">
    <g id="Group_53" data-name="Group 53">
      <path id="Path_1018" data-name="Path 1018" d="M30.177,0H13.717A13.718,13.718,0,0,0,0,13.717v16.46A13.718,13.718,0,0,0,13.717,43.894h16.46A13.718,13.718,0,0,0,43.894,30.177V13.717A13.718,13.718,0,0,0,30.177,0Zm9.6,30.177a9.612,9.612,0,0,1-9.6,9.6H13.717a9.612,9.612,0,0,1-9.6-9.6V13.717a9.612,9.612,0,0,1,9.6-9.6h16.46a9.612,9.612,0,0,1,9.6,9.6Z" fill="#9fa2a8"/>
    </g>
  </g>
  <g id="Group_56" data-name="Group 56" transform="translate(10.973 10.973)">
    <g id="Group_55" data-name="Group 55">
      <path id="Path_1019" data-name="Path 1019" d="M138.973,128a10.973,10.973,0,1,0,10.973,10.973A10.974,10.974,0,0,0,138.973,128Zm0,17.832a6.858,6.858,0,1,1,6.858-6.858A6.868,6.868,0,0,1,138.973,145.832Z" transform="translate(-128 -128)" fill="#9fa2a8"/>
    </g>
  </g>
  <g id="Group_58" data-name="Group 58" transform="translate(32.281 8.688)">
    <g id="Group_57" data-name="Group 57">
      <circle id="Ellipse_7" data-name="Ellipse 7" cx="1.462" cy="1.462" r="1.462" fill="#9fa2a8"/>
    </g>
  </g>
</svg>
