<svg xmlns="http://www.w3.org/2000/svg" width="43.894" height="43.894" viewBox="0 0 43.894 43.894">
  <g id="_045-facebook" data-name="045-facebook" transform="translate(0)">
    <g id="Group_59" data-name="Group 59" transform="translate(0)">
      <path id="Path_1020" data-name="Path 1020" d="M38.407,0H5.487A5.492,5.492,0,0,0,0,5.487v32.92a5.492,5.492,0,0,0,5.487,5.487h16.46V28.805H16.46V21.947h5.487V16.46a8.23,8.23,0,0,1,8.23-8.23h5.487v6.858H32.92c-1.514,0-2.743-.143-2.743,1.372v5.487h6.858l-2.743,6.858H30.177V43.894h8.23a5.492,5.492,0,0,0,5.487-5.487V5.487A5.492,5.492,0,0,0,38.407,0Z" fill="#9fa2a8"/>
    </g>
  </g>
</svg>
