<svg xmlns="http://www.w3.org/2000/svg" xmlns:xlink="http://www.w3.org/1999/xlink" width="353" height="353" viewBox="0 0 353 353">
  <defs>
    <clipPath id="clip-path">
      <circle id="Ellipse_3" data-name="Ellipse 3" cx="176.5" cy="176.5" r="176.5" transform="translate(694.937 101.937)" fill="none"/>
    </clipPath>
  </defs>
  <g id="Mask_Group_6" data-name="Mask Group 6" transform="translate(-694.937 -101.937)" clip-path="url(#clip-path)">
    <g id="Group_44" data-name="Group 44" transform="translate(673.686 -11.413)">
      <g id="Group_43" data-name="Group 43" transform="translate(0)">
        <path id="Path_4" data-name="Path 4" d="M272.218,263.6a4.952,4.952,0,0,1,.745.116,10.359,10.359,0,0,1,1.775.574,8.673,8.673,0,0,1,2.2,1.311,14.115,14.115,0,0,1,1.123.972c.392.365.689.682,1.123,1.157a19.439,19.439,0,0,1,1.687,2.5A13.076,13.076,0,0,1,282,272.855a14.812,14.812,0,0,1,.5,2.129,6.865,6.865,0,0,1,.1.876,5.488,5.488,0,0,1-.722-.26,11.322,11.322,0,0,1-1.652-.87,19.632,19.632,0,0,1-2-1.533,17.772,17.772,0,0,1-2.026-2.127c-.232-.273-.6-.7-.868-1.072a13.463,13.463,0,0,1-.808-1.186c-.478-.812-.954-1.631-1.318-2.387a15.215,15.215,0,0,1-.766-1.975A7.95,7.95,0,0,1,272.218,263.6Z" transform="translate(-272.218 189.995)" fill="#272a30"/>
        <path id="Path_5" data-name="Path 5" d="M272.218,254.18s.571.173,1.522.559c.476.2,1.058.424,1.7.734a14.207,14.207,0,0,1,2.135,1.142c.773.465,1.615.974,2.485,1.56s1.708,1.31,2.6,2.038a25.331,25.331,0,0,1,2.634,2.413c.861.876,1.708,1.8,2.562,2.724.854,1.1,1.545,1.981,2.288,3a28.894,28.894,0,0,1,2.04,3.1c.627,1.064,1.251,2.082,1.75,3.1s.919,2.007,1.309,2.916a20,20,0,0,1,.972,2.534c.267.767.462,1.461.627,2.023.329,1.131.473,1.8.473,1.8s-.455-.456-1.167-1.291c-.355-.417-.794-.919-1.251-1.52s-1.012-1.243-1.594-1.955-1.211-1.476-1.842-2.307-1.355-1.612-2.04-2.492c-.343-.435-.689-.88-1.042-1.328s-.773-.9-1.149-1.363c-.766-.889-1.6-1.94-2.279-2.78-.789-.885-1.578-1.767-2.33-2.673s-1.524-1.756-2.272-2.584c-.74-.845-1.455-1.66-2.132-2.437-.7-.734-1.341-1.474-1.938-2.162s-1.146-1.339-1.668-1.889-.944-1.066-1.3-1.483C272.6,254.709,272.218,254.18,272.218,254.18Z" transform="translate(-272.218 182.038)" fill="#272a30"/>
        <path id="Path_6" data-name="Path 6" d="M272.218,245.726s.861.247,2.33.769c.738.249,1.624.6,2.629,1.053a33.667,33.667,0,0,1,3.346,1.618,42.54,42.54,0,0,1,3.845,2.247c1.325.882,2.729,1.83,4.107,2.94a49.748,49.748,0,0,1,4.13,3.641c1.4,1.263,2.645,2.78,3.966,4.2,1.258,1.627,2.409,2.925,3.539,4.654a57.057,57.057,0,0,1,3.107,4.9c.937,1.629,1.743,3.285,2.487,4.853.724,1.586,1.392,3.091,1.9,4.537.559,1.418,1.012,2.748,1.364,3.949.383,1.186.682,2.232.893,3.11.443,1.743.65,2.756.65,2.756s-.534-.839-1.388-2.337l-1.55-2.674c-.585-1.04-1.283-2.176-2.019-3.422-.722-1.262-1.594-2.547-2.434-3.96-.884-1.372-1.842-2.8-2.838-4.253q-.759-1.079-1.541-2.189c-.522-.734-1.084-1.417-1.615-2.147-1.014-1.417-2.369-2.962-3.464-4.347-1.23-1.356-2.39-2.8-3.655-4.069-.629-.638-1.216-1.319-1.842-1.935s-1.244-1.221-1.854-1.82c-1.232-1.175-2.436-2.309-3.6-3.353-1.2-.99-2.283-2.023-3.351-2.874-1.058-.869-2.019-1.693-2.894-2.379l-2.267-1.833C272.926,246.353,272.218,245.726,272.218,245.726Z" transform="translate(-272.218 174.899)" fill="#272a30"/>
        <path id="Path_7" data-name="Path 7" d="M272.218,237.844s1.146.306,3.123.935c.989.3,2.181.721,3.541,1.258l2.172.841q1.124.512,2.362,1.073a58.974,58.974,0,0,1,5.242,2.708c.93.485,1.826,1.132,2.777,1.715a31.447,31.447,0,0,1,2.838,1.951q1.406,1.082,2.854,2.195c.958.756,1.863,1.631,2.789,2.486l1.392,1.293c.455.448.882.937,1.327,1.405q1.347,1.452,2.7,2.914l2.355,3.027c.392.509.789.987,1.163,1.527l1.109,1.675c.726,1.116,1.487,2.206,2.128,3.34l1.859,3.372c.629,1.09,1.142,2.237,1.654,3.351.492,1.123,1.04,2.182,1.45,3.281.87,2.175,1.692,4.224,2.293,6.19q.477,1.461.91,2.793.376,1.353.71,2.56c.45,1.6.807,3.01,1.065,4.185.534,2.341.791,3.691.791,3.691s-.594-1.2-1.552-3.331c-.483-1.057-1.074-2.339-1.75-3.811-.654-1.479-1.45-3.106-2.3-4.882-.819-1.8-1.854-3.634-2.845-5.633-.485-1.007-1.1-1.953-1.664-2.968-.6-.985-1.1-2.075-1.77-3.054l-1.931-3.064c-.666-1.014-1.395-1.953-2.079-2.964l-1.046-1.5c-.371-.494-.787-.989-1.174-1.488l-2.383-3-2.4-2.68c-.411-.452-.805-.924-1.227-1.358l-1.293-1.251c-.872-.81-1.685-1.7-2.548-2.483q-1.316-1.154-2.594-2.278c-.831-.786-1.75-1.389-2.585-2.1-.859-.664-1.659-1.389-2.515-1.964-1.694-1.169-3.249-2.394-4.768-3.359-1.5-1-2.88-1.946-4.13-2.717s-2.318-1.518-3.23-2.064C273.232,238.541,272.218,237.844,272.218,237.844Z" transform="translate(-272.218 168.242)" fill="#272a30"/>
        <path id="Path_8" data-name="Path 8" d="M272.218,230.213s1.422.395,3.894,1.16c1.232.378,2.727.863,4.43,1.476l2.72.961,2.982,1.21c2.093.793,4.3,1.885,6.636,3.042,1.183.535,2.325,1.3,3.536,1.963a35.9,35.9,0,0,1,3.62,2.258q1.793,1.275,3.641,2.588c1.221.9,2.365,1.974,3.548,3L309,249.434c.573.55,1.111,1.158,1.668,1.737q1.664,1.762,3.334,3.536,1.49,1.953,2.972,3.9c.478.644.972,1.249,1.436,1.924l1.348,2.123c.882,1.415,1.817,2.793,2.576,4.241q1.114,2.18,2.193,4.3c.752,1.391,1.32,2.863,1.914,4.276.564,1.429,1.207,2.781,1.661,4.178.977,2.761,1.905,5.367,2.576,7.841q.536,1.84,1.023,3.521l.812,3.209c.517,2.01.928,3.777,1.248,5.235.647,2.918.979,4.6.979,4.6s-.657-1.542-1.747-4.266c-.538-1.361-1.2-3.012-1.949-4.906-.729-1.905-1.606-4.019-2.545-6.321-.9-2.326-2.049-4.731-3.156-7.324-.534-1.313-1.246-2.544-1.88-3.864-.685-1.286-1.246-2.7-2.033-3.964l-2.255-3.966c-.787-1.31-1.673-2.512-2.483-3.813l-1.251-1.926c-.455-.634-.972-1.252-1.455-1.881l-2.889-3.689L308,254.75c-.52-.557-1.016-1.144-1.552-1.675L304.8,251.57c-1.116-.974-2.158-2.051-3.272-2.977q-1.705-1.35-3.358-2.663c-1.077-.928-2.267-1.6-3.355-2.4-1.118-.751-2.163-1.592-3.274-2.221-2.2-1.306-4.23-2.665-6.2-3.726-1.949-1.11-3.738-2.145-5.351-3l-4.156-2.3C273.524,230.989,272.218,230.213,272.218,230.213Z" transform="translate(-272.218 161.798)" fill="#272a30"/>
        <path id="Path_9" data-name="Path 9" d="M272.218,222.546s1.682.568,4.622,1.564c2.928,1.016,7.133,2.376,12.136,4.283,2.5.965,5.214,2.009,8.026,3.353a75.691,75.691,0,0,1,8.732,4.643,67.662,67.662,0,0,1,8.808,6.351,78.973,78.973,0,0,1,8.175,8.149c1.267,1.643,2.413,2.936,3.587,4.67.578.825,1.172,1.638,1.726,2.468l1.589,2.514a83.933,83.933,0,0,1,5.376,10.4c.8,1.732,1.473,3.492,2.149,5.207.61,1.745,1.255,3.427,1.784,5.105,1.139,3.322,2.023,6.529,2.84,9.481,1.615,5.906,2.764,10.873,3.622,14.335.842,3.471,1.323,5.458,1.323,5.458l-.555-1.334c-.353-.872-.912-2.136-1.534-3.787-1.29-3.279-3.012-8.033-5.065-13.692-1.051-2.815-2.174-5.867-3.446-9.023s-2.7-6.424-4.29-9.7a100.006,100.006,0,0,0-5.4-9.68q-.759-1.17-1.527-2.35c-.524-.764-1.072-1.487-1.608-2.237-1-1.47-2.39-3.018-3.474-4.412a75.606,75.606,0,0,0-7.618-7.808,80.553,80.553,0,0,0-8.2-6.382c-2.775-1.878-5.532-3.58-8.212-5.071s-5.256-2.829-7.641-4.069c-4.792-2.424-8.813-4.454-11.593-5.98-1.4-.732-2.467-1.393-3.207-1.809Z" transform="translate(-272.218 155.324)" fill="#272a30"/>
        <path id="Path_10" data-name="Path 10" d="M272.218,214.55l1.378.6c.9.389,2.218.985,3.9,1.662,1.673.714,3.738,1.485,6.089,2.411,2.371.882,5.042,1.878,7.959,2.962s6.1,2.259,9.414,3.707a94.619,94.619,0,0,1,10.333,5.011,72.45,72.45,0,0,1,10.481,7.04q1.26,1.065,2.532,2.134c.826.74,1.622,1.54,2.439,2.311l1.221,1.169,1.158,1.256,2.358,2.586,2.077,2.649,1.04,1.33,1,1.461c.664.976,1.353,1.937,1.984,2.92q.908,1.5,1.805,2.988a92.465,92.465,0,0,1,5.966,12.378c1.7,4.141,3.056,8.276,4.246,12.2,1.223,3.919,2.209,7.669,3.135,11.118s1.761,6.6,2.508,9.4c.784,2.776,1.436,5.218,2.042,7.2.573,2,1.074,3.541,1.4,4.6s.508,1.631.508,1.631-.246-.527-.71-1.518-1.188-2.427-1.956-4.34c-.814-1.891-1.743-4.215-2.757-6.913s-2.114-5.757-3.256-9.11c-1.172-3.337-2.406-6.967-3.775-10.742s-2.9-7.691-4.627-11.626a104.919,104.919,0,0,0-5.982-11.6q-.863-1.4-1.733-2.8c-.6-.909-1.234-1.765-1.847-2.654l-.928-1.326-1.044-1.311-2.1-2.623a75.934,75.934,0,0,0-8.975-8.929,82.422,82.422,0,0,0-9.822-7.068c-3.332-2.04-6.641-3.862-9.843-5.469s-6.27-3.077-9.094-4.456c-2.842-1.348-5.43-2.662-7.715-3.844s-4.253-2.3-5.859-3.255c-1.622-.911-2.822-1.773-3.671-2.306Z" transform="translate(-272.218 148.571)" fill="#272a30"/>
        <path id="Path_11" data-name="Path 11" d="M272.218,205.892l1.511.9c.991.57,2.413,1.512,4.3,2.468.937.487,1.954,1.066,3.1,1.621s2.379,1.136,3.7,1.769c2.668,1.186,5.7,2.449,9.029,3.779,3.337,1.308,6.97,2.66,10.811,4.228a129.146,129.146,0,0,1,11.994,5.378,78.777,78.777,0,0,1,12.256,7.668q1.476,1.187,2.961,2.379c.97.826,1.893,1.741,2.845,2.612l1.422,1.326,1.339,1.439,2.729,2.968,2.385,3.064,1.188,1.542,1.139,1.7c.75,1.138,1.541,2.252,2.244,3.407q1.013,1.754,2.014,3.493a103.313,103.313,0,0,1,6.495,14.477c1.812,4.836,3.256,9.632,4.555,14.167,1.327,4.532,2.476,8.824,3.58,12.769,1.123,3.931,2.193,7.509,3.2,10.661.534,1.56,1.035,3.023,1.5,4.371s.963,2.553,1.376,3.663c.812,2.228,1.6,3.89,2.084,5.063l.766,1.785s-.334-.574-.958-1.649c-.6-1.094-1.608-2.614-2.615-4.75-.515-1.057-1.125-2.21-1.724-3.5-.575-1.308-1.2-2.724-1.863-4.237q-.926-2.31-1.963-4.908-.954-2.631-2.007-5.522c-1.355-3.861-2.766-8.071-4.244-12.487s-3.128-9.02-4.973-13.655a114.133,114.133,0,0,0-6.511-13.666q-.968-1.638-1.935-3.285c-.666-1.068-1.392-2.06-2.084-3.1l-1.051-1.546-1.2-1.52-2.409-3.042-2.441-2.691L333.5,243.66l-1.33-1.263c-.891-.83-1.752-1.706-2.664-2.5q-1.4-1.143-2.78-2.282a86.875,86.875,0,0,0-11.572-7.7c-3.924-2.178-7.815-4.122-11.56-5.875s-7.3-3.414-10.574-5.013c-1.629-.819-3.2-1.594-4.673-2.37l-4.158-2.315c-1.279-.788-2.478-1.522-3.587-2.2-1.1-.706-2.077-1.429-2.97-2.042-1.815-1.188-3.086-2.374-4.017-3.082Z" transform="translate(-272.218 141.26)" fill="#272a30"/>
        <path id="Path_12" data-name="Path 12" d="M272.218,196.142s.55.463,1.576,1.33c.515.435,1.146.972,1.891,1.6l1.2,1.014,1.418,1.027c1,.717,2.1,1.514,3.295,2.381q1.869,1.162,4.035,2.508c1.441.885,3.049,1.664,4.7,2.569,1.666.872,3.464,1.677,5.311,2.579,3.754,1.662,7.859,3.329,12.242,5.078s9.036,3.571,13.767,5.838a88.282,88.282,0,0,1,14.217,8.254,80.3,80.3,0,0,1,13,11.982l2.78,3.6c.448.594.907,1.158,1.348,1.778l1.283,1.966c.838,1.321,1.743,2.6,2.506,3.949l2.232,4.058A119.066,119.066,0,0,1,366,274.444c1.919,5.591,3.469,11.095,4.945,16.263s2.894,10.021,4.3,14.457c.763,2.18,1.443,4.307,2.183,6.271.768,1.948,1.427,3.846,2.174,5.548s1.466,3.292,2.123,4.764c.735,1.42,1.411,2.726,2.023,3.9q.46.888.87,1.677c.3.5.587.972.852,1.409l1.35,2.228,1.128,1.863-1.3-1.7c-.427-.553-.949-1.236-1.566-2.04q-.463-.606-.993-1.3-.477-.744-1.009-1.581c-.715-1.121-1.506-2.363-2.362-3.715q-1.156-2.139-2.494-4.617c-.877-1.66-1.671-3.516-2.587-5.43-.886-1.933-1.666-4.043-2.566-6.2-.817-2.2-1.678-4.49-2.518-6.874q-1.2-3.6-2.488-7.424c-1.675-5.1-3.436-10.442-5.4-15.851a129.178,129.178,0,0,0-7.024-15.966q-1.065-1.9-2.14-3.822c-.729-1.26-1.557-2.394-2.332-3.6l-1.176-1.793c-.425-.592-.9-1.169-1.355-1.75l-2.678-3.425A76.548,76.548,0,0,0,333.774,234.3a96.7,96.7,0,0,0-13.516-8.3c-4.583-2.319-9.1-4.4-13.421-6.376-2.156-.983-4.263-1.966-6.284-2.94-2.021-.992-3.961-2.007-5.822-2.973-1.831-1.062-3.618-1.983-5.253-3.031-1.622-1.083-3.193-2.02-4.6-3.054s-2.7-2.034-3.908-2.944l-3.153-2.8q-.71-.634-1.344-1.2c-.388-.415-.756-.8-1.1-1.166l-1.724-1.846Z" transform="translate(-272.218 133.026)" fill="#272a30"/>
        <path id="Path_13" data-name="Path 13" d="M272.218,184.661s.524.671,1.506,1.931c.942,1.293,2.506,3.038,4.416,5.2a87.83,87.83,0,0,0,7.613,7.081,52.589,52.589,0,0,0,4.991,3.733c1.752,1.332,3.768,2.387,5.785,3.648a134.024,134.024,0,0,0,13.707,6.6c4.956,2.125,10.3,4.1,15.758,6.55a103.637,103.637,0,0,1,16.514,8.841c1.36.889,2.648,1.955,3.984,2.931a41.394,41.394,0,0,1,3.857,3.23,44.244,44.244,0,0,1,3.7,3.521l3.594,3.864a93.667,93.667,0,0,1,11.338,17.724,142.571,142.571,0,0,1,7.49,19.5c2.07,6.454,3.747,12.755,5.546,18.613,1.752,5.884,3.636,11.3,5.585,16.189,1.067,2.379,1.961,4.764,3.088,6.83a65.485,65.485,0,0,0,3.167,5.908,99.012,99.012,0,0,0,5.975,8.966c1.852,2.285,3.325,4.126,4.411,5.233,1.067,1.158,1.634,1.776,1.634,1.776s-.62-.548-1.78-1.577a65.2,65.2,0,0,1-4.845-4.751,82.473,82.473,0,0,1-6.657-8.538,88.2,88.2,0,0,1-7.091-12.568c-.608-1.19-1.088-2.483-1.654-3.757-.534-1.293-1.151-2.582-1.641-3.949-1.035-2.715-2.086-5.539-3.058-8.472-2.014-5.841-3.926-12.067-6.056-18.358a154.288,154.288,0,0,0-7.544-18.694,88.34,88.34,0,0,0-10.941-16.8l-3.239-3.516a40.251,40.251,0,0,0-3.471-3.35,38.419,38.419,0,0,0-3.622-3.088c-1.262-.935-2.471-1.957-3.764-2.818a112.263,112.263,0,0,0-15.825-8.913c-5.328-2.512-10.595-4.779-15.544-7.153-2.483-1.151-4.873-2.385-7.17-3.613-1.16-.579-2.251-1.308-3.346-1.937-1.081-.669-2.172-1.236-3.181-1.955a72.839,72.839,0,0,1-10.651-8.381,78.676,78.676,0,0,1-7.21-7.837q-2.771-3.638-4.038-5.736Z" transform="translate(-272.218 123.33)" fill="#272a30"/>
        <path id="Path_14" data-name="Path 14" d="M272.218,170.022s.455.92,1.306,2.649l1.569,3.182c.68,1.2,1.462,2.575,2.339,4.117.446.76.868,1.6,1.4,2.4s1.109,1.636,1.7,2.507,1.2,1.771,1.842,2.71c.678.895,1.434,1.767,2.186,2.7l2.337,2.852c.8.858,1.777,1.809,2.694,2.75a68.972,68.972,0,0,0,6.045,5.522,88.59,88.59,0,0,0,15.124,9.58c5.648,2.811,11.809,5.24,18.2,7.929a133.413,133.413,0,0,1,19.477,9.589A77.284,77.284,0,0,1,366.3,243.774l3.7,4.807c1.2,1.608,2.3,3.49,3.448,5.22a96,96,0,0,1,5.778,11.069,188.26,188.26,0,0,1,8.121,23c2.276,7.548,4.337,14.82,6.715,21.49a116.28,116.28,0,0,0,8.114,17.871,77.853,77.853,0,0,0,4.676,7.134c.782,1.072,1.578,2.2,2.295,3.147l2.443,2.8c.8.9,1.545,1.8,2.3,2.6q1.184,1.118,2.281,2.158c.736.7,1.441,1.365,2.112,2s1.395,1.131,2.04,1.66c1.306,1.037,2.474,1.959,3.488,2.761l2.687,1.852,2.241,1.542-2.346-1.31L423.569,352c-1.088-.671-2.3-1.535-3.678-2.472-.678-.485-1.427-.937-2.153-1.522s-1.478-1.227-2.265-1.878-1.613-1.343-2.467-2.049c-.812-.758-1.6-1.6-2.446-2.429l-2.59-2.606c-.907-1.037-1.7-2.038-2.59-3.106a70.754,70.754,0,0,1-5.121-7.077,106.606,106.606,0,0,1-9-18.026c-2.631-6.738-4.952-14.027-7.309-21.49a204.6,204.6,0,0,0-8.226-22.272,90.919,90.919,0,0,0-5.52-10.431c-1.081-1.6-2.021-3.237-3.211-4.814l-3.6-4.626a73.476,73.476,0,0,0-16.823-14.562,145.079,145.079,0,0,0-18.853-9.717c-6.321-2.785-12.491-5.532-18.2-8.634a84.337,84.337,0,0,1-15.268-10.637,65.451,65.451,0,0,1-5.989-6.048c-.891-1.038-1.726-1.961-2.6-3.019q-1.152-1.594-2.237-3.1c-.715-1.007-1.434-1.953-2.074-2.912q-.891-1.505-1.724-2.9t-1.582-2.663c-.494-.856-.879-1.743-1.29-2.547-.8-1.627-1.527-3.06-2.1-4.347-.524-1.31-.97-2.424-1.334-3.327C272.606,170.985,272.218,170.022,272.218,170.022Z" transform="translate(-272.218 110.968)" fill="#272a30"/>
        <path id="Path_15" data-name="Path 15" d="M272.218,150.376s1.634,4.757,4.5,13.081c1.492,4.119,3.286,9.141,5.843,14.57A90.717,90.717,0,0,0,292.6,194.977q1.65,2.064,3.365,4.209,1.886,1.964,3.843,4a73.352,73.352,0,0,0,8.657,7.241c6.26,4.5,13.454,8.007,21.062,11.275s15.716,6.3,23.6,10.718a77.819,77.819,0,0,1,21.881,17.652L377.27,253c.724.966,1.476,1.861,2.179,2.887,1.346,2.141,2.822,4.222,4.038,6.424a107.424,107.424,0,0,1,6.474,13.607c3.743,9.313,6.3,18.891,9.075,27.876s5.738,17.478,9.546,24.875a85.886,85.886,0,0,0,6.158,10.257q1.688,2.269,3.316,4.454l3.629,4.047a39.919,39.919,0,0,0,3.618,3.542,44.141,44.141,0,0,0,3.6,3.141q1.838,1.436,3.58,2.794c1.2.845,2.392,1.594,3.534,2.363a120.131,120.131,0,0,0,12.333,6.9l11.078,5.312-2.975-1.134c-1.942-.74-4.792-1.811-8.388-3.3a118.038,118.038,0,0,1-12.748-6.177A70.264,70.264,0,0,1,420.1,349.486q-1.841-1.9-3.759-3.877-1.807-2.241-3.685-4.565a84.616,84.616,0,0,1-6.678-10.462,145.116,145.116,0,0,1-10.333-25.3c-2.905-9.047-5.662-18.4-9.27-27.354a102.2,102.2,0,0,0-6.228-12.935c-1.155-2.071-2.5-3.912-3.729-5.889-1.371-1.874-2.986-3.86-4.311-5.6a73.864,73.864,0,0,0-20.677-16.851c-7.583-4.268-15.5-7.518-23.16-10.951a106.887,106.887,0,0,1-21.422-12.207,73.249,73.249,0,0,1-8.885-7.918l-3.8-4.268q-1.705-2.3-3.344-4.515a87,87,0,0,1-9.618-17.939c-2.346-5.672-3.922-10.833-5.233-15.055-1.258-4.248-2.165-7.616-2.794-9.907S272.218,150.376,272.218,150.376Z" transform="translate(-272.218 94.377)" fill="#272a30"/>
        <path id="Path_16" data-name="Path 16" d="M272.218,131.906s.615,1.3,1.77,3.728c1.119,2.453,2.706,6.113,4.432,10.91,1.757,4.786,3.641,10.715,5.882,17.447a183.587,183.587,0,0,0,8.572,21.905,80.327,80.327,0,0,0,15.1,21.745,59.041,59.041,0,0,0,5.04,4.678,28.38,28.38,0,0,0,2.708,2.14l2.805,2.073c.965.653,1.968,1.245,2.956,1.876,1,.607,1.965,1.3,3.017,1.828,2.072,1.125,4.137,2.311,6.316,3.305,8.6,4.226,17.988,7.463,27.242,12.14a81.22,81.22,0,0,1,25.736,19.773l2.541,3.3a36.3,36.3,0,0,1,2.485,3.444l2.385,3.7c.81,1.227,1.422,2.549,2.142,3.816a115.444,115.444,0,0,1,7.059,15.986c3.968,10.925,6.7,22.016,10.282,32.171.842,2.573,1.845,5.013,2.8,7.459.45,1.241,1.03,2.385,1.548,3.562.536,1.168,1.037,2.354,1.589,3.492a86.263,86.263,0,0,0,7.541,12.485q1.058,1.4,2.1,2.778l.517.688c.088.149.357.413.524.614l1.144,1.289c.766.841,1.506,1.745,2.274,2.512L433.013,355c.736.771,1.548,1.446,2.341,2.129s1.569,1.374,2.367,2.016c1.641,1.2,3.186,2.5,4.836,3.532A133.512,133.512,0,0,0,461.1,372.8c5.7,2.649,10.72,4.875,14.772,6.948a104.42,104.42,0,0,1,9.235,5.235l3.158,2.093-3.258-1.857c-2.135-1.184-5.325-2.754-9.432-4.593s-9.186-3.787-15-6.129a117.28,117.28,0,0,1-19.157-9.383c-1.719-.992-3.358-2.272-5.089-3.447-.842-.633-1.666-1.322-2.511-1.992s-1.7-1.343-2.515-2.134q-1.236-1.151-2.494-2.317c-.826-.789-1.552-1.642-2.346-2.47l-1.169-1.256c-.209-.238-.362-.362-.617-.692l-.559-.7q-1.117-1.411-2.248-2.841a88.988,88.988,0,0,1-8.154-12.839,129.413,129.413,0,0,1-6.363-14.9c-3.766-10.386-6.732-21.385-10.588-31.974a110,110,0,0,0-6.815-15.269c-.682-1.186-1.283-2.475-2.026-3.58l-2.193-3.372a33.308,33.308,0,0,0-2.416-3.322l-2.552-3.283-2.631-2.846a31.269,31.269,0,0,0-2.773-2.815l-2.9-2.634c-.956-.9-2.033-1.594-3.04-2.4a83.344,83.344,0,0,0-12.929-8.051c-8.964-4.561-18.278-8.06-27.07-12.507-2.214-1.055-4.344-2.318-6.467-3.519-2.116-1.227-4.137-2.647-6.147-4q-1.455-1.132-2.894-2.25a30.385,30.385,0,0,1-2.808-2.339,64.871,64.871,0,0,1-5.188-5.059,81.5,81.5,0,0,1-15.094-23.067,166.6,166.6,0,0,1-7.945-22.626c-1.984-6.867-3.629-12.867-5.191-17.718s-2.884-8.616-3.891-11.139C272.766,133.245,272.218,131.906,272.218,131.906Z" transform="translate(-272.218 78.78)" fill="#272a30"/>
        <path id="Path_17" data-name="Path 17" d="M272.218,118.289l2.56,3.575a48.89,48.89,0,0,1,2.889,4.475c.531.913,1.176,1.85,1.733,2.94s1.153,2.247,1.78,3.469a155.6,155.6,0,0,1,7.539,18.6c2.55,7.367,5.059,15.829,8.337,24.7,3.311,8.828,7.562,18.115,13.911,26.129l2.395,3.007.255.321.336.354.675.71L315.985,208c.914.92,1.8,1.992,2.759,2.8q1.43,1.248,2.87,2.516a30.951,30.951,0,0,0,3.026,2.39c1.046.756,2.067,1.577,3.139,2.309,2.2,1.363,4.36,2.872,6.7,4.063,9.175,5.17,19.45,8.592,29.622,13.489a95.2,95.2,0,0,1,14.967,8.715l3.564,2.693c1.156.957,2.262,2.007,3.4,3.008l1.692,1.522,1.576,1.686,3.211,3.466,2.782,3.608,1.39,1.809,1.311,2.023c.861,1.356,1.768,2.689,2.585,4.067l2.281,4.211a129.262,129.262,0,0,1,7.379,17.676c4.154,12.011,7.045,24.15,11.423,34.984a86.624,86.624,0,0,0,16.867,27.787c6.759,7.47,14.633,12.5,22.1,16.412,7.509,3.875,14.674,6.83,20.912,9.848a114.45,114.45,0,0,1,15.749,8.9l2.94,2.1c.921.657,1.71,1.418,2.485,2.046a43.41,43.41,0,0,1,3.792,3.414l3.023,3.025s-1.1-.979-3.16-2.816a41.976,41.976,0,0,0-3.928-3.141c-.8-.576-1.613-1.265-2.555-1.867s-1.935-1.254-2.986-1.937a111.288,111.288,0,0,0-15.9-8.042c-6.3-2.674-13.565-5.262-21.276-9.023-7.678-3.746-15.93-8.669-23.22-16.314a86.161,86.161,0,0,1-18.108-28.558c-4.622-11.176-7.771-23.347-11.832-35.051a123.263,123.263,0,0,0-7.147-16.954l-2.174-3.977c-.763-1.276-1.592-2.472-2.381-3.717l-1.2-1.852-1.39-1.8-2.794-3.6-2.889-3.121-1.48-1.6-1.589-1.439c-1.067-.95-2.1-1.948-3.2-2.857l-3.367-2.569A91.645,91.645,0,0,0,362.6,239.9c-9.906-4.8-20.213-8.51-29.678-13.974-2.395-1.265-4.641-2.876-6.915-4.335-1.111-.786-2.181-1.651-3.258-2.475a33.951,33.951,0,0,1-3.146-2.63q-1.518-1.408-3.021-2.8c-1.016-.919-1.824-1.959-2.736-2.925l-1.327-1.466-.659-.732-.329-.363c-.2-.243-.232-.3-.357-.459q-1.225-1.619-2.439-3.217c-6.451-8.58-10.63-18.336-13.8-27.4-3.188-9.1-5.374-17.687-7.641-25.129a156.191,156.191,0,0,0-6.81-18.781q-.867-1.868-1.643-3.527c-.506-1.114-1.091-2.073-1.576-3.012a49.664,49.664,0,0,0-2.664-4.643C273.049,119.589,272.218,118.289,272.218,118.289Z" transform="translate(-272.218 67.281)" fill="#272a30"/>
        <path id="Path_18" data-name="Path 18" d="M272.218,107.334l.842.8c.548.544,1.4,1.286,2.434,2.366,1.012,1.1,2.353,2.407,3.7,4.152a58.281,58.281,0,0,1,4.587,6.076,94.752,94.752,0,0,1,9.839,18.757c1.58,3.84,3.072,8.023,4.569,12.456s2.931,9.139,4.525,13.985c.819,2.407,1.6,4.9,2.532,7.35q.682,1.854,1.374,3.737.759,1.843,1.529,3.717l.775,1.88.87,1.835q.874,1.84,1.761,3.707c.643,1.206,1.33,2.392,2,3.6a36.332,36.332,0,0,0,2.135,3.554q1.149,1.726,2.307,3.475c.789,1.147,1.7,2.186,2.552,3.294l1.3,1.645c.2.245.478.618.613.758l.733.775q1.472,1.549,2.959,3.117a38.114,38.114,0,0,0,3.07,2.831c1.06.882,2.014,1.9,3.174,2.691l3.369,2.523c1.139.824,2.355,1.524,3.534,2.3,9.549,6.061,20.5,9.778,31.4,14.8a111.93,111.93,0,0,1,16.1,8.984,80.54,80.54,0,0,1,7.479,6.026,37.754,37.754,0,0,1,3.515,3.4l3.427,3.7a94.778,94.778,0,0,1,10.98,16.875,153.446,153.446,0,0,1,7.606,19.02c4.258,12.874,7.4,25.8,12.53,37.079a88.683,88.683,0,0,0,8.792,15.569q1.291,1.715,2.576,3.409l.636.848c.111.16.443.5.652.741l1.427,1.577c.954,1.024,1.873,2.141,2.843,3.069l2.907,2.686a30.5,30.5,0,0,0,2.993,2.51c1.026.789,2.03,1.6,3.049,2.359q1.584,1.049,3.139,2.082l1.555,1.027,1.592.915,3.144,1.806q1.6.819,3.165,1.621c2.074,1.1,4.184,2.023,6.223,2.992,4.1,1.881,8.087,3.584,11.841,5.344s7.3,3.532,10.546,5.4a76.432,76.432,0,0,1,15.874,11.615,55.6,55.6,0,0,1,5.154,5.432c1.487,1.6,2.578,3.16,3.508,4.359.917,1.221,1.548,2.236,2,2.881s.68.994.68.994-.246-.325-.724-.95-1.156-1.583-2.123-2.743c-.988-1.146-2.137-2.625-3.682-4.121a63.514,63.514,0,0,0-5.3-5.1,74.016,74.016,0,0,0-16.022-10.722c-6.537-3.385-14.219-6.277-22.564-9.824-2.079-.92-4.219-1.789-6.358-2.85l-3.253-1.557q-1.615-.874-3.258-1.761L461.7,367.3l-1.622-1.011-3.288-2.062c-1.072-.754-2.135-1.566-3.216-2.357a32.283,32.283,0,0,1-3.2-2.551q-1.573-1.389-3.165-2.794c-1.04-.954-1.942-2.007-2.931-3.018l-1.457-1.535c-.264-.291-.443-.441-.78-.845l-.689-.869q-1.375-1.74-2.775-3.5a87.317,87.317,0,0,1-9.425-16.148c-5.437-11.707-8.852-24.782-13.034-37.384a148.446,148.446,0,0,0-7.388-18.3,89.72,89.72,0,0,0-10.535-16.04l-3.093-3.338a34.509,34.509,0,0,0-3.3-3.215,76.216,76.216,0,0,0-7.052-5.736,108.482,108.482,0,0,0-15.493-8.726c-10.669-4.947-21.742-8.973-31.653-15.4-1.225-.825-2.478-1.57-3.662-2.451q-1.765-1.353-3.509-2.695a43.115,43.115,0,0,1-3.36-2.942,41.688,41.688,0,0,1-3.177-3.086q-1.458-1.61-2.894-3.2l-.719-.793c-.343-.387-.48-.616-.731-.931l-1.332-1.76c-.868-1.188-1.8-2.3-2.6-3.525q-1.176-1.859-2.337-3.7a38.9,38.9,0,0,1-2.149-3.763c-.668-1.276-1.357-2.529-2-3.8q-.881-1.953-1.745-3.879l-.856-1.916-.757-1.951-1.49-3.849q-.668-1.939-1.318-3.842c-.9-2.527-1.636-5.054-2.416-7.509-3-9.855-5.451-18.93-8.316-26.647a95.048,95.048,0,0,0-9.075-18.915,70.1,70.1,0,0,0-4.33-6.277c-1.276-1.835-2.513-3.173-3.485-4.344-.982-1.142-1.8-1.937-2.325-2.51Z" transform="translate(-272.218 58.029)" fill="#272a30"/>
        <path id="Path_19" data-name="Path 19" d="M272.218,97.912l3.843,2.7c1.19,1,2.75,2.092,4.42,3.634l2.706,2.475q1.357,1.447,2.884,3.066c1.063,1.1,1.958,2.378,3.019,3.65q.776.966,1.587,1.977c.543.675,1.014,1.468,1.541,2.223A88.2,88.2,0,0,1,298.378,128a129.939,129.939,0,0,1,5.557,12.793c.882,2.306,1.731,4.7,2.532,7.168.84,2.461,1.634,4.991,2.46,7.572,1.655,5.153,3.316,10.538,5.309,15.931.942,2.73,2.077,5.393,3.2,8.116.555,1.363,1.237,2.654,1.854,4s1.258,2.687,2.009,3.955q1.079,1.937,2.174,3.9,1.222,1.851,2.46,3.722c.42.618.815,1.26,1.255,1.863l1.383,1.749c.914,1.133,1.889,2.42,2.759,3.447A79.811,79.811,0,0,0,344.689,214.2a106.9,106.9,0,0,0,15.795,8.734c5.537,2.532,11.31,4.781,17.071,7.4a108.975,108.975,0,0,1,17.078,9.239c1.4.884,2.7,1.988,4.051,2.975.664.522,1.362.983,2,1.557l1.91,1.714a43.657,43.657,0,0,1,3.734,3.556l3.615,3.9A93.044,93.044,0,0,1,421.413,271.2a150.617,150.617,0,0,1,7.822,20.171c2.216,6.8,4.128,13.62,6.268,20.16a147.016,147.016,0,0,0,7.4,18.655,91.094,91.094,0,0,0,10.108,15.72l.172.227c-.051-.052.1.107.134.151l.385.424.763.845,1.527,1.684,1.515,1.673c.513.522,1.044.974,1.564,1.464q1.566,1.442,3.112,2.868l3.3,2.569a36.913,36.913,0,0,0,3.348,2.374c1.139.729,2.232,1.533,3.388,2.189,2.3,1.321,4.56,2.66,6.871,3.774,4.567,2.354,9.124,4.314,13.486,6.271,2.186.976,4.327,1.913,6.411,2.905q3.136,1.422,6.07,2.988a97.727,97.727,0,0,1,10.829,6.564,78.026,78.026,0,0,1,15.424,14.549q1.365,1.79,2.583,3.39,1.121,1.71,2.1,3.2c1.306,1.979,2.23,3.814,3.075,5.222l2.288,4.541s-.858-1.529-2.471-4.4a86.394,86.394,0,0,0-8.161-11.314,75.435,75.435,0,0,0-15.6-13.625c-6.581-4.307-14.549-7.822-23.341-11.46-4.4-1.837-9.015-3.682-13.716-5.956-2.367-1.07-4.71-2.381-7.1-3.676-1.2-.642-2.35-1.442-3.541-2.165a37.89,37.89,0,0,1-3.522-2.368l-3.488-2.586q-1.688-1.483-3.392-2.984c-.564-.507-1.153-1-1.7-1.523l-1.545-1.634-1.559-1.642-.782-.824-.39-.413-.251-.271-.183-.232a89.579,89.579,0,0,1-10.822-16.337,150.4,150.4,0,0,1-7.85-19.19c-2.265-6.649-4.221-13.444-6.411-20.136a145.194,145.194,0,0,0-7.616-19.463,87.883,87.883,0,0,0-11.006-17.036l-3.272-3.534a41.477,41.477,0,0,0-3.508-3.368l-1.791-1.627c-.6-.544-1.26-.983-1.887-1.479-1.283-.939-2.5-1.994-3.833-2.84a105.427,105.427,0,0,0-16.482-8.994c-5.667-2.586-11.416-4.9-17.046-7.577a110.609,110.609,0,0,1-16.247-9.267,79.652,79.652,0,0,1-13.779-12.731c-1.1-1.332-1.951-2.542-2.928-3.807l-1.415-1.872c-.448-.644-.852-1.328-1.276-1.987q-1.256-1.992-2.494-3.96-1.1-2.072-2.188-4.121c-.759-1.343-1.385-2.756-2.007-4.157s-1.29-2.765-1.833-4.181c-1.1-2.826-2.209-5.594-3.114-8.391-1.926-5.552-3.488-11.006-5.045-16.2-3.079-10.383-6.052-19.795-9.7-27.566a88.052,88.052,0,0,0-5.708-10.4c-.494-.762-.921-1.551-1.441-2.248l-1.525-2.046c-1.007-1.3-1.912-2.678-2.873-3.737a79.382,79.382,0,0,0-9.569-9.626C273.515,98.926,272.218,97.912,272.218,97.912Z" transform="translate(-272.218 50.073)" fill="#272a30"/>
        <path id="Path_20" data-name="Path 20" d="M272.218,89.458l1.1.574c.722.387,1.808.915,3.177,1.725a70.132,70.132,0,0,1,11.454,7.955,74.629,74.629,0,0,1,7.326,7.179c1.258,1.485,2.434,3.014,3.729,4.611a26.527,26.527,0,0,1,1.854,2.571l1.849,2.761a30.266,30.266,0,0,1,1.791,2.944c.573,1.02,1.16,2.055,1.752,3.1,1.156,2.123,2.177,4.423,3.3,6.732,2.033,4.746,3.989,9.855,5.745,15.274q2.617,8.1,5.448,16.849a156.454,156.454,0,0,0,6.7,17.357,82.536,82.536,0,0,0,9.706,16.255c.968,1.2,2,2.564,2.921,3.658q1.66,1.768,3.332,3.551a39.737,39.737,0,0,0,3.443,3.243,37.623,37.623,0,0,0,3.606,3c9.948,7.922,22.016,12.292,34.1,17.6a113.459,113.459,0,0,1,17.976,9.484,79.457,79.457,0,0,1,16.069,14.156,91.4,91.4,0,0,1,11.987,18.976,158.353,158.353,0,0,1,8.031,21.23c4.5,14.271,8.2,28.523,14.9,40.271a76.832,76.832,0,0,0,11.414,15.728c.541.585,1.07,1.208,1.615,1.754l1.664,1.531c1.128.992,2.158,2.093,3.348,2.99q1.765,1.372,3.506,2.728c1.174.889,2.415,1.629,3.608,2.442a112.653,112.653,0,0,0,14.693,7.913q7.393,3.337,14.266,6.435a128.722,128.722,0,0,1,12.934,6.784c1.954,1.334,3.9,2.538,5.7,3.9l2.629,2.071a26.079,26.079,0,0,1,2.487,2.108l2.323,2.176a23.272,23.272,0,0,1,2.181,2.191c1.36,1.536,2.685,2.96,3.926,4.43a82.22,82.22,0,0,1,6.07,8.64,89.607,89.607,0,0,1,6.734,13.529c.685,1.619,1.132,2.9,1.459,3.754s.485,1.293.485,1.293l-.538-1.265c-.36-.832-.856-2.084-1.6-3.661a95.883,95.883,0,0,0-7.177-13.081,78.965,78.965,0,0,0-6.254-8.287c-1.23-1.354-2.6-2.724-3.968-4.167a22.782,22.782,0,0,0-2.2-2.057q-1.149-1-2.339-2.033a24.462,24.462,0,0,0-2.494-1.959l-2.627-1.918c-1.8-1.258-3.743-2.361-5.685-3.58a140.268,140.268,0,0,0-12.867-6.321l-14.382-6.068a114.561,114.561,0,0,1-15.166-7.708c-1.251-.812-2.548-1.546-3.785-2.438l-3.71-2.75c-1.253-.9-2.411-2.07-3.634-3.106l-1.815-1.608c-.58-.557-1.1-1.149-1.659-1.725L461,347.445l-.828-.876-.415-.439-.264-.282-.2-.247q-1.553-1.984-3.121-3.99a48.329,48.329,0,0,1-2.938-4.246,47.7,47.7,0,0,1-2.74-4.48,116.345,116.345,0,0,1-8.806-19.839c-2.464-6.944-4.564-14.09-6.8-21.151a152.942,152.942,0,0,0-7.836-20.536,86.412,86.412,0,0,0-11.37-17.886,75.35,75.35,0,0,0-15.145-13.433,110.173,110.173,0,0,0-17.387-9.252c-5.98-2.641-12.027-5.128-17.907-8.036a87.616,87.616,0,0,1-16.8-10.4,41.222,41.222,0,0,1-3.824-3.265,44.659,44.659,0,0,1-3.6-3.473q-1.653-1.812-3.293-3.6c-1.156-1.415-2.07-2.7-3.1-4.043a87.227,87.227,0,0,1-9.827-17.218,161.1,161.1,0,0,1-6.525-17.912q-2.666-8.807-5.142-16.986c-1.631-5.43-3.5-10.455-5.349-15.2-1.035-2.295-1.968-4.595-3.033-6.714q-.825-1.574-1.624-3.1a29.1,29.1,0,0,0-1.654-2.938q-.87-1.4-1.713-2.748a25.052,25.052,0,0,0-1.745-2.6c-1.227-1.625-2.416-3.278-3.548-4.713a75.1,75.1,0,0,0-7.008-7.374,77.823,77.823,0,0,0-11.078-8.475c-1.332-.882-2.4-1.47-3.1-1.894Z" transform="translate(-272.218 42.933)" fill="#272a30"/>
        <path id="Path_21" data-name="Path 21" d="M272.218,81.576l4.6,2.014a95.025,95.025,0,0,1,12.611,6.86A72.321,72.321,0,0,1,306.5,106.115,95.212,95.212,0,0,1,321.587,134.1c2.093,5.576,3.908,11.522,5.864,17.609,1.924,6.1,3.966,12.343,6.481,18.493,1.2,3.112,2.675,6.089,4.128,9.117q1.218,2.177,2.443,4.382c.789,1.492,1.8,2.8,2.7,4.228l1.39,2.1,1.55,1.959,1.548,1.975.777.992a2.154,2.154,0,0,1,.137.181l.218.234.436.467q1.747,1.865,3.511,3.75c1.19,1.2,2.436,2.2,3.652,3.316a82.749,82.749,0,0,0,16.612,10.871c5.959,3.023,12.245,5.509,18.577,8.263a127.2,127.2,0,0,1,18.839,9.7l2.29,1.472,2.214,1.66a47.78,47.78,0,0,1,4.335,3.492l2.093,1.883a21.24,21.24,0,0,1,2.033,1.97l3.961,4.27,3.446,4.466a24.663,24.663,0,0,1,1.664,2.394l1.622,2.507A56.939,56.939,0,0,1,437.076,261l1.4,2.612,1.248,2.708a177.989,177.989,0,0,1,8.217,22.252c2.332,7.479,4.444,14.9,7,21.935a107.193,107.193,0,0,0,9.217,19.644,74.213,74.213,0,0,0,12.7,15.623c1.2,1.044,2.276,2.215,3.543,3.152q1.866,1.45,3.708,2.883c2.566,1.717,5.086,3.46,7.72,4.877a166.618,166.618,0,0,0,15.658,7.655c5.151,2.309,10.189,4.454,14.909,6.928a77.526,77.526,0,0,1,23.7,17.825,82,82,0,0,1,13.261,20.16,131.711,131.711,0,0,1,5.806,14.894c1.114,3.543,1.7,5.432,1.7,5.432s-.664-1.854-1.91-5.331a145.562,145.562,0,0,0-6.291-14.522A77.085,77.085,0,0,0,521.5,373.78c-4.678-2.315-9.713-4.323-14.913-6.507a168.083,168.083,0,0,1-16.027-7.383c-2.726-1.391-5.376-3.13-8.07-4.853q-1.949-1.45-3.926-2.914c-1.332-.943-2.552-2.188-3.845-3.28a74.52,74.52,0,0,1-13.472-16.163,111.229,111.229,0,0,1-9.811-20.378c-2.715-7.217-4.9-14.712-7.212-22.11a173.283,173.283,0,0,0-8.033-21.577l-1.2-2.577-1.339-2.468a52.868,52.868,0,0,0-2.794-4.8l-1.483-2.289a21.426,21.426,0,0,0-1.58-2.267l-3.457-4.454-3.594-3.881a19.547,19.547,0,0,0-1.91-1.863l-1.97-1.784a44.245,44.245,0,0,0-4.089-3.318l-2.091-1.584-2.181-1.411a123.566,123.566,0,0,0-18.271-9.488c-6.265-2.734-12.607-5.319-18.719-8.521a86.5,86.5,0,0,1-17.271-11.6c-1.295-1.21-2.668-2.37-3.877-3.615q-1.747-1.909-3.478-3.794l-.432-.47-.216-.238c-.181-.212-.167-.21-.26-.325l-.807-1.055-1.606-2.1-1.592-2.1-1.422-2.241c-.917-1.512-1.949-2.92-2.747-4.5q-1.243-2.332-2.469-4.635c-1.457-3.182-2.931-6.31-4.107-9.532-2.474-6.386-4.432-12.777-6.254-18.928-1.849-6.14-3.55-12.087-5.511-17.611a99.312,99.312,0,0,0-14.094-27.833,72.322,72.322,0,0,0-16.343-16.064,108.856,108.856,0,0,0-12.294-7.428C273.789,82.36,272.218,81.576,272.218,81.576Z" transform="translate(-272.218 36.277)" fill="#272a30"/>
        <path id="Path_22" data-name="Path 22" d="M272.218,73.945l4.843,1.937A143.376,143.376,0,0,1,290.568,82,76.559,76.559,0,0,1,309.76,95.933q1.232,1.287,2.5,2.612l.638.668.16.166.107.116.072.092.292.365c.39.485.78.976,1.176,1.47q1.187,1.486,2.4,3.01c.794,1.048,1.52,2.23,2.3,3.364a92.53,92.53,0,0,1,8.228,15.518c2.467,5.681,4.495,11.854,6.571,18.209,2.044,6.373,4.033,12.967,6.441,19.52a113.206,113.206,0,0,0,8.8,19.146,83.106,83.106,0,0,0,6,8.665l1.624,2.082.2.26c.007.015.125.153.044.065l.116.124.457.491.919.981c1.234,1.265,2.434,2.717,3.713,3.851s2.559,2.282,3.85,3.429q2.071,1.558,4.163,3.126a88.263,88.263,0,0,0,8.892,5.425c6.147,3.289,12.662,5.952,19.255,8.8a139.227,139.227,0,0,1,19.691,9.9,77.575,77.575,0,0,1,17.642,15.171l3.657,4.733c1.193,1.566,2.276,3.434,3.413,5.141l.842,1.308.742,1.359,1.476,2.719c1.03,1.782,1.84,3.7,2.717,5.576a196.6,196.6,0,0,1,8.384,23.255c2.406,7.787,4.669,15.483,7.449,22.742a94.055,94.055,0,0,0,10.189,20.026c.977,1.531,2.142,2.864,3.2,4.3.531.666,1.1,1.5,1.594,2.023l1.81,1.974a75.9,75.9,0,0,0,7.342,7.077,86.491,86.491,0,0,0,16.208,10.4c5.548,2.846,11.133,5.194,16.526,7.61a148.038,148.038,0,0,1,15.417,7.76,74.8,74.8,0,0,1,23.176,21.11,95.891,95.891,0,0,1,11.806,22.68c2.564,6.732,4.061,12.245,5.177,15.955,1.07,3.731,1.641,5.72,1.641,5.72s-.643-1.957-1.849-5.627c-.62-1.826-1.388-4.08-2.288-6.725-1-2.6-2-5.655-3.4-8.923a93.377,93.377,0,0,0-12.212-21.861,75.3,75.3,0,0,0-23.065-19.874,144.4,144.4,0,0,0-15.31-7.282c-5.4-2.278-11.061-4.508-16.774-7.278a88.664,88.664,0,0,1-16.957-10.381,71.228,71.228,0,0,1-7.8-7.293l-1.826-1.951c-.729-.773-1.19-1.476-1.8-2.221-1.125-1.5-2.362-2.9-3.406-4.493a98.027,98.027,0,0,1-10.859-20.837c-2.954-7.472-5.3-15.28-7.7-23.017a191.046,191.046,0,0,0-8.217-22.611c-.842-1.782-1.617-3.619-2.6-5.3l-1.4-2.569L440.6,256.5l-.777-1.192c-1.067-1.579-1.979-3.2-3.167-4.755l-3.539-4.567a73.608,73.608,0,0,0-16.644-14.4,136.25,136.25,0,0,0-19.148-9.706c-6.55-2.833-13.159-5.611-19.487-9.1a78.484,78.484,0,0,1-17.693-12.876c-1.369-1.256-2.485-2.643-3.731-3.949l-.91-.991-.452-.5-.114-.124c-.151-.175-.1-.127-.165-.2l-.213-.277-1.694-2.212a79.367,79.367,0,0,1-6.175-9.222,117.723,117.723,0,0,1-8.79-20.024c-2.348-6.749-4.237-13.441-6.163-19.813-1.954-6.36-3.854-12.489-6.168-18.085a95.916,95.916,0,0,0-7.7-15.27c-.722-1.121-1.369-2.269-2.126-3.335q-1.176-1.572-2.32-3.1-.574-.766-1.135-1.518l-.283-.376-.07-.094c.028.035-.037-.037-.051-.053l-.151-.168-.606-.673q-1.2-1.339-2.376-2.643a76.48,76.48,0,0,0-18.524-14.431c-2.766-1.656-5.353-2.846-7.553-4.021l-5.694-2.7Z" transform="translate(-272.218 29.833)" fill="#272a30"/>
        <path id="Path_23" data-name="Path 23" d="M272.218,66.278s1.733.769,5.012,2.106c3.272,1.37,8.126,3.174,14.213,5.834,6.045,2.726,13.461,6.2,21.025,12.268a70,70,0,0,1,11.092,11.091q1.3,1.635,2.631,3.309l2.478,3.752q.626.952,1.258,1.916.56,1.01,1.128,2.029c.743,1.37,1.552,2.719,2.262,4.152a150.636,150.636,0,0,1,7.581,18.62c2.262,6.6,4.279,13.52,6.625,20.45a141.826,141.826,0,0,0,8.421,20.463A77.146,77.146,0,0,0,368.7,190.257l1.935,2.066,2.009,1.784a44.05,44.05,0,0,0,4.149,3.466,75.863,75.863,0,0,0,9.059,6.017,191.312,191.312,0,0,0,19.918,9.372,152.272,152.272,0,0,1,20.543,10.1,77.314,77.314,0,0,1,18.424,15.674l3.806,4.927c1.223,1.682,2.365,3.589,3.543,5.377a102.357,102.357,0,0,1,5.926,11.458,215.867,215.867,0,0,1,8.553,24.264c2.48,8.1,4.884,16.073,7.936,23.523a89.2,89.2,0,0,0,11.3,20.267l1.7,2.213c.269.332.6.821.812,1.024l.949,1.035c1.271,1.35,2.506,2.813,3.791,4.051l3.873,3.527c1.353,1.1,2.743,2.138,4.1,3.2a104.238,104.238,0,0,0,17.327,9.947c5.866,2.769,11.723,5.154,17.312,7.826a110.867,110.867,0,0,1,15.765,8.953c1.211.841,2.355,1.8,3.515,2.673.578.446,1.149.891,1.719,1.334.538.494,1.074.983,1.608,1.472q1.594,1.469,3.154,2.9,1.441,1.594,2.845,3.152.7.777,1.392,1.549c.515.544.868,1.085,1.3,1.621.831,1.081,1.671,2.1,2.429,3.248,1.583,2.212,2.975,4.449,4.26,6.672,5.135,8.936,8.077,17.7,10.384,24.838,2.253,7.188,3.78,12.922,4.94,16.785,1.132,3.873,1.784,5.921,1.784,5.921s-.724-2.012-1.993-5.828-3.068-9.447-5.476-16.534c-2.481-7.026-5.639-15.591-10.892-24.144-1.313-2.127-2.743-4.272-4.309-6.33-.743-1.061-1.624-2.07-2.48-3.115a37.838,37.838,0,0,0-2.692-2.975q-1.392-1.466-2.826-2.971-1.535-1.353-3.107-2.745-.783-.692-1.58-1.393c-.562-.415-1.123-.834-1.692-1.254-1.142-.826-2.258-1.728-3.453-2.518a107.349,107.349,0,0,0-15.561-8.405c-5.55-2.51-11.44-4.761-17.433-7.431a106.614,106.614,0,0,1-17.993-9.846c-1.443-1.083-2.907-2.134-4.353-3.263l-4.212-3.77c-1.362-1.291-2.559-2.691-3.859-4.039l-.956-1.024a15.062,15.062,0,0,1-.975-1.19l-1.808-2.311a93.262,93.262,0,0,1-12.045-21.14c-3.249-7.7-5.743-15.835-8.228-23.908a211.043,211.043,0,0,0-8.4-23.655,97.184,97.184,0,0,0-5.639-10.827c-1.1-1.645-2.088-3.329-3.276-4.958l-3.685-4.755a73.212,73.212,0,0,0-17.391-14.883,149.059,149.059,0,0,0-20.027-9.923,177.394,177.394,0,0,1-20.243-9.724,80.1,80.1,0,0,1-9.423-6.4,47.565,47.565,0,0,1-4.411-3.77l-2.153-1.968-1.919-2.09a78.853,78.853,0,0,1-13.192-19.077,146.993,146.993,0,0,1-8.337-21.25c-2.26-7.079-4.165-14.035-6.293-20.59a149.023,149.023,0,0,0-7.117-18.382c-.671-1.407-1.432-2.728-2.132-4.074-.357-.67-.71-1.337-1.063-2l-1.17-1.852q-1.166-1.843-2.3-3.641-1.295-1.718-2.555-3.394A69.177,69.177,0,0,0,311.6,87.958c-7.242-6.207-14.5-9.931-20.445-12.863-6-2.842-10.771-4.954-14-6.465S272.218,66.278,272.218,66.278Z" transform="translate(-272.218 23.358)" fill="#272a30"/>
        <path id="Path_24" data-name="Path 24" d="M272.218,58.282l1.3.666c.861.426,2.114,1.123,3.8,1.885,3.33,1.629,8.33,3.669,14.7,6.264,6.346,2.638,14.178,5.674,22.538,10.965a73.026,73.026,0,0,1,12.523,9.962c1.014,1.024,2,2.119,3.012,3.209.262.3.483.5.782.874l.694.882q.7.885,1.4,1.782a83.575,83.575,0,0,1,5.49,7.83,118.636,118.636,0,0,1,8.924,18.782c2.587,6.782,4.731,13.994,7.073,21.278a184.919,184.919,0,0,0,8.128,21.73c.838,1.75,1.624,3.552,2.61,5.211s1.789,3.477,2.9,5.043c1.081,1.592,2.056,3.3,3.23,4.82q1.747,2.238,3.5,4.495,2,2.15,4.024,4.318c1.362,1.382,2.787,2.529,4.179,3.818a76.91,76.91,0,0,0,9.205,6.636A150.228,150.228,0,0,0,412.8,208.777c7.119,3.025,14.426,6.063,21.417,10.263,1.719,1.121,3.467,2.176,5.163,3.355,1.652,1.269,3.348,2.466,4.966,3.805,1.569,1.424,3.177,2.794,4.71,4.274l4.465,4.8,3.884,5.043c1.253,1.8,2.45,3.752,3.669,5.626,1.144,1.926,2.149,3.918,3.225,5.873,1,2,1.893,4.069,2.84,6.1,3.557,8.258,6.128,16.888,8.69,25.3a213.373,213.373,0,0,0,8.507,24.286,85.674,85.674,0,0,0,12.449,20.494l3.9,4.248a23.033,23.033,0,0,0,2.021,1.94l2.033,1.843,1.012.92,1.081.836L509,339.432a50.787,50.787,0,0,0,4.411,3.082,131.618,131.618,0,0,0,18.4,9.6c6.165,2.769,12.272,5.3,18.013,8.355a91.6,91.6,0,0,1,15.9,10.541,76.4,76.4,0,0,1,6.629,6.483c1.014,1.162,2.074,2.173,3.012,3.422.91,1.18,1.822,2.315,2.685,3.51a87.962,87.962,0,0,1,8.453,14.824c4.478,9.872,7.049,19.124,9.284,26.618,2.2,7.524,3.921,13.428,5.3,17.364.645,1.992,1.234,3.47,1.594,4.484s.564,1.533.564,1.533l-.615-1.5c-.395-1-1.037-2.45-1.747-4.408-1.5-3.883-3.49-9.693-5.85-17.146-2.42-7.407-5.223-16.528-9.866-26.061a84.823,84.823,0,0,0-8.576-14.118c-.87-1.14-1.829-2.256-2.747-3.416-.868-1.121-1.958-2.128-2.942-3.217a73.055,73.055,0,0,0-6.516-6.138,88.228,88.228,0,0,0-15.619-9.907c-5.664-2.87-11.753-5.249-17.995-7.9a133.736,133.736,0,0,1-18.962-9.418,52.655,52.655,0,0,1-4.648-3.115l-2.279-1.715-1.137-.872-1.1-.983c-1.434-1.332-3.012-2.6-4.341-4.014l-4.045-4.355a89.86,89.86,0,0,1-13.2-21.438,217.772,217.772,0,0,1-8.834-24.771c-2.608-8.405-5.177-16.827-8.627-24.709-.914-1.927-1.777-3.9-2.738-5.8-1.028-1.835-2-3.744-3.075-5.526-1.139-1.714-2.2-3.451-3.39-5.155l-3.905-5.024-4.058-4.4c-1.439-1.4-2.952-2.7-4.42-4.062-1.522-1.278-3.128-2.42-4.687-3.639-1.606-1.131-3.276-2.151-4.908-3.233-6.674-4.073-13.8-7.107-20.921-10.187a153.782,153.782,0,0,1-20.974-10.434,80.256,80.256,0,0,1-9.637-7.046c-1.487-1.383-3.07-2.708-4.455-4.137q-2.008-2.18-4-4.346a87.135,87.135,0,0,1-12.8-20.793,189.434,189.434,0,0,1-7.975-22.39c-2.239-7.376-4.258-14.568-6.685-21.256a116.135,116.135,0,0,0-8.391-18.447,81.072,81.072,0,0,0-5.2-7.693q-.693-.91-1.376-1.809l-.682-.9c-.162-.218-.462-.529-.685-.786-.97-1.072-1.889-2.182-2.852-3.208a72.326,72.326,0,0,0-11.978-10.15c-8.07-5.485-15.793-8.793-22.067-11.652-6.312-2.785-11.228-5.137-14.516-6.906-1.661-.841-2.889-1.6-3.734-2.064Z" transform="translate(-272.218 16.606)" fill="#272a30"/>
        <path id="Path_25" data-name="Path 25" d="M272.218,49.624l1.281.856c.856.539,2.07,1.463,3.754,2.437A119.575,119.575,0,0,0,292.194,60.4c6.553,2.892,14.728,5.76,23.759,10.348a79.335,79.335,0,0,1,13.8,8.807q.867.683,1.745,1.376.832.761,1.68,1.533c1.1,1.059,2.3,2.031,3.346,3.237,1.081,1.19,2.165,2.271,3.281,3.591q1.5,1.909,3.035,3.857a95.916,95.916,0,0,1,10.648,18.622,228.511,228.511,0,0,1,7.852,21.99c2.416,7.618,4.822,15.431,7.95,22.977a92.489,92.489,0,0,0,11.9,21.2l1.861,2.39.466.6.462.5,1.049,1.125a55.087,55.087,0,0,0,4.26,4.347,71.8,71.8,0,0,0,9.284,7.313c6.588,4.388,13.809,7.677,21.2,10.829s14.994,6.26,22.306,10.515a75.936,75.936,0,0,1,20.09,16.654l4.107,5.325c1.283,1.929,2.543,3.92,3.805,5.88,1.109,2.044,2.232,4.078,3.306,6.14.961,2.129,1.984,4.228,2.887,6.38,3.6,8.636,6.226,17.617,8.9,26.345s5.451,17.259,9.168,25.039a79.675,79.675,0,0,0,13.786,20.538c.7.74,1.376,1.524,2.077,2.223l2.135,1.929,2.123,1.928,2.269,1.743,2.26,1.728c.766.551,1.569,1.033,2.346,1.551l2.339,1.54c.78.507,1.6.93,2.4,1.4a198.556,198.556,0,0,0,19.454,9.392,160.648,160.648,0,0,1,18.617,9.274,79.715,79.715,0,0,1,15.746,12.555q1.678,1.843,3.316,3.647c1.111,1.308,2,2.558,3,3.82,1,1.2,1.847,2.647,2.745,3.956.439.671.891,1.326,1.309,2q.588,1.037,1.165,2.06a103.932,103.932,0,0,1,7.458,16.3c3.882,10.669,6.312,20.322,8.757,28.064a168.172,168.172,0,0,0,6.339,17.648c.824,1.99,1.6,3.421,2.061,4.434.476,1,.724,1.511.724,1.511l-.773-1.477c-.49-.989-1.318-2.389-2.209-4.344A151.406,151.406,0,0,1,606.9,433.3c-2.641-7.68-5.314-17.261-9.4-27.654a100.7,100.7,0,0,0-7.69-15.715,74.206,74.206,0,0,0-26.838-26.579,157.428,157.428,0,0,0-18.459-8.737,200,200,0,0,1-19.881-9.125c-.828-.467-1.68-.885-2.5-1.394l-2.457-1.551c-.815-.535-1.65-1.031-2.455-1.6l-2.378-1.795-2.388-1.815-2.306-2.066-2.311-2.082c-.729-.721-1.395-1.481-2.1-2.221a83.76,83.76,0,0,1-14.6-21.494c-3.924-8.112-6.824-16.884-9.551-25.635s-5.36-17.548-8.859-25.81c-.877-2.062-1.861-4.045-2.789-6.076l-3.156-5.8-3.506-5.371-4-5.15a72.008,72.008,0,0,0-18.955-15.887c-7-4.137-14.44-7.238-21.854-10.464s-14.837-6.646-21.705-11.283a74.659,74.659,0,0,1-9.811-7.845,57.553,57.553,0,0,1-4.337-4.477l-1.044-1.133-.576-.635-.492-.634-1.945-2.531a92.311,92.311,0,0,1-12.284-22.3c-3.114-7.863-5.43-15.835-7.727-23.484a226.224,226.224,0,0,0-7.4-21.8,93.414,93.414,0,0,0-10-18.183,76.419,76.419,0,0,0-25.812-22.6c-8.8-4.831-16.913-7.988-23.415-11.107a110.39,110.39,0,0,1-14.767-8.136c-1.654-1.051-2.836-2.029-3.676-2.606Z" transform="translate(-272.218 9.294)" fill="#272a30"/>
        <path id="Path_26" data-name="Path 26" d="M272.218,39.874l4.757,4.325a87.513,87.513,0,0,0,14.767,9.656c6.653,3.529,15.087,6.7,24.687,10.807a109.664,109.664,0,0,1,14.96,7.69c1.255.839,2.585,1.575,3.829,2.532s2.513,1.909,3.792,2.881a77.317,77.317,0,0,1,7.27,6.911q.888.943,1.782,1.9c.65.747,1.111,1.389,1.678,2.1,1.07,1.415,2.228,2.7,3.255,4.263s2.065,3.134,3.112,4.724q1.392,2.5,2.808,5.041a150.122,150.122,0,0,1,9.11,22.516c2.622,7.94,5,16.174,7.98,24.231a104.63,104.63,0,0,0,11.37,22.951l.877,1.337.97,1.247,1.947,2.5.975,1.256.121.157c-.07-.083.06.061.081.081l.274.3.55.588,2.2,2.365a52.628,52.628,0,0,0,4.532,4.3,57.536,57.536,0,0,0,4.847,3.853c6.694,4.892,14.147,8.509,21.837,11.788,7.683,3.316,15.621,6.461,23.271,10.812a76.721,76.721,0,0,1,21.03,17.176l4.274,5.561c1.311,2.053,2.682,4.076,3.924,6.164,1.128,2.147,2.369,4.224,3.392,6.432.984,2.23,2.112,4.384,2.956,6.679,3.682,9.036,6.346,18.412,9.152,27.483,2.78,9.086,5.84,17.886,9.982,25.793,1.084,1.931,2.037,3.969,3.276,5.747a59.2,59.2,0,0,0,3.65,5.358l1.947,2.532c.3.385.689.919.926,1.188l1.093,1.184,2.174,2.359,1.084,1.179,1.118,1.018a73.173,73.173,0,0,0,9.342,7.483,101.133,101.133,0,0,0,10.045,5.895c6.822,3.519,13.792,6.328,20.515,9.425A110.088,110.088,0,0,1,578.8,362.4a73.253,73.253,0,0,1,15.263,14.929,85.569,85.569,0,0,1,5.848,8.582q1.236,2.263,2.441,4.478c.81,1.466,1.436,3.036,2.146,4.521a153.477,153.477,0,0,1,6.509,17.67c3.481,11.336,6.163,21.3,9.147,29.156a113.115,113.115,0,0,0,8.177,17.449c2.388,3.661,3.659,5.613,3.659,5.613l-3.838-5.458a105.229,105.229,0,0,1-8.725-17.211c-3.188-7.806-6.126-17.755-9.848-28.9a150.747,150.747,0,0,0-6.817-17.2c-.726-1.426-1.381-2.935-2.183-4.351s-1.61-2.85-2.43-4.3a82.973,82.973,0,0,0-5.787-8.2,70.067,70.067,0,0,0-14.934-14.1,106.642,106.642,0,0,0-18.756-10.124c-6.69-2.931-13.73-5.607-20.775-9.073a80.978,80.978,0,0,1-20.385-13.846l-1.209-1.1-1.088-1.169-2.186-2.346-1.1-1.177c-.478-.537-.726-.907-1.1-1.372l-2.065-2.656a62.886,62.886,0,0,1-3.875-5.624c-1.313-1.872-2.327-4-3.474-6.022-4.388-8.273-7.59-17.384-10.435-26.52-2.873-9.136-5.546-18.341-9.128-27-.824-2.213-1.91-4.242-2.856-6.369-.984-2.1-2.172-4.047-3.246-6.081-1.167-1.929-2.418-3.748-3.615-5.635l-4.158-5.373a72.687,72.687,0,0,0-19.863-16.394c-7.33-4.233-15.122-7.389-22.858-10.783-7.736-3.359-15.452-7.142-22.455-12.321a60.951,60.951,0,0,1-5.119-4.121,57.782,57.782,0,0,1-4.766-4.582L390.733,183l-.548-.592-.271-.3-.195-.214-.13-.166-1.021-1.326-2.04-2.651-1.014-1.322-.919-1.411A104,104,0,0,1,372.917,151c-2.933-8.322-5.2-16.635-7.683-24.535a147.193,147.193,0,0,0-8.574-22.156q-1.33-2.482-2.638-4.921-1.451-2.285-2.877-4.532c-.947-1.5-2.128-2.868-3.165-4.288-.522-.673-1.091-1.466-1.571-2.029q-.849-.941-1.694-1.868a76.232,76.232,0,0,0-6.945-6.834l-3.643-2.87c-1.2-.948-2.474-1.723-3.682-2.579a109.347,109.347,0,0,0-14.563-8.051c-9.435-4.394-17.86-7.861-24.471-11.629A83.8,83.8,0,0,1,276.836,44.4C273.824,41.451,272.218,39.874,272.218,39.874Z" transform="translate(-272.218 1.061)" fill="#272a30"/>
        <path id="Path_27" data-name="Path 27" d="M272.218,28.393l1.051,1.437c.687.95,1.7,2.378,3.156,4.076,1.367,1.8,3.341,3.663,5.553,6.017a80.625,80.625,0,0,0,8.307,6.891,86.392,86.392,0,0,0,11.21,6.79q6.352,3.154,13.925,6.216c5.019,2.106,10.423,4.194,15.983,6.954A86.589,86.589,0,0,1,348.142,77.43,75.928,75.928,0,0,1,363.12,94.346,108.4,108.4,0,0,1,374.2,117.089c3.026,8.236,5.5,16.916,8.384,25.518,2.891,8.586,6.168,17.167,10.762,24.919q1.824,2.805,3.662,5.637,2.022,2.587,4.056,5.194c1.543,1.64,3.079,3.346,4.645,4.949,1.624,1.411,3.174,2.92,4.866,4.276,6.808,5.474,14.528,9.482,22.531,13.009s16.336,6.708,24.376,11.178a77.8,77.8,0,0,1,22.188,17.867c1.471,1.922,2.959,3.778,4.4,5.771l2.079,3.217c.678,1.081,1.42,2.128,1.986,3.263,1.176,2.252,2.5,4.412,3.5,6.773l1.594,3.475c.522,1.164.956,2.366,1.439,3.549,3.782,9.5,6.467,19.347,9.463,28.792s6.379,18.568,11.015,26.61c1.153,2.009,2.46,3.877,3.671,5.816,1.337,1.819,2.731,3.569,4.086,5.351q2.259,2.468,4.508,4.916,2.367,2.141,4.713,4.264c6.56,5.434,13.832,9.289,21.1,12.7,7.284,3.4,14.633,6.332,21.605,9.9A84.587,84.587,0,0,1,594.061,367.1q1.069.979,2.123,1.951c.7.664,1.32,1.415,1.977,2.116s1.295,1.42,1.938,2.125l1,1.1.859,1.127c1.135,1.507,2.281,2.964,3.381,4.471q1.545,2.429,3.068,4.814a113.9,113.9,0,0,1,9.029,19.776c2.337,6.566,4.1,12.952,5.887,18.88q2.586,8.934,5.26,16.445a115.243,115.243,0,0,0,5.748,13.24,95.471,95.471,0,0,0,5.841,9.82c1.986,2.6,3.557,4.928,5.089,6.55,1.443,1.73,2.648,2.914,3.451,3.73s1.216,1.239,1.216,1.239l-1.253-1.188c-.828-.782-2.074-1.924-3.564-3.588-1.578-1.553-3.239-3.838-5.312-6.369a84.592,84.592,0,0,1-6.142-9.693,115.114,115.114,0,0,1-6.107-13.2c-1.907-4.986-3.805-10.471-5.664-16.372-3.792-11.731-7.8-25.257-15.352-37.677q-1.465-2.233-2.965-4.517c-1.107-1.466-2.281-2.916-3.434-4.4l-.872-1.11-.9-.952q-.943-1-1.894-2.01c-.643-.66-1.251-1.376-1.928-2q-1.03-.916-2.072-1.837a81.266,81.266,0,0,0-18.8-12.28c-6.871-3.372-14.213-6.144-21.654-9.451a94.971,94.971,0,0,1-21.919-12.965c-1.706-1.492-3.416-3.036-5.1-4.584l-2.3-2.466-1.153-1.238-.578-.62-.288-.31-.144-.155a2.546,2.546,0,0,1-.2-.24c-1.439-1.863-2.917-3.7-4.332-5.615-1.293-2.033-2.675-4-3.9-6.105-4.919-8.439-8.479-17.921-11.549-27.479s-5.783-19.269-9.472-28.388c-.466-1.133-.893-2.3-1.4-3.4l-1.539-3.309c-.965-2.252-2.228-4.274-3.351-6.408a34.8,34.8,0,0,0-1.852-3l-1.905-2.938c-1.4-1.924-2.938-3.805-4.393-5.718l-2.281-2.462c-.791-.836-1.538-1.728-2.364-2.514l-2.525-2.289a30.054,30.054,0,0,0-2.573-2.212c-1.805-1.326-3.518-2.82-5.427-3.958l-2.8-1.819c-.94-.594-1.924-1.1-2.884-1.651-7.72-4.355-15.932-7.542-24.035-11.181s-16.122-7.832-23.267-13.642c-1.789-1.452-3.492-3.119-5.228-4.665-1.592-1.649-3.1-3.339-4.641-4.995-1.573-1.968-2.907-3.755-4.362-5.633q-1.946-2.971-3.831-5.96a127.378,127.378,0,0,1-10.969-25.887c-2.8-8.793-5.151-17.46-8-25.574a105.816,105.816,0,0,0-10.384-22.176A73.809,73.809,0,0,0,346.8,79.644C336.275,70.72,324.831,65.985,314.9,61.507c-5-2.193-9.641-4.434-13.862-6.686a87.927,87.927,0,0,1-11.173-7.21,74.505,74.505,0,0,1-8.214-7.264c-2.132-2.437-4.063-4.4-5.386-6.264-1.415-1.767-2.376-3.232-3.037-4.211Z" transform="translate(-272.218 -8.635)" fill="#272a30"/>
        <path id="Path_28" data-name="Path 28" d="M273.629,17.681l.9,1.645c.6,1.083,1.455,2.724,2.747,4.705a75.141,75.141,0,0,0,4.966,7.083,87.5,87.5,0,0,0,7.729,8.44c6.119,5.814,14.614,11.264,24.91,15.754,5.135,2.3,10.718,4.438,16.544,6.972a107.849,107.849,0,0,1,17.9,9.54A75.132,75.132,0,0,1,366.1,87.631q.933,1.187,1.875,2.385c.606.843,1.177,1.76,1.768,2.643l1.768,2.693c.6.9,1.07,1.878,1.615,2.818,1.06,1.9,2.139,3.805,3.04,5.849q.71,1.511,1.425,3.031c.471,1.018.863,2.081,1.3,3.125,3.457,8.383,6.128,17.371,8.994,26.361s5.975,18.024,10.433,26.289a76.689,76.689,0,0,0,17.011,21.7,77.725,77.725,0,0,0,10.913,7.922c1.965,1.083,3.91,2.224,5.924,3.23,2.026.981,4.028,2.016,6.11,2.909,8.242,3.746,16.874,6.911,25.218,11.469a79.193,79.193,0,0,1,22.96,18.253l2.351,3.04c.752,1.018,1.545,1.911,2.26,3.032l2.149,3.329,1.07,1.667c.341.563.636,1.151.954,1.725,1.253,2.309,2.539,4.6,3.583,7.031.541,1.2,1.121,2.389,1.629,3.606l1.464,3.685c3.859,9.853,6.539,20.051,9.711,29.783.754,2.459,1.631,4.825,2.46,7.219.852,2.378,1.819,4.672,2.736,6.994a96.973,96.973,0,0,0,6.724,12.917l1.926,2.994c.627,1.007,1.4,1.87,2.093,2.811l2.126,2.765.132.172c.053.074-.019-.013.084.1l.3.325.594.646,1.193,1.293,2.376,2.573,2.45,2.213c.828.721,1.594,1.514,2.469,2.178l2.613,2c7,5.27,14.656,8.927,22.262,12.314s15.222,6.541,22.32,10.624a77.391,77.391,0,0,1,19.088,15.11c.68.749,1.362,1.494,2.037,2.237.759.843,1.253,1.6,1.889,2.4l1.8,2.357c.295.4.6.771.884,1.182l.824,1.286c1.067,1.726,2.228,3.372,3.179,5.122.935,1.76,1.884,3.486,2.778,5.225a149.979,149.979,0,0,1,8.077,21.138c2.146,6.884,3.952,13.478,5.9,19.542,3.8,12.168,8.4,22.18,13.345,29.436a90.337,90.337,0,0,0,7.14,9.117,68.8,68.8,0,0,0,5.994,5.862c1.68,1.529,3.065,2.534,3.982,3.244s1.392,1.07,1.392,1.07-.483-.345-1.422-1.013-2.353-1.623-4.082-3.088a72.8,72.8,0,0,1-13.623-14.6c-5.156-7.181-10.052-17.226-14.152-29.375-2.1-6.055-4.047-12.6-6.323-19.365a153.526,153.526,0,0,0-8.226-20.592q-1.364-2.482-2.759-5.013c-.94-1.675-2.054-3.187-3.081-4.814l-.791-1.2c-.279-.395-.6-.773-.9-1.16l-1.826-2.322c-.6-.738-1.244-1.651-1.826-2.256l-1.993-2.116a73.966,73.966,0,0,0-18.6-14.223c-6.947-3.84-14.484-6.819-22.2-10.084A107.84,107.84,0,0,1,540,335.966l-2.75-2.077c-.919-.693-1.777-1.555-2.671-2.33l-2.657-2.392-2.388-2.562-1.2-1.286-.6-.644-.3-.321c0,.007-.174-.188-.207-.234l-.141-.183-2.258-2.9c-.733-.989-1.55-1.9-2.218-2.955l-2.047-3.143a101.243,101.243,0,0,1-7.114-13.509c-.961-2.4-1.977-4.781-2.863-7.221-.863-2.449-1.777-4.89-2.552-7.372-3.265-9.883-5.975-19.981-9.741-29.449l-1.422-3.54c-.494-1.166-1.051-2.287-1.573-3.433-1.007-2.326-2.237-4.478-3.432-6.66-.3-.539-.585-1.1-.9-1.623l-.986-1.516-1.97-3.038c-1.376-1.968-3.1-4.019-4.465-5.845a75.222,75.222,0,0,0-21.721-17.429c-8.015-4.447-16.565-7.647-24.933-11.5-2.1-.917-4.167-2-6.24-3.016-2.067-1.046-4.089-2.245-6.114-3.381A78.3,78.3,0,0,1,395.3,165.059c-4.618-8.7-7.838-18.043-10.565-27.153-2.766-9.112-5.288-18.011-8.541-26.216-.413-1.022-.78-2.07-1.225-3.058s-.893-1.974-1.339-2.953c-.845-2-1.861-3.848-2.856-5.694-.508-.909-.956-1.885-1.511-2.734s-1.091-1.714-1.631-2.564-1.06-1.712-1.636-2.542q-.926-1.215-1.842-2.42a73.162,73.162,0,0,0-15.995-15.56,112.065,112.065,0,0,0-17.433-9.715c-5.729-2.691-11.27-4.991-16.4-7.47-10.291-4.845-18.779-10.609-24.882-16.724a80.492,80.492,0,0,1-7.564-8.758,76.717,76.717,0,0,1-4.785-7.319c-1.241-2.042-2.044-3.711-2.613-4.82Z" transform="translate(-270.355 -17.681)" fill="#272a30"/>
        <path id="Path_29" data-name="Path 29" d="M279.97,17.681s.36.483,1.058,1.418c.35.468.784,1.051,1.3,1.741l1.891,2.278c.689.889,1.562,1.741,2.5,2.732.949.97,1.956,2.077,3.1,3.185l3.822,3.326c1.353,1.186,2.938,2.217,4.53,3.431s3.425,2.2,5.256,3.394c1.875,1.109,3.889,2.145,5.975,3.25q6.352,3.1,13.9,6.137c5.012,2.086,10.384,4.218,15.927,6.967a84.823,84.823,0,0,1,16.61,10.8c1.318,1.193,2.694,2.341,4.007,3.61l3.822,4.062.485.515c.232.271.316.393.478.6l.875,1.112c.585.741,1.169,1.488,1.761,2.237a53.746,53.746,0,0,1,3.395,4.866,110.685,110.685,0,0,1,10.918,22.741c2.993,8.217,5.462,16.868,8.342,25.434,2.9,8.545,6.175,17.1,10.8,24.784,1.228,1.852,2.4,3.763,3.683,5.589,1.348,1.7,2.74,3.586,4.063,5.163,1.543,1.619,3.063,3.364,4.639,4.9,1.627,1.4,3.146,2.927,4.863,4.246,6.8,5.434,14.5,9.412,22.482,12.922s16.287,6.694,24.3,11.152A77.9,77.9,0,0,1,486.8,218.014l2.265,2.931c.729.972,1.483,1.865,2.186,2.9l2.072,3.206c.675,1.077,1.42,2.119,1.984,3.252,1.172,2.247,2.494,4.4,3.492,6.745l1.592,3.468c.527,1.155.956,2.359,1.436,3.536,3.775,9.462,6.46,19.278,9.442,28.7s6.342,18.519,10.941,26.551c1.121,2.029,2.443,3.872,3.645,5.808,1.295,1.852,2.712,3.567,4.054,5.353l.255.332c.051.07-.023-.018.077.092l.144.155.573.622,1.142,1.24,2.281,2.475c1.55,1.509,3.13,2.859,4.68,4.294,6.5,5.473,13.748,9.329,20.981,12.753,7.254,3.4,14.579,6.319,21.536,9.853a86.077,86.077,0,0,1,19.236,12.88,77.19,77.19,0,0,1,7.945,8.315q1.705,2.238,3.381,4.438c1.072,1.544,2.063,3.195,3.079,4.761a110.659,110.659,0,0,1,9.149,19.629c2.327,6.546,4.133,12.895,5.9,18.812q2.583,8.9,5.2,16.421c.935,2.462,1.812,4.844,2.752,7.055,1.012,2.165,1.843,4.325,2.873,6.208s1.9,3.748,2.905,5.353,1.947,3.115,2.822,4.519c.938,1.343,1.868,2.527,2.689,3.647s1.557,2.141,2.313,2.959q1.093,1.267,1.931,2.234l1.471,1.531,1.2,1.249s-.42-.408-1.237-1.2c-.409-.4-.919-.889-1.522-1.474-.575-.618-1.241-1.337-2-2.151-.777-.784-1.543-1.8-2.411-2.874s-1.831-2.239-2.815-3.554q-1.385-2.067-2.975-4.436c-1.053-1.588-1.972-3.442-3.056-5.312s-1.972-4.019-3.044-6.181c-1-2.2-1.938-4.58-2.938-7.039-1.875-4.984-3.738-10.458-5.592-16.34-1.9-5.862-3.84-12.127-6.274-18.495a111.274,111.274,0,0,0-9.193-18.934c-.993-1.477-1.931-3-2.991-4.486q-1.7-2.166-3.439-4.373a74.466,74.466,0,0,0-7.706-7.789,82.61,82.61,0,0,0-18.809-12.111c-6.857-3.335-14.178-6.094-21.6-9.407A92.956,92.956,0,0,1,537,323.114c-1.675-1.524-3.425-3.021-5.054-4.6l-2.29-2.459-1.151-1.234-.573-.618-.144-.153c0,.007-.169-.184-.2-.229l-.272-.347c-1.427-1.869-2.926-3.676-4.3-5.618-1.278-2.029-2.68-3.975-3.868-6.1-4.882-8.427-8.416-17.882-11.472-27.413s-5.764-19.2-9.444-28.289c-.469-1.129-.889-2.291-1.4-3.392l-1.534-3.3c-.958-2.247-2.225-4.255-3.341-6.384-.548-1.088-1.225-2-1.847-2.994l-1.9-2.927c-1.369-1.883-3-3.872-4.316-5.622a74.03,74.03,0,0,0-20.842-16.94c-7.7-4.347-15.874-7.535-23.954-11.154s-16.076-7.786-23.209-13.551c-1.8-1.4-3.488-3.093-5.221-4.626-1.634-1.618-3.1-3.318-4.65-4.967-1.594-1.9-2.907-3.726-4.362-5.585-1.337-1.929-2.571-3.949-3.849-5.908a124.348,124.348,0,0,1-11.017-25.764c-2.805-8.759-5.144-17.4-7.968-25.505a108.1,108.1,0,0,0-10.24-22.195,72.491,72.491,0,0,0-14.1-16.711A86.85,86.85,0,0,0,338.44,57.669c-5.393-2.876-10.7-5.166-15.658-7.407-4.982-2.191-9.618-4.394-13.837-6.605-2.081-1.182-4.093-2.291-5.961-3.469-1.828-1.267-3.648-2.315-5.233-3.593s-3.151-2.365-4.5-3.61-2.6-2.427-3.764-3.521c-1.109-1.16-2.081-2.3-3-3.315-.9-1.022-1.766-1.927-2.432-2.85q-1.037-1.339-1.824-2.363c-.494-.712-.912-1.31-1.246-1.793Z" transform="translate(-261.982 -17.681)" fill="#272a30"/>
        <path id="Path_30" data-name="Path 30" d="M287.344,17.681s1.638,1.527,4.766,4.294a87.6,87.6,0,0,0,14.781,9.582c6.653,3.506,15.083,6.659,24.666,10.777a107.969,107.969,0,0,1,14.929,7.719c1.253.845,2.59,1.562,3.817,2.545q1.873,1.422,3.785,2.879l3.678,3.292.93.837.872.93q.877.932,1.761,1.878t1.78,1.9l1.661,2.1q.815,1.035,1.638,2.081a21.857,21.857,0,0,1,1.6,2.195q1.535,2.341,3.1,4.722,1.385,2.5,2.794,5.043a151.9,151.9,0,0,1,9.066,22.508c2.615,7.931,4.991,16.154,7.971,24.2a104.086,104.086,0,0,0,11.386,22.9,23.839,23.839,0,0,0,1.852,2.573l1.945,2.5.975,1.254,1.03,1.116,2.2,2.361a53.813,53.813,0,0,0,4.532,4.285A58.517,58.517,0,0,0,419.709,168c6.69,4.88,14.141,8.481,21.823,11.759,7.674,3.311,15.6,6.456,23.241,10.8a76.564,76.564,0,0,1,21,17.165l4.272,5.552c1.309,2.049,2.678,4.073,3.922,6.157,1.123,2.145,2.365,4.218,3.388,6.423.982,2.228,2.112,4.379,2.954,6.671,3.68,9.021,6.344,18.386,9.147,27.45,2.775,9.075,5.824,17.871,9.954,25.773,1.088,1.924,2.028,3.971,3.267,5.746a60.771,60.771,0,0,0,3.636,5.358l1.947,2.531.916,1.191,1.091,1.184,2.172,2.355,1.084,1.177c.364.374.745.684,1.116,1.031l2.23,2.018a22.824,22.824,0,0,0,2.29,1.937l2.378,1.815a23.985,23.985,0,0,0,2.418,1.719,102.2,102.2,0,0,0,10.027,5.9c6.81,3.523,13.771,6.33,20.487,9.418a111.127,111.127,0,0,1,19.057,10.711A73.909,73.909,0,0,1,608.813,354.7q.787,1.032,1.564,2.047l.775,1.016.715,1.109q1.423,2.213,2.812,4.375,1.232,2.26,2.439,4.469c.831,1.453,1.443,3.027,2.156,4.508a151.035,151.035,0,0,1,6.534,17.637c3.49,11.318,6.156,21.274,9.124,29.13a114.144,114.144,0,0,0,8.114,17.464c2.337,3.687,3.631,5.626,3.631,5.626s-1.351-1.874-3.812-5.471a105.752,105.752,0,0,1-8.66-17.227c-3.172-7.8-6.1-17.747-9.822-28.872a147.329,147.329,0,0,0-6.843-17.159c-.731-1.422-1.367-2.936-2.19-4.336q-1.2-2.119-2.427-4.294-1.357-2.036-2.738-4.117l-.694-1.042-.789-1q-.793-1-1.594-2.014a70.611,70.611,0,0,0-14.943-14.038,107.758,107.758,0,0,0-18.753-10.075c-6.685-2.922-13.716-5.6-20.754-9.067A80.742,80.742,0,0,1,532.314,309.5c-.4-.369-.823-.719-1.2-1.1l-1.09-1.166-2.181-2.344-1.1-1.177c-.466-.555-.719-.913-1.091-1.38l-2.065-2.652a64.1,64.1,0,0,1-3.861-5.624c-1.313-1.872-2.314-4-3.467-6.022-4.374-8.265-7.562-17.371-10.4-26.5-2.87-9.125-5.543-18.317-9.122-26.966-.824-2.212-1.912-4.235-2.856-6.362-.986-2.1-2.17-4.039-3.244-6.072-1.165-1.924-2.413-3.742-3.611-5.627l-4.154-5.366a72.659,72.659,0,0,0-19.835-16.381c-7.323-4.228-15.106-7.383-22.833-10.772-7.727-3.355-15.435-7.122-22.434-12.286a62.317,62.317,0,0,1-5.119-4.111,59.1,59.1,0,0,1-4.766-4.569L405.7,160.65l-1.149-1.258-1.021-1.326-2.035-2.645a25.96,25.96,0,0,1-1.94-2.722,103.556,103.556,0,0,1-11.695-23.976c-2.935-8.309-5.2-16.615-7.678-24.508a148.992,148.992,0,0,0-8.53-22.152q-1.326-2.484-2.627-4.925-1.448-2.285-2.873-4.53a20.5,20.5,0,0,0-1.534-2.178q-.808-1.062-1.608-2.114-.783-1.026-1.557-2.046-.853-.938-1.694-1.867t-1.68-1.85l-.833-.917-.886-.828q-1.782-1.649-3.518-3.259-1.838-1.453-3.636-2.87c-1.186-.974-2.467-1.73-3.669-2.59a107.636,107.636,0,0,0-14.53-8.079c-9.421-4.4-17.839-7.854-24.445-11.6A84.016,84.016,0,0,1,291.971,22.18C288.931,19.278,287.344,17.681,287.344,17.681Z" transform="translate(-252.245 -17.681)" fill="#272a30"/>
        <path id="Path_31" data-name="Path 31" d="M296.509,17.681l1.29.758c.863.474,2.1,1.3,3.794,2.151A156.6,156.6,0,0,0,316.46,27.4c6.467,2.728,14.491,5.624,23.225,10.521a79.366,79.366,0,0,1,13.222,9.352c1.067,1,2.17,1.985,3.249,3.036q1.549,1.674,3.133,3.388c1.1,1.245,1.972,2.461,2.986,3.715q.734.935,1.483,1.881c.483.657.928,1.383,1.4,2.079,7.75,11.048,12.644,25.481,17.278,40.416a226.139,226.139,0,0,0,7.98,22.418,87.524,87.524,0,0,0,12.14,20.42l.912,1.175.23.291c.088.109,0,.018.06.079l.13.136.513.552,2.058,2.208c.691.721,1.367,1.518,2.077,2.178l2.146,1.916,2.153,1.926,2.32,1.749,2.327,1.754,2.443,1.564c6.525,4.2,13.632,7.371,20.9,10.458s14.723,6.17,21.888,10.386a76.635,76.635,0,0,1,19.682,16.427l4.033,5.229c1.267,1.87,2.5,3.84,3.741,5.758,1.13,1.987,2.184,4.008,3.274,6.009l2.866,6.247c3.569,8.462,6.172,17.275,8.794,25.85A194.47,194.47,0,0,0,513.95,271.2a82.64,82.64,0,0,0,13.122,20.487l2.03,2.206a21.4,21.4,0,0,0,2.053,2.066c1.416,1.236,2.738,2.568,4.2,3.724,1.492,1.12,2.947,2.291,4.448,3.357l4.583,3.006a159.383,159.383,0,0,0,18.981,9.427,200.861,200.861,0,0,1,18.341,8.818,76.1,76.1,0,0,1,15.851,11.567c.585.551,1.193,1.066,1.752,1.638.543.6,1.084,1.19,1.62,1.782,1.072,1.206,2.146,2.283,3.177,3.56l2.822,3.645c.9,1.278,1.743,2.59,2.594,3.86a100.417,100.417,0,0,1,7.919,15.623c4.144,10.318,6.6,19.791,8.906,27.435,2.281,7.656,4.191,13.625,5.766,17.559.717,2,1.418,3.457,1.819,4.477l.64,1.527-.692-1.5c-.434-1-1.186-2.424-1.97-4.4-1.692-3.873-3.866-9.744-6.314-17.347-2.5-7.568-5.193-16.945-9.528-26.953a96.588,96.588,0,0,0-8.11-14.99q-1.26-1.79-2.555-3.623-1.424-1.771-2.877-3.586c-.935-1.116-2.054-2.208-3.089-3.331q-.794-.841-1.592-1.688c-.55-.546-1.144-1.031-1.719-1.551a73.162,73.162,0,0,0-15.542-10.884,196.937,196.937,0,0,0-18.243-8.319,161.048,161.048,0,0,1-19.473-9.2q-2.395-1.508-4.817-3.029c-1.573-1.1-3.107-2.319-4.675-3.482-1.55-1.21-3.017-2.652-4.539-3.984a22.96,22.96,0,0,1-2.132-2.123l-2.04-2.191a86.468,86.468,0,0,1-13.964-21.5,198.828,198.828,0,0,1-9.212-25.227c-2.671-8.59-5.274-17.2-8.739-25.292l-2.766-5.943c-1.044-1.883-2.061-3.805-3.126-5.661-1.158-1.754-2.262-3.521-3.45-5.272l-3.924-5.052a72.771,72.771,0,0,0-18.563-15.669c-6.85-4.093-14.143-7.168-21.415-10.324s-14.567-6.45-21.357-10.879l-2.543-1.653-2.436-1.859-2.427-1.856-2.323-2.1-2.306-2.1c-.747-.712-1.388-1.481-2.086-2.215l-2.047-2.224-.51-.553-.128-.138a2.3,2.3,0,0,1-.181-.216l-.239-.308-.956-1.241a87.777,87.777,0,0,1-12.556-21.531,231.527,231.527,0,0,1-7.79-23c-2.242-7.531-4.425-14.8-7.045-21.547a92.677,92.677,0,0,0-9.194-18.327,74.773,74.773,0,0,0-24.381-23.587c-8.474-5.117-16.417-8.3-22.821-11.248A139.763,139.763,0,0,1,301.5,20.824c-1.673-.928-2.873-1.811-3.722-2.324Z" transform="translate(-240.144 -17.681)" fill="#272a30"/>
        <path id="Path_32" data-name="Path 32" d="M308.939,17.681l4.887,1.953c3.174,1.313,7.887,3.084,13.679,6.009a78.433,78.433,0,0,1,19.652,13.515c1.652,1.756,3.395,3.429,5.124,5.417q1.2,1.5,2.427,3.036.613.769,1.237,1.549c.406.539.775,1.138,1.167,1.71q1.166,1.746,2.358,3.536c.78,1.208,1.429,2.518,2.163,3.8,1.511,2.531,2.7,5.355,4.058,8.151,2.467,5.738,4.68,11.9,6.755,18.327s4.084,13.088,6.458,19.738a111.577,111.577,0,0,0,8.732,19.43,52.266,52.266,0,0,0,2.833,4.521l1.466,2.241,1.631,2.1,1.641,2.1.821,1.055.865.926,3.729,3.975a77.912,77.912,0,0,0,16.974,12.218c6.182,3.359,12.753,6.059,19.4,8.922a142.46,142.46,0,0,1,19.881,9.947,77.513,77.513,0,0,1,17.814,15.285l3.692,4.775c1.2,1.59,2.295,3.468,3.441,5.192a94.922,94.922,0,0,1,5.812,11.072,201.145,201.145,0,0,1,8.421,23.48c2.422,7.858,4.717,15.614,7.558,22.916a97.093,97.093,0,0,0,10.4,20.116A78.56,78.56,0,0,0,528.28,289.95a84.571,84.571,0,0,0,16.449,10.311c5.629,2.805,11.266,5.189,16.709,7.627a149.078,149.078,0,0,1,15.517,7.981c2.369,1.6,4.759,3.012,6.9,4.792,1.081.867,2.2,1.642,3.209,2.555q1.507,1.394,2.975,2.759c.483.461.984.891,1.443,1.372.446.5.891.99,1.33,1.483q1.319,1.469,2.6,2.9c1.685,2.049,3.068,4.06,4.543,6a100.127,100.127,0,0,1,11.463,23.24c2.476,6.845,3.975,12.408,5.086,16.158,1.077,3.765,1.652,5.773,1.652,5.773l-1.861-5.683c-1.23-3.7-2.989-9.149-5.608-15.864a97.754,97.754,0,0,0-11.864-22.41,76.337,76.337,0,0,0-22.919-20.64,146.451,146.451,0,0,0-15.389-7.487c-5.446-2.3-11.149-4.56-16.932-7.28a86.912,86.912,0,0,1-17.185-10.279,78.425,78.425,0,0,1-15.173-15.839,101.305,101.305,0,0,1-11.082-20.942c-3.021-7.524-5.4-15.4-7.817-23.215a196.017,196.017,0,0,0-8.258-22.848,90.689,90.689,0,0,0-5.518-10.445c-1.079-1.594-2-3.231-3.193-4.8l-3.571-4.609a73.44,73.44,0,0,0-16.814-14.507,138.593,138.593,0,0,0-19.341-9.757,211.246,211.246,0,0,1-19.656-9.233,81.4,81.4,0,0,1-17.791-13.153q-1.859-2.017-3.7-4.021l-.972-1.07-.861-1.118-1.71-2.232-1.694-2.228-1.517-2.376c-.989-1.6-2.061-3.117-2.894-4.812a116.444,116.444,0,0,1-8.7-20.295c-2.306-6.83-4.219-13.566-6.165-20s-4.028-12.515-6.342-18.174c-1.276-2.746-2.392-5.537-3.817-8.022-.692-1.252-1.311-2.558-2.037-3.73s-1.453-2.32-2.167-3.458c-.364-.566-.7-1.149-1.079-1.693q-.6-.805-1.2-1.6L351,45.961c-1.548-1.894-3.265-3.665-4.815-5.423a78.479,78.479,0,0,0-19-14.035c-5.685-3.093-10.3-5.17-13.433-6.624Z" transform="translate(-223.731 -17.681)" fill="#272a30"/>
        <path id="Path_33" data-name="Path 33" d="M322.161,17.681l4.147,2.431a75.62,75.62,0,0,1,11.066,8.3c1.137,1,2.2,2.234,3.4,3.431l1.81,1.872c.64.69,1.153,1.409,1.754,2.134A79.843,79.843,0,0,1,351.424,45.9a104,104,0,0,1,6.414,12.83q.734,1.765,1.485,3.578.675,1.848,1.364,3.742c.954,2.516,1.766,5.144,2.673,7.8,3.509,10.645,6.736,22.436,12.161,33.588l1,2.106,1.13,2.027c.77,1.339,1.473,2.748,2.313,4.054s1.712,2.588,2.578,3.894l.65.978.722.911,1.448,1.828,1.455,1.839.364.461a4.319,4.319,0,0,0,.341.376l.819.865q1.632,1.74,3.286,3.5a78.464,78.464,0,0,0,7.045,5.965c9.908,7.644,21.817,11.9,33.741,17.172a110.367,110.367,0,0,1,17.714,9.412,79.86,79.86,0,0,1,15.828,14,91.944,91.944,0,0,1,11.857,18.692,153.667,153.667,0,0,1,7.968,20.924c2.242,7.053,4.253,14.07,6.513,20.811a117.075,117.075,0,0,0,8.029,19.035,91.27,91.27,0,0,0,5.1,8.383q1.455,1.9,2.891,3.779l.715.944c.1.127.283.385.311.4l.4.443,1.594,1.761,1.587,1.75.791.872.819.756q1.636,1.511,3.256,3c1.093.979,2.295,1.82,3.425,2.73l1.717,1.332,1.782,1.18c9.442,6.406,19.424,10.224,28.437,14.367,2.253,1.07,4.478,2.031,6.609,3.158q1.6.813,3.167,1.61,1.535.888,3.033,1.75a82.578,82.578,0,0,1,10.862,7.577,79.716,79.716,0,0,1,14.795,16.586,92.888,92.888,0,0,1,7.038,13.083c1.343,3.195,2.058,4.9,2.058,4.9l-2.253-4.773a100.233,100.233,0,0,0-7.442-12.583,77,77,0,0,0-15.055-15.715c-6.5-5.045-14.577-9.182-23.617-13.031-9.024-3.892-19.171-7.454-29.091-13.835l-1.87-1.177-1.812-1.339c-1.2-.92-2.453-1.75-3.638-2.765l-3.552-3.139-.891-.8-.808-.852-1.62-1.712-1.627-1.719-.408-.43a6.817,6.817,0,0,1-.448-.537l-.77-.97q-1.528-1.962-3.079-3.938a94.72,94.72,0,0,1-5.446-8.745c-6.882-12.234-10.8-26.64-15.21-40.5a148.039,148.039,0,0,0-7.773-20.223,86.657,86.657,0,0,0-11.247-17.617,75.731,75.731,0,0,0-14.913-13.284,106.876,106.876,0,0,0-17.122-9.178c-11.739-5.222-23.937-9.84-34.293-17.969a81.4,81.4,0,0,1-7.46-6.491q-1.629-1.785-3.246-3.551l-.8-.887c-.155-.179-.218-.218-.45-.516l-.376-.494-1.492-1.97-1.483-1.959-.738-.976L380,121.948q-1.319-2.086-2.622-4.146c-.849-1.387-1.562-2.874-2.337-4.29l-1.132-2.141-1-2.208c-5.4-11.716-8.421-23.7-11.713-34.355-3.263-10.678-6.762-20.219-11.036-27.9a79.77,79.77,0,0,0-6.66-10.158c-.561-.73-1.1-1.538-1.652-2.16-.592-.655-1.165-1.293-1.726-1.918-1.142-1.228-2.163-2.5-3.258-3.528a84.157,84.157,0,0,0-10.667-8.8Z" transform="translate(-206.273 -17.681)" fill="#272a30"/>
        <path id="Path_34" data-name="Path 34" d="M332.014,17.681l3.332,3.126a78.018,78.018,0,0,1,8.43,10.15q1.218,1.815,2.564,3.82,1.2,2.119,2.515,4.434c.22.385.441.777.666,1.169.2.411.4.826.6,1.245l1.239,2.562c.882,1.721,1.634,3.595,2.441,5.517,3.23,7.691,6.063,16.779,9.189,26.551,1.629,4.847,3.293,9.92,5.423,14.9.977,2.545,2.218,4.965,3.395,7.478.585,1.26,1.318,2.416,1.977,3.641.7,1.2,1.306,2.477,2.114,3.6q1.149,1.735,2.316,3.492l.582.88.65.819,1.3,1.642,1.311,1.654.654.828.165.208c-.049-.05.093.1.13.137l.369.391q1.479,1.555,2.97,3.13a32.049,32.049,0,0,0,3.077,2.888c1.06.893,2.035,1.9,3.165,2.73l3.385,2.534c1.116.88,2.36,1.544,3.541,2.333,9.562,6.148,20.57,9.864,31.52,14.907a112.8,112.8,0,0,1,16.189,9,81.543,81.543,0,0,1,7.516,6.048,38.549,38.549,0,0,1,3.534,3.409l3.443,3.715a95.112,95.112,0,0,1,11.024,16.962,154.658,154.658,0,0,1,7.62,19.122c4.276,12.934,7.418,25.932,12.625,37.227a80.188,80.188,0,0,0,20.048,27.9,36.779,36.779,0,0,0,3.037,2.49c1.037.775,2.016,1.645,3.084,2.333,2.123,1.389,4.172,2.855,6.33,4.01A140.692,140.692,0,0,0,538.1,283.07c4.133,1.876,8.133,3.584,11.9,5.369,1.882.9,3.722,1.754,5.481,2.7,1.766.909,3.481,1.791,5.1,2.782,1.626.952,3.214,1.843,4.669,2.883.738.5,1.46.987,2.172,1.465l1.053.712c.332.264.664.526.989.782q1.96,1.555,3.755,2.973,1.691,1.585,3.225,3.021a77.361,77.361,0,0,1,8.6,9.962l2.647,3.942-2.81-3.761a83.834,83.834,0,0,0-8.934-9.4q-1.556-1.342-3.276-2.831-1.817-1.32-3.8-2.758c-.329-.24-.661-.483-1-.725l-1.063-.655-2.183-1.343c-1.464-.957-3.061-1.763-4.694-2.627-6.546-3.453-14.254-6.4-22.64-9.931a140.954,140.954,0,0,1-12.945-6.146c-2.23-1.121-4.381-2.573-6.6-3.949-1.116-.682-2.158-1.553-3.251-2.331a38.639,38.639,0,0,1-3.232-2.52q-1.584-1.394-3.184-2.805l-.8-.71-.724-.764-1.455-1.535-1.466-1.542-.736-.777-.181-.194a2.768,2.768,0,0,1-.23-.275l-.346-.435q-1.385-1.749-2.789-3.517a39.369,39.369,0,0,1-2.643-3.735c-.824-1.31-1.745-2.553-2.5-3.936s-1.525-2.767-2.292-4.159c-.794-1.378-1.4-2.887-2.109-4.335a158.122,158.122,0,0,1-7.056-18.432c-2.089-6.325-3.966-12.788-6.08-19.116a149.485,149.485,0,0,0-7.4-18.4,89.877,89.877,0,0,0-10.581-16.121l-3.107-3.355a35.532,35.532,0,0,0-3.321-3.23,77.783,77.783,0,0,0-7.086-5.757,109.446,109.446,0,0,0-15.582-8.745c-5.36-2.494-10.829-4.72-16.187-7.186a113.587,113.587,0,0,1-15.6-8.332c-1.225-.841-2.5-1.551-3.669-2.488l-3.522-2.708c-1.169-.895-2.253-2-3.367-2.992a36.285,36.285,0,0,1-3.156-3.121q-1.462-1.616-2.907-3.215l-.362-.4-.23-.262-.169-.223-.671-.889-1.341-1.771-1.327-1.756-.661-.876-.592-.937q-1.18-1.87-2.346-3.715c-.817-1.2-1.427-2.544-2.128-3.807-.657-1.293-1.395-2.521-1.972-3.838-1.165-2.627-2.395-5.166-3.344-7.8-2.081-5.176-3.659-10.355-5.2-15.291-3-9.9-5.485-19.009-8.409-26.738-.733-1.929-1.413-3.816-2.225-5.543q-.578-1.314-1.137-2.58-.282-.634-.552-1.256-.313-.595-.615-1.179l-2.337-4.484q-1.257-2.025-2.39-3.861l-1.112-1.785q-.606-.816-1.179-1.583-1.135-1.544-2.123-2.89a28.488,28.488,0,0,0-1.907-2.372q-.908-1.06-1.645-1.926Z" transform="translate(-193.263 -17.681)" fill="#272a30"/>
        <path id="Path_35" data-name="Path 35" d="M339.741,17.681s.9,1.239,2.576,3.567c.408.592.919,1.2,1.381,1.97s.979,1.6,1.529,2.5,1.186,1.85,1.75,2.936,1.158,2.248,1.789,3.471a153.294,153.294,0,0,1,7.59,18.614c2.562,7.378,5.068,15.857,8.344,24.751,3.313,8.841,7.534,18.172,13.883,26.216q1.19,1.5,2.4,3.012l.3.38.074.1c-.074-.083.028.028.035.031l.167.177.677.712,1.357,1.431c.917.928,1.808,1.979,2.761,2.824l2.877,2.52c.487.415.949.863,1.459,1.254l1.562,1.149c1.049.764,2.074,1.572,3.142,2.324,2.211,1.359,4.362,2.887,6.706,4.076,9.186,5.187,19.477,8.623,29.671,13.52a95.725,95.725,0,0,1,14.992,8.721,79.608,79.608,0,0,1,13.4,12.317l2.852,3.693,1.392,1.813,1.313,2.029c.861,1.358,1.773,2.691,2.585,4.074l2.288,4.216a129.234,129.234,0,0,1,7.383,17.711c4.154,12.035,7.056,24.192,11.449,35.04a86.471,86.471,0,0,0,16.943,27.8c6.778,7.459,14.693,12.469,22.174,16.377,7.53,3.87,14.711,6.825,20.956,9.855a112.625,112.625,0,0,1,15.76,8.964q1.556,1.118,2.938,2.117c.921.666,1.71,1.426,2.483,2.06q1.145.977,2.114,1.808c.647.546,1.169,1.149,1.673,1.632,1.97,1.985,3.019,3.045,3.019,3.045l-3.156-2.839c-.524-.446-1.07-1.011-1.74-1.511s-1.395-1.059-2.184-1.654-1.613-1.275-2.552-1.883-1.935-1.263-2.986-1.952a109.613,109.613,0,0,0-15.911-8.1c-6.309-2.686-13.591-5.273-21.318-9.029-7.695-3.752-15.971-8.63-23.294-16.283a86.005,86.005,0,0,1-18.18-28.564c-4.641-11.194-7.8-23.386-11.86-35.112a123.987,123.987,0,0,0-7.154-16.988l-2.179-3.986c-.763-1.282-1.594-2.479-2.385-3.724l-1.2-1.856L460,163.2l-2.736-3.527a75.749,75.749,0,0,0-12.609-11.683,91.929,91.929,0,0,0-14.382-8.448c-9.927-4.8-20.252-8.527-29.729-14.009-2.4-1.267-4.646-2.9-6.924-4.349-1.107-.808-2.184-1.658-3.26-2.49l-1.606-1.254c-.531-.428-1.03-.931-1.541-1.393l-3.028-2.809c-.991-.935-1.819-1.966-2.726-2.936l-1.327-1.47-.661-.732-.165-.183-.132-.149-.077-.1-.309-.408q-1.229-1.619-2.443-3.22c-6.448-8.612-10.6-18.408-13.769-27.488-3.181-9.125-5.369-17.724-7.646-25.175a153.784,153.784,0,0,0-6.859-18.793q-.877-1.865-1.652-3.527c-.517-1.11-1.1-2.07-1.592-3.01q-.759-1.394-1.4-2.579c-.422-.793-.9-1.439-1.283-2.057C340.576,18.98,339.741,17.681,339.741,17.681Z" transform="translate(-183.06 -17.681)" fill="#272a30"/>
        <path id="Path_36" data-name="Path 36" d="M346.3,17.681s.691,1.293,1.993,3.718a119.7,119.7,0,0,1,4.956,11c1.9,4.88,3.952,10.943,6.223,17.9,1.142,3.477,2.362,7.166,3.727,11,.68,1.92,1.432,3.855,2.16,5.856.821,1.946,1.58,3.988,2.5,5.972,3.59,7.966,8.307,16.207,14.73,23.074a59.314,59.314,0,0,0,5.114,5.078q1.326,1.168,2.664,2.346c.942.73,1.919,1.426,2.884,2.147a87.244,87.244,0,0,0,12.468,7.568c8.811,4.453,18.454,7.76,28,12.513a81.419,81.419,0,0,1,26.5,20.1l2.68,3.471,1.306,1.7c.439.564.831,1.249,1.246,1.867l2.455,3.811c.78,1.289,1.448,2.63,2.177,3.944,1.5,2.586,2.629,5.406,3.917,8.112,1.1,2.8,2.3,5.554,3.239,8.394,4.031,11.268,6.827,22.661,10.6,33.066,3.722,10.408,8.541,19.764,14.491,27.289l1.081,1.435,1.156,1.3q1.194,1.339,2.374,2.658c.8.832,1.613,1.568,2.409,2.348s1.569,1.562,2.427,2.239c1.668,1.417,3.307,2.82,5.026,4.006,1.666,1.284,3.4,2.361,5.084,3.44s3.409,1.986,5.056,2.957c1.694.865,3.332,1.749,4.959,2.549,3.249,1.612,6.37,3.055,9.314,4.4,5.892,2.687,11.024,5.107,15.155,7.356a90.957,90.957,0,0,1,9.312,5.854l3.146,2.355-3.258-2.125a106.409,106.409,0,0,0-9.518-5.218c-4.188-2.016-9.37-4.15-15.359-6.524-5.968-2.42-12.8-5.01-19.872-9.121-1.761-1.04-3.569-2.081-5.328-3.338-1.808-1.158-3.543-2.547-5.318-3.953a32.592,32.592,0,0,1-2.617-2.276c-.856-.8-1.761-1.592-2.6-2.427q-1.2-1.289-2.422-2.593l-1.267-1.357-1.163-1.465c-6.374-7.684-11.667-17.414-15.586-28.084-3.97-10.652-7.01-22.012-10.929-32.939-.928-2.77-2.1-5.39-3.158-8.086-1.244-2.569-2.327-5.27-3.761-7.7-.692-1.23-1.341-2.521-2.065-3.711l-2.258-3.471c-.39-.575-.717-1.169-1.155-1.732l-1.313-1.69-2.562-3.3a77.491,77.491,0,0,0-25.142-19.221c-9.251-4.637-18.87-8.223-27.889-12.913a85.467,85.467,0,0,1-12.839-8.114c-1-.784-1.993-1.535-2.968-2.331q-1.417-1.306-2.815-2.6a62.722,62.722,0,0,1-5.133-5.338c-6.687-7.448-11.3-16.163-14.762-24.487-3.483-8.348-5.673-16.423-7.725-23.469-2.01-7.074-3.817-13.194-5.525-18.139-1.757-4.919-3.256-8.717-4.418-11.24Z" transform="translate(-174.396 -17.681)" fill="#272a30"/>
        <path id="Path_37" data-name="Path 37" d="M352.13,17.681s.541,1.289,1.559,3.7c.979,2.435,2.4,6.035,3.973,10.72,1.606,4.668,3.4,10.41,5.655,16.873A146.833,146.833,0,0,0,372.16,69.8a85.508,85.508,0,0,0,6.722,10.549c.606.887,1.334,1.66,2,2.51l1.023,1.258.471.577.568.6c1.527,1.557,3.03,3.311,4.646,4.774a73.406,73.406,0,0,0,10.486,8.081q1.427.894,2.87,1.8l2.984,1.638c1.977,1.14,4.07,2.09,6.154,3.1,8.379,3.958,17.468,7.138,26.4,11.725a81.367,81.367,0,0,1,24.824,19.323l2.46,3.187a38.446,38.446,0,0,1,2.411,3.311,79.681,79.681,0,0,1,4.411,7.26,115.986,115.986,0,0,1,6.95,15.405c3.891,10.552,6.576,21.291,9.931,31.185,3.33,9.9,7.307,19.046,12.417,26.619,1.246,1.915,2.673,3.612,3.97,5.393l.494.659.508.583,1.088,1.232c.731.793,1.422,1.688,2.158,2.389a74.417,74.417,0,0,0,8.9,7.909,109.736,109.736,0,0,0,17.63,10.445c5.472,2.658,10.333,4.781,14.287,6.681,3.966,1.856,7.01,3.534,9.075,4.692l3.135,1.843-3.225-1.6c-2.114-1.02-5.249-2.392-9.268-4.05S539.7,255.364,534.087,253a98.077,98.077,0,0,1-18.315-9.755c-1.58-1.144-3.211-2.285-4.773-3.637-1.613-1.251-3.153-2.754-4.745-4.246-.817-.734-1.49-1.551-2.246-2.341l-1.114-1.2-.592-.646-.531-.671c-1.392-1.813-2.919-3.549-4.263-5.511-5.511-7.756-9.9-17.22-13.393-27.3-3.522-10.086-6.43-20.682-10.208-30.9a110.857,110.857,0,0,0-6.7-14.7,77.049,77.049,0,0,0-4.1-6.7,34.9,34.9,0,0,0-2.36-3.206l-2.467-3.18-2.545-2.748a33.389,33.389,0,0,0-2.671-2.743,65.709,65.709,0,0,0-5.729-4.9,84.449,84.449,0,0,0-12.444-7.918c-8.651-4.467-17.623-7.9-26.163-12.061a85.553,85.553,0,0,1-23.158-15.861c-1.666-1.6-3.072-3.329-4.587-4.951l-.555-.614c-.274-.321-.376-.478-.571-.723l-1.04-1.341c-.677-.9-1.4-1.745-2.009-2.691a89.9,89.9,0,0,1-6.648-11.207A136.126,136.126,0,0,1,361.9,49.624c-2-6.625-3.564-12.447-4.98-17.189s-2.566-8.444-3.43-10.941C352.6,19.007,352.13,17.681,352.13,17.681Z" transform="translate(-166.701 -17.681)" fill="#272a30"/>
        <path id="Path_38" data-name="Path 38" d="M357.511,17.681s.448,1.245,1.286,3.576c.812,2.344,2.021,5.781,3.46,10.187,1.469,4.394,3.237,9.737,5.59,15.663,1.216,2.938,2.518,6.057,4.116,9.182a88.9,88.9,0,0,0,5.4,9.506,73.565,73.565,0,0,0,7.005,9.143q2.074,2.169,4.221,4.406,2.228,1.945,4.52,3.953c6.365,5.131,13.839,9.066,21.8,12.589,7.947,3.573,16.489,6.59,24.821,11.135a79.286,79.286,0,0,1,23.19,18.423c1.529,2.027,3.1,3.921,4.587,6.065l2.17,3.361,1.079,1.68.954,1.745,1.887,3.488c.638,1.155,1.132,2.4,1.706,3.588.541,1.21,1.132,2.392,1.627,3.621l1.459,3.687c3.859,9.838,6.407,19.933,9.433,29.316,2.984,9.4,6.318,18.222,10.658,25.742q1.723,2.734,3.39,5.393,1.855,2.482,3.655,4.886c.517.758,1.276,1.522,1.891,2.272.65.747,1.288,1.52,1.945,2.165q.978,1.015,1.938,2.009,1.013.943,2,1.87a73.282,73.282,0,0,0,8.045,6.38c2.648,1.887,5.291,3.423,7.776,4.86,5.014,2.78,9.539,4.871,13.259,6.605,3.731,1.7,6.641,3.13,8.625,4.089l3.028,1.518-3.1-1.271c-2.037-.795-5.024-1.962-8.82-3.447-3.794-1.514-8.414-3.333-13.607-5.843a78.086,78.086,0,0,1-16.609-10.656q-1.054-.913-2.132-1.848-1.047-1.007-2.112-2.034c-.736-.675-1.376-1.4-2.051-2.125-.673-.76-1.346-1.369-2.035-2.269l-3.933-4.962q-1.8-2.72-3.661-5.521c-4.706-7.7-8.4-16.779-11.521-26.28-3.167-9.492-5.94-19.424-9.66-28.894l-1.422-3.541c-.478-1.179-1.051-2.295-1.573-3.447-.548-1.133-1.023-2.326-1.638-3.412l-1.8-3.292-.9-1.645-1-1.529-1.986-3.066c-1.408-2.027-3.056-3.986-4.569-5.985L457.5,126.14c-.833-.861-1.592-1.828-2.487-2.606l-2.634-2.39-1.318-1.2-1.392-1.07-2.789-2.13c-.919-.723-1.928-1.286-2.887-1.937-.977-.614-1.921-1.289-2.921-1.854l-3-1.682c-8.015-4.4-16.426-7.667-24.462-11.41a95.445,95.445,0,0,1-22.25-13.607q-2.4-2.219-4.722-4.375-2.092-2.313-4.116-4.556a77.341,77.341,0,0,1-7.045-9.879,102.45,102.45,0,0,1-9.022-19.614c-2.123-6.133-3.666-11.589-4.947-16.067-1.26-4.488-2.246-8.012-2.921-10.416C357.885,18.957,357.511,17.681,357.511,17.681Z" transform="translate(-159.596 -17.681)" fill="#272a30"/>
        <path id="Path_39" data-name="Path 39" d="M362.671,17.681l1.153,3.372c.768,2.189,1.893,5.4,3.325,9.488a146.076,146.076,0,0,0,5.931,14.241c1.218,2.7,2.808,5.355,4.418,8.184.845,1.383,1.805,2.715,2.729,4.13.478.694.924,1.431,1.441,2.106q.8.993,1.615,2.009t1.645,2.047l.8.992.935.972c1.26,1.293,2.527,2.654,3.84,3.958l4.121,3.586c1.443,1.149,2.986,2.221,4.5,3.359a115.681,115.681,0,0,0,20.858,10.892c7.507,3.211,15.486,6.227,23.248,10.6a77.335,77.335,0,0,1,21.526,17.451l2.225,2.883c.715.948,1.45,1.844,2.149,2.835,1.332,2.108,2.768,4.165,3.993,6.323a108.455,108.455,0,0,1,6.411,13.382c3.713,9.165,6.258,18.592,8.978,27.457a161.4,161.4,0,0,0,9.224,24.633c.965,1.795,1.868,3.611,2.845,5.327q1.559,2.5,3.072,4.91c1.091,1.535,2.214,3,3.29,4.458l.805,1.086.854.957,1.766,1.979q.874.979,1.731,1.937c.578.616,1.188,1.127,1.773,1.69,1.186,1.081,2.3,2.2,3.471,3.2a80.865,80.865,0,0,0,6.929,5.216,106.771,106.771,0,0,0,12.057,7.009c6.894,3.429,10.885,5.292,10.885,5.292l-2.931-1.116c-1.91-.73-4.717-1.789-8.251-3.3a106.17,106.17,0,0,1-12.486-6.3,80.81,80.81,0,0,1-7.319-4.879c-1.258-.941-2.467-2.075-3.747-3.15-.626-.559-1.3-1.088-1.907-1.688l-1.794-1.857q-.9-.938-1.831-1.892l-.967-1.011-.875-1.086c-1.165-1.463-2.381-2.929-3.569-4.475l-3.334-5c-1.06-1.749-2.044-3.6-3.093-5.443a151.593,151.593,0,0,1-9.989-25.02c-2.842-8.911-5.588-18.105-9.163-26.913A103.464,103.464,0,0,0,469.79,129.8c-1.16-2.014-2.464-3.846-3.685-5.79-1.364-1.839-2.945-3.8-4.251-5.511a73.384,73.384,0,0,0-20.338-16.661c-7.453-4.231-15.24-7.468-22.786-10.827a110.736,110.736,0,0,1-21.181-11.8c-1.562-1.238-3.126-2.394-4.615-3.654l-4.27-3.984c-1.29-1.383-2.5-2.785-3.717-4.141l-.9-1.013-.872-1.16q-.825-1.112-1.634-2.2t-1.6-2.151c-.513-.723-.949-1.505-1.418-2.243-.9-1.5-1.854-2.914-2.645-4.394-1.527-3.01-3.021-5.817-4.133-8.641a150.508,150.508,0,0,1-5.335-14.75c-1.276-4.172-2.174-7.487-2.791-9.743Z" transform="translate(-152.783 -17.681)" fill="#272a30"/>
        <path id="Path_40" data-name="Path 40" d="M367.807,17.681s.4,1.081,1.156,3.1c.364,1.018.842,2.261,1.432,3.7s1.23,3.113,2.037,4.936A102.238,102.238,0,0,0,378.845,42.1q1.072,1.71,2.216,3.53,1.239,1.721,2.552,3.536c.859,1.223,1.88,2.328,2.843,3.543.49.566.986,1.273,1.485,1.745.55.57,1.109,1.147,1.671,1.728s1.132,1.173,1.708,1.767l.866.9.914.788q1.834,1.577,3.734,3.217l4.109,3c1.39,1.011,2.905,1.846,4.383,2.8A155.59,155.59,0,0,0,425.112,78.1c7.031,2.962,14.456,5.9,21.65,10.119,1.789,1.072,3.548,2.248,5.332,3.377q2.565,1.937,5.149,3.883c1.627,1.465,3.274,2.911,4.887,4.406l4.627,4.975,4.026,5.231c1.279,1.918,2.529,3.9,3.787,5.847q1.646,3.049,3.288,6.085c.954,2.106,1.952,4.185,2.859,6.3,3.583,8.492,6.061,17.266,8.569,25.568a222.7,222.7,0,0,0,8,23.37c.807,1.745,1.513,3.532,2.369,5.177s1.708,3.259,2.541,4.849q1.4,2.266,2.752,4.451l.673,1.092.745,1c.494.668.986,1.328,1.469,1.979s.965,1.3,1.439,1.944c.394.59,1.009,1.193,1.5,1.78,1.04,1.149,2.012,2.39,3.033,3.392l2.97,2.99q1.542,1.347,2.989,2.615A80.837,80.837,0,0,0,530.5,216.1c1.541.955,2.956,1.723,4.179,2.409s2.272,1.26,3.133,1.691l2.627,1.365-2.71-1.12c-.889-.354-1.974-.817-3.239-1.4-1.276-.561-2.736-1.227-4.33-2.086a79.8,79.8,0,0,1-11.24-6.93q-1.545-1.2-3.184-2.466-1.58-1.411-3.246-2.9c-1.135-.981-2.1-2.141-3.193-3.248-.538-.6-1.07-1.055-1.631-1.785l-1.557-1.931-1.592-1.975-.808-1.005-.74-1.09q-1.483-2.2-3.021-4.482-1.364-2.424-2.78-4.93c-.93-1.677-1.71-3.492-2.59-5.273a198.562,198.562,0,0,1-8.688-23.589c-2.615-8.293-5.281-16.8-8.718-24.937-.879-2.018-1.842-3.988-2.761-5.995q-1.57-2.864-3.144-5.742-1.74-2.664-3.49-5.342l-4.049-5.207-4.209-4.561-4.587-4.187q-2.436-1.865-4.861-3.715c-1.7-1.086-3.367-2.221-5.077-3.263a196.117,196.117,0,0,0-21.113-10.3A141.883,141.883,0,0,1,403.906,71.84c-1.511-1.038-3.047-1.957-4.467-3.058s-2.805-2.206-4.172-3.285l-3.831-3.6-.93-.88-.835-.937q-.829-.935-1.643-1.848A73.474,73.474,0,0,1,377.581,43.1a105.981,105.981,0,0,1-5.868-13.273c-.729-1.883-1.292-3.61-1.768-5.115-.5-1.5-.889-2.778-1.19-3.825Z" transform="translate(-146.002 -17.681)" fill="#272a30"/>
        <path id="Path_41" data-name="Path 41" d="M373.113,17.681s.427.968,1.232,2.783,2.084,4.4,3.78,7.636a86.449,86.449,0,0,0,6.987,10.886c.747.974,1.5,2,2.362,2.96l1.276,1.5.325.378.081.1c-.035-.037.042.041.056.057l.176.179.715.725q1.434,1.466,2.935,3.01l.756.777.8.688,1.627,1.394a76.315,76.315,0,0,0,7.11,5.43l3.975,2.451c1.332.854,2.782,1.522,4.2,2.309,5.734,3,12.031,5.524,18.573,8.267s13.389,5.626,19.988,9.706a81,81,0,0,1,9.616,6.922c1.492,1.374,3.054,2.66,4.5,4.117l4.288,4.613,3.729,4.847c1.221,1.678,2.355,3.584,3.527,5.366a101.03,101.03,0,0,1,5.871,11.369,199.455,199.455,0,0,1,8.219,23.606c2.32,7.727,4.462,15.162,7,21.935.666,1.669,1.232,3.381,1.956,4.954q1.051,2.385,2.074,4.7a93.6,93.6,0,0,0,4.613,8.422q.6.977,1.193,1.933l.587.952.647.874q1.284,1.749,2.508,3.416c.78,1.147,1.652,2.1,2.5,3.136.831,1.035,1.687,1.909,2.506,2.791a75.354,75.354,0,0,0,9.21,8.245c2.736,2,4.936,3.51,6.465,4.465s2.355,1.459,2.355,1.459l-2.45-1.219a77.227,77.227,0,0,1-6.776-3.892,74.32,74.32,0,0,1-9.8-7.686c-.9-.848-1.842-1.71-2.712-2.665-.873-.931-1.859-1.892-2.727-3.012a69.341,69.341,0,0,1-5.386-7.109,94.407,94.407,0,0,1-5.107-8.462q-1.128-2.341-2.293-4.757c-.794-1.6-1.422-3.327-2.153-5.022-2.8-6.856-5.207-14.33-7.613-21.99a217.749,217.749,0,0,0-8.335-22.892,96.2,96.2,0,0,0-5.618-10.729c-1.1-1.638-2.086-3.315-3.274-4.938l-3.752-4.82-3.894-4.22c-1.353-1.387-2.822-2.6-4.223-3.916a77.156,77.156,0,0,0-9.1-6.644,153.236,153.236,0,0,0-19.382-9.846,202.256,202.256,0,0,1-18.619-8.994c-1.436-.867-2.894-1.607-4.253-2.544q-2.043-1.378-4.026-2.71a80.528,80.528,0,0,1-7.184-6.046,65.538,65.538,0,0,1-5.98-6.323l-.675-.777-.167-.192-.111-.133-.081-.1-.313-.415c-.413-.55-.824-1.092-1.225-1.627-.826-1.05-1.545-2.154-2.255-3.2A89.947,89.947,0,0,1,377.44,28.58c-1.559-3.37-2.6-6.131-3.295-8.005C373.47,18.688,373.113,17.681,373.113,17.681Z" transform="translate(-138.995 -17.681)" fill="#272a30"/>
        <path id="Path_42" data-name="Path 42" d="M378.8,17.681l1.388,2.37c.866,1.581,2.323,3.733,4.154,6.452a71.88,71.88,0,0,0,7.418,8.927,54.323,54.323,0,0,0,5.112,4.809q1.382,1.168,2.838,2.392,1.535,1.1,3.142,2.256a91.973,91.973,0,0,0,14.614,8.206c5.369,2.5,11.189,4.731,17.2,7.278a116.541,116.541,0,0,1,18.238,9.3l2.253,1.448,2.179,1.64a46.162,46.162,0,0,1,4.29,3.453l2.079,1.863a21.027,21.027,0,0,1,2.019,1.955l3.94,4.235,3.418,4.445a23.126,23.126,0,0,1,1.65,2.376l1.6,2.49a55.2,55.2,0,0,1,2.942,5.094l1.388,2.573,1.228,2.663a162.694,162.694,0,0,1,7.878,21.54c2.156,7.1,4.054,13.972,6.165,20.317a125.956,125.956,0,0,0,6.945,17.259q.975,1.9,1.91,3.713,1.044,1.729,2.042,3.374a60,60,0,0,0,4.047,6,58.275,58.275,0,0,0,3.943,4.932c1.255,1.505,2.531,2.667,3.624,3.84,2.3,2.169,4.128,3.89,5.46,4.91l2,1.638s-.74-.492-2.123-1.417a60.254,60.254,0,0,1-5.836-4.386,69.558,69.558,0,0,1-8.186-8.28,60.4,60.4,0,0,1-4.5-5.81c-.745-1.074-1.511-2.178-2.265-3.335q-1.037-1.812-2.125-3.706c-.36-.636-.724-1.275-1.091-1.922q-.494-1.007-1-2.038c-.659-1.38-1.385-2.759-2.026-4.213-1.253-2.929-2.529-5.974-3.666-9.18-2.344-6.376-4.49-13.223-6.718-20.215a176.1,176.1,0,0,0-7.961-20.758l-1.183-2.531-1.334-2.429a51.317,51.317,0,0,0-2.775-4.742l-1.474-2.267a20.823,20.823,0,0,0-1.578-2.247l-3.443-4.419-3.564-3.864a18.885,18.885,0,0,0-1.894-1.859l-1.952-1.773a42.53,42.53,0,0,0-4.038-3.3l-2.056-1.575-2.144-1.4a125.807,125.807,0,0,0-17.575-9.4C427.5,61.736,421.7,59.195,416.3,56.43c-2.713-1.343-5.293-2.846-7.771-4.331-1.234-.756-2.4-1.612-3.569-2.39l-1.726-1.179q-.821-.65-1.624-1.289-1.6-1.281-3.14-2.51c-.986-.891-1.928-1.808-2.845-2.691a57.485,57.485,0,0,1-4.889-5.281,75.373,75.373,0,0,1-7.024-9.68A75.27,75.27,0,0,1,380,20.189C379.217,18.553,378.8,17.681,378.8,17.681Z" transform="translate(-131.484 -17.681)" fill="#272a30"/>
        <path id="Path_43" data-name="Path 43" d="M385.143,17.681l1.508,1.894c.49.622,1.093,1.391,1.856,2.219q.564.634,1.207,1.359a17.291,17.291,0,0,0,1.4,1.477c1.026,1.018,2.163,2.145,3.4,3.372,1.258,1.2,2.7,2.3,4.181,3.573a86.952,86.952,0,0,0,10.739,7.21,147.916,147.916,0,0,0,13.621,6.454c4.922,2.1,10.207,4.054,15.621,6.489a104.235,104.235,0,0,1,16.354,8.8A82.281,82.281,0,0,1,469.949,73.9l3.144,4.091a47.571,47.571,0,0,1,2.961,4.327,91.405,91.405,0,0,1,5.216,9.208,143.662,143.662,0,0,1,7.451,19.312c2.061,6.395,3.724,12.637,5.495,18.452,1.715,5.845,3.6,11.2,5.465,16.086a112.155,112.155,0,0,0,6.107,12.688c1.086,1.76,2.03,3.479,3.033,4.949l2.831,3.986c.828,1.239,1.715,2.173,2.418,3.091s1.351,1.616,1.873,2.189c1.044,1.162,1.6,1.78,1.6,1.78l-1.749-1.583c-.575-.515-1.285-1.149-2.063-1.964a37.516,37.516,0,0,1-2.664-2.842q-1.431-1.693-3.151-3.746c-1.135-1.382-2.179-3.064-3.4-4.766-.3-.433-.6-.872-.91-1.319-.274-.472-.557-.952-.842-1.437q-.856-1.464-1.761-3.007c-.636-1.011-1.149-2.14-1.712-3.272s-1.132-2.3-1.717-3.488a169.218,169.218,0,0,1-6.228-16.064c-1.907-5.781-3.919-11.878-6-18.185a155.954,155.954,0,0,0-7.507-18.5,86.588,86.588,0,0,0-4.945-8.59,41.833,41.833,0,0,0-2.812-4.058l-3.042-3.908A78.293,78.293,0,0,0,453.029,64.57,113.426,113.426,0,0,0,437.364,55.7l-15.4-7.086a123.372,123.372,0,0,1-13.6-7.354l-2.954-2.027a30.168,30.168,0,0,1-2.768-2.025q-1.309-1.065-2.546-2.079c-.413-.338-.817-.67-1.218-1q-.571-.548-1.123-1.075c-1.448-1.444-2.887-2.695-4.044-4.025s-2.2-2.579-3.149-3.693c-.977-1.073-1.736-2.258-2.418-3.163-.7-.924-1.228-1.756-1.664-2.433Z" transform="translate(-123.111 -17.681)" fill="#272a30"/>
        <path id="Path_44" data-name="Path 44" d="M392.516,17.681,394.089,19c.515.43,1.149.961,1.891,1.584l1.2,1q.668.481,1.418,1.018,1.49,1.068,3.293,2.357l4.026,2.485c1.439.872,3.042,1.647,4.685,2.545,1.664.863,3.457,1.664,5.3,2.555,3.745,1.649,7.834,3.307,12.2,5.05s9,3.558,13.718,5.823a88.019,88.019,0,0,1,14.161,8.237q1.705,1.309,3.423,2.625c1.13.9,2.186,1.944,3.288,2.914l1.636,1.485c.527.522,1.023,1.086,1.541,1.629l3.121,3.368,2.708,3.51c.448.592.9,1.155,1.346,1.773l1.279,1.959c.833,1.315,1.736,2.591,2.5,3.932q1.114,2.028,2.223,4.041a118.253,118.253,0,0,1,6.98,16.724c1.914,5.57,3.462,11.052,4.931,16.2s2.88,9.99,4.274,14.411c.754,2.176,1.429,4.294,2.163,6.257.759,1.94,1.415,3.835,2.153,5.535s1.453,3.287,2.1,4.755c.728,1.418,1.4,2.724,2,3.9q.456.883.863,1.675c.3.5.58.97.842,1.407.527.878.975,1.623,1.337,2.23.729,1.214,1.116,1.861,1.116,1.861s-.448-.59-1.29-1.693c-.42-.557-.94-1.24-1.552-2.044-.3-.406-.633-.839-.984-1.3q-.473-.744-1-1.583c-.708-1.12-1.49-2.361-2.341-3.709-.763-1.424-1.589-2.964-2.474-4.608-.868-1.66-1.657-3.51-2.566-5.421-.877-1.927-1.654-4.028-2.546-6.186-.812-2.189-1.668-4.475-2.5-6.852q-1.2-3.583-2.476-7.4c-1.668-5.083-3.427-10.4-5.388-15.789a128.892,128.892,0,0,0-7.008-15.9q-1.065-1.9-2.135-3.807c-.729-1.254-1.552-2.385-2.323-3.591l-1.176-1.785c-.425-.588-.9-1.162-1.348-1.743l-2.731-3.486-2.8-3.054c-.48-.516-.944-1.055-1.436-1.553l-1.536-1.413c-1.033-.924-2.014-1.924-3.081-2.785q-1.615-1.264-3.223-2.521a96.123,96.123,0,0,0-13.463-8.282c-4.56-2.313-9.061-4.4-13.365-6.36q-3.223-1.508-6.263-2.927c-2.014-.987-3.947-2-5.8-2.955-1.826-1.055-3.608-1.97-5.24-3.008-1.617-1.073-3.184-2-4.587-3.03s-2.7-2.016-3.9-2.918l-3.151-2.774-1.339-1.184c-.392-.411-.757-.8-1.1-1.156-.678-.721-1.255-1.332-1.724-1.83Z" transform="translate(-113.376 -17.681)" fill="#272a30"/>
        <path id="Path_45" data-name="Path 45" d="M401.681,17.681l1.455.749c.951.478,2.334,1.239,4.13,2.049,1.768.871,3.968,1.791,6.479,2.877,2.531,1.026,5.4,2.14,8.535,3.346s6.564,2.448,10.159,3.955a110.194,110.194,0,0,1,11.208,5.2,75.6,75.6,0,0,1,11.412,7.382,79.539,79.539,0,0,1,10.486,10.065l2.29,2.929,1.114,1.442,1.079,1.584c.71,1.061,1.45,2.1,2.123,3.176q.961,1.63,1.917,3.252a97.983,97.983,0,0,1,6.253,13.476c1.763,4.506,3.163,8.99,4.406,13.24,1.276,4.244,2.336,8.282,3.351,12s1.963,7.09,2.831,10.08c.917,2.964,1.7,5.565,2.436,7.66.687,2.125,1.325,3.744,1.731,4.869s.631,1.721.631,1.721-.288-.555-.831-1.6c-.522-1.055-1.39-2.545-2.272-4.582-.947-2-2-4.484-3.153-7.374q-.832-2.183-1.759-4.635-.874-2.473-1.833-5.189c-1.237-3.613-2.58-7.527-4-11.668-1.422-4.119-3.017-8.391-4.81-12.69a108.851,108.851,0,0,0-6.27-12.681q-.915-1.522-1.838-3.053c-.636-.992-1.318-1.92-1.975-2.888l-.993-1.442-1.125-1.418-2.211-2.78a75.535,75.535,0,0,0-9.8-9.619A84.505,84.505,0,0,0,442.1,39.711c-3.641-2.116-7.256-4-10.746-5.681s-6.817-3.259-9.878-4.724q-2.3-1.129-4.393-2.162l-3.926-2.077c-2.443-1.358-4.55-2.608-6.249-3.728-1.729-1.044-2.979-2.06-3.873-2.678Z" transform="translate(-101.274 -17.681)" fill="#272a30"/>
        <path id="Path_46" data-name="Path 46" d="M414.112,17.681s1.483.421,4.061,1.228c1.283.406,2.847.907,4.625,1.54l2.838.994q1.486.587,3.119,1.238c2.188.815,4.5,1.927,6.95,3.11,1.239.546,2.436,1.328,3.706,2.009a36.6,36.6,0,0,1,3.8,2.319l3.819,2.667c1.281.928,2.478,2.044,3.722,3.108l1.861,1.621c.6.574,1.162,1.208,1.747,1.813q1.775,1.881,3.557,3.77,1.517,2,3.028,4c.5.675,1.014,1.308,1.5,2.012l1.4,2.228c.914,1.483,1.887,2.929,2.671,4.447q1.149,2.288,2.26,4.512c.777,1.459,1.351,3,1.963,4.484.575,1.5,1.239,2.916,1.7,4.381,1,2.892,1.945,5.622,2.631,8.208.367,1.282.717,2.512,1.049,3.682.3,1.18.578,2.3.84,3.353.534,2.1.961,3.947,1.3,5.467.684,3.042,1.037,4.794,1.037,4.794s-.677-1.612-1.805-4.465c-.555-1.426-1.23-3.158-2.007-5.144-.752-2-1.643-4.218-2.6-6.638-.923-2.444-2.091-4.976-3.221-7.7-.543-1.382-1.274-2.68-1.924-4.069-.7-1.352-1.271-2.837-2.084-4.172l-2.32-4.17c-.369-.73-.854-1.328-1.276-2s-.861-1.334-1.295-2l-1.3-2.022c-.469-.666-1.01-1.311-1.513-1.97l-3.079-3.945q-1.587-1.726-3.172-3.445c-.543-.579-1.065-1.192-1.624-1.743l-1.736-1.56c-1.174-1.009-2.265-2.127-3.437-3.082l-3.534-2.741c-1.13-.955-2.385-1.636-3.529-2.464-1.177-.765-2.276-1.631-3.446-2.269-2.311-1.335-4.453-2.719-6.523-3.8-2.051-1.131-3.931-2.188-5.622-3.071l-4.358-2.368C415.479,18.481,414.112,17.681,414.112,17.681Z" transform="translate(-84.86 -17.681)" fill="#272a30"/>
        <path id="Path_47" data-name="Path 47" d="M427.334,17.681s.773.242,2.081.753c.654.26,1.455.561,2.348.959.448.2.93.387,1.429.629.494.262,1,.568,1.538.874,1.077.612,2.248,1.284,3.464,2.06s2.39,1.752,3.638,2.734l1.886,1.527c.634.522,1.2,1.16,1.8,1.76l1.794,1.85,1.856,1.977c1.037,1.369,2.079,2.732,3.077,4.106.5.7,1.012,1.326,1.462,2.084s.884,1.516,1.316,2.256c.844,1.492,1.68,2.927,2.346,4.344.65,1.426,1.216,2.8,1.733,4.067.255.631.5,1.238.738,1.813.207.592.369,1.173.541,1.708.341,1.066.6,2.016.819,2.793.432,1.551.631,2.455.631,2.455s-.524-.721-1.36-2.014c-.415-.647-.926-1.424-1.469-2.337s-1.2-1.907-1.919-2.979-1.492-2.228-2.258-3.482c-.8-1.221-1.759-2.366-2.636-3.658-.441-.636-.893-1.284-1.348-1.94s-1.037-1.28-1.548-1.944c-1.063-1.3-2.112-2.66-3.165-4.01l-1.6-1.725q-.818-.916-1.629-1.822c-.55-.588-1.049-1.243-1.61-1.793s-1.118-1.092-1.669-1.625c-1.1-1.048-2.1-2.2-3.132-3.145-1.053-.9-2.026-1.808-2.928-2.652s-1.738-1.643-2.534-2.276-1.446-1.254-2-1.743C427.94,18.3,427.334,17.681,427.334,17.681Z" transform="translate(-67.402 -17.681)" fill="#272a30"/>
        <path id="Path_48" data-name="Path 48" d="M437.186,17.681a5.709,5.709,0,0,1,.805.168,12.423,12.423,0,0,1,1.933.7,10.185,10.185,0,0,1,2.425,1.522,22.822,22.822,0,0,1,2.46,2.35c.434.561.722.928,1.056,1.426.325.463.62.946.9,1.42a14.872,14.872,0,0,1,1.311,2.888,17.618,17.618,0,0,1,.617,2.322,7.666,7.666,0,0,1,.137.948,6.675,6.675,0,0,1-.77-.341,13.8,13.8,0,0,1-1.773-1.07c-.336-.243-.684-.516-1.037-.819s-.761-.622-1.139-.979-.775-.732-1.146-1.145c-.36-.373-.78-.893-1.054-1.219a21.1,21.1,0,0,1-1.951-2.553c-.552-.9-1.111-1.784-1.545-2.6a17.643,17.643,0,0,1-.938-2.119A8.664,8.664,0,0,1,437.186,17.681Z" transform="translate(-54.393 -17.681)" fill="#272a30"/>
      </g>
    </g>
  </g>
</svg>
