<svg xmlns="http://www.w3.org/2000/svg" width="55.483" height="55.485" viewBox="0 0 55.483 55.485">
  <g id="Group_282" data-name="Group 282" transform="translate(-132.998 -130.253)">
    <path id="Path_421" data-name="Path 421" d="M188.481,185.738H133V130.253h55.483Zm-51.592-3.891h47.7v-47.7h-47.7Z" fill="#fff"/>
    <path id="Path_422" data-name="Path 422" d="M137.726,141.664H143.3l3.179,8.245,3.21-8.245h5.576l-6.185,15.547h-5.24Z" transform="translate(4.471 10.79)" fill="#fff"/>
    <path id="Path_423" data-name="Path 423" d="M148.255,138.363h5.407v7.4a5.225,5.225,0,0,1,3.582-1.218,6.726,6.726,0,0,1,5.171,2.247,9.09,9.09,0,0,1,0,11.526,6.679,6.679,0,0,1-5.171,2.282,5.393,5.393,0,0,1-3.582-1.218v.948h-5.407Zm6.183,16.324a2.518,2.518,0,0,0,1.994.846,2.625,2.625,0,0,0,2.027-.846,3.015,3.015,0,0,0,.778-2.129,2.953,2.953,0,0,0-.778-2.111,2.651,2.651,0,0,0-2.027-.829,2.6,2.6,0,0,0-2.012.829,3.311,3.311,0,0,0,.018,4.24Z" transform="translate(14.427 7.669)" fill="#fff"/>
  </g>
</svg>
