<svg xmlns="http://www.w3.org/2000/svg" xmlns:xlink="http://www.w3.org/1999/xlink" width="382" height="201" viewBox="0 0 382 201">
  <defs>
    <clipPath id="clip-path">
      <rect id="Rectangle_183" data-name="Rectangle 183" width="201" height="382" transform="translate(1167.639 1477.308)" fill="#fff" stroke="#707070" stroke-width="1"/>
    </clipPath>
  </defs>
  <g id="Mask_Group_34" data-name="Mask Group 34" transform="translate(-1477.308 1368.639) rotate(-90)" clip-path="url(#clip-path)">
    <g id="Group_380" data-name="Group 380" transform="translate(1146.09 1451.267)">
      <g id="Group_379" data-name="Group 379" transform="translate(0)">
        <path id="Path_1249" data-name="Path 1249" d="M272.218,263.6a6.143,6.143,0,0,1,.8.108,12.484,12.484,0,0,1,1.915.534,9.77,9.77,0,0,1,2.368,1.221,14.839,14.839,0,0,1,1.211.905c.423.34.743.636,1.212,1.077a18.2,18.2,0,0,1,1.82,2.331,11.378,11.378,0,0,1,1.222,2.439,12.228,12.228,0,0,1,.543,1.982,5.546,5.546,0,0,1,.1.816,6.57,6.57,0,0,1-.778-.242,13,13,0,0,1-1.782-.811,21.168,21.168,0,0,1-2.16-1.428,17.912,17.912,0,0,1-2.185-1.981c-.25-.254-.651-.653-.936-1a12.62,12.62,0,0,1-.871-1.1c-.516-.756-1.029-1.519-1.422-2.223a13.045,13.045,0,0,1-.826-1.84A6.58,6.58,0,0,1,272.218,263.6Z" transform="translate(-272.218 158.851)" fill="#272a30"/>
        <path id="Path_1250" data-name="Path 1250" d="M272.218,254.18s.616.161,1.642.52c.513.184,1.141.4,1.835.684a16.265,16.265,0,0,1,2.3,1.063c.833.433,1.742.907,2.681,1.453s1.842,1.22,2.8,1.9a26.3,26.3,0,0,1,2.841,2.247c.929.816,1.842,1.678,2.763,2.537.921,1.02,1.667,1.845,2.468,2.791a26.925,26.925,0,0,1,2.2,2.889c.676.991,1.349,1.939,1.887,2.884s.991,1.869,1.412,2.716a17.157,17.157,0,0,1,1.049,2.36c.288.715.5,1.361.676,1.884.355,1.053.511,1.673.511,1.673s-.491-.424-1.259-1.2c-.383-.388-.856-.856-1.349-1.415s-1.091-1.158-1.72-1.821-1.307-1.374-1.987-2.149-1.462-1.5-2.2-2.321c-.37-.405-.743-.819-1.124-1.237s-.834-.835-1.239-1.269c-.826-.828-1.73-1.807-2.458-2.589-.851-.825-1.7-1.646-2.513-2.489s-1.644-1.635-2.451-2.407c-.8-.787-1.569-1.546-2.3-2.269-.756-.684-1.447-1.373-2.09-2.013s-1.237-1.247-1.8-1.759-1.019-.993-1.4-1.381C272.628,254.673,272.218,254.18,272.218,254.18Z" transform="translate(-272.218 152.087)" fill="#272a30"/>
        <path id="Path_1251" data-name="Path 1251" d="M272.218,245.726s.929.23,2.513.716c.8.232,1.752.558,2.836.981a39.069,39.069,0,0,1,3.609,1.507c1.322.565,2.7,1.3,4.148,2.092,1.429.821,2.944,1.7,4.431,2.738a52.074,52.074,0,0,1,4.456,3.391c1.509,1.177,2.854,2.589,4.278,3.911,1.357,1.515,2.6,2.725,3.817,4.334a52.759,52.759,0,0,1,3.352,4.568c1.011,1.517,1.88,3.059,2.683,4.52.781,1.477,1.5,2.879,2.053,4.226.6,1.321,1.091,2.56,1.472,3.678.413,1.1.736,2.079.964,2.9.478,1.623.7,2.566.7,2.566s-.576-.782-1.5-2.177l-1.672-2.491c-.631-.969-1.384-2.027-2.178-3.187-.778-1.175-1.72-2.372-2.626-3.688-.954-1.278-1.987-2.606-3.061-3.961q-.819-1-1.662-2.039c-.563-.684-1.169-1.319-1.742-2-1.094-1.319-2.556-2.759-3.737-4.049-1.327-1.263-2.578-2.608-3.942-3.79-.678-.594-1.312-1.228-1.987-1.8s-1.342-1.137-2-1.7c-1.329-1.094-2.628-2.151-3.885-3.123-1.292-.922-2.463-1.884-3.615-2.676-1.141-.809-2.178-1.577-3.121-2.216l-2.445-1.708C272.981,246.31,272.218,245.726,272.218,245.726Z" transform="translate(-272.218 146.018)" fill="#272a30"/>
        <path id="Path_1252" data-name="Path 1252" d="M272.218,237.844s1.237.285,3.369.871c1.066.28,2.353.672,3.82,1.172l2.343.783q1.213.477,2.548,1c1.795.665,3.667,1.565,5.654,2.522,1,.452,1.97,1.055,3,1.6a34.586,34.586,0,0,1,3.061,1.817q1.517,1.008,3.079,2.044c1.034.7,2.01,1.519,3.009,2.316l1.5,1.2c.491.417.951.873,1.432,1.309q1.453,1.353,2.916,2.714l2.541,2.819c.423.474.851.919,1.254,1.422l1.2,1.56c.783,1.039,1.6,2.055,2.3,3.111l2,3.14c.678,1.015,1.232,2.084,1.785,3.121.531,1.046,1.121,2.032,1.564,3.056.939,2.025,1.825,3.934,2.473,5.765q.514,1.361.981,2.6.405,1.26.766,2.384c.486,1.493.871,2.8,1.149,3.9.576,2.18.854,3.437.854,3.437s-.641-1.118-1.675-3.1c-.521-.984-1.159-2.178-1.887-3.549-.706-1.378-1.564-2.893-2.483-4.547-.884-1.673-2-3.384-3.069-5.246-.523-.938-1.186-1.819-1.795-2.764-.646-.917-1.192-1.933-1.91-2.845L311.91,268.6c-.718-.945-1.5-1.819-2.243-2.761l-1.129-1.393c-.4-.46-.849-.921-1.267-1.386l-2.571-2.793-2.586-2.5c-.443-.421-.869-.861-1.324-1.264l-1.394-1.165c-.941-.754-1.817-1.58-2.748-2.312l-2.8-2.122c-.9-.732-1.887-1.293-2.788-1.951-.926-.618-1.79-1.293-2.713-1.829-1.827-1.089-3.5-2.23-5.144-3.128-1.622-.935-3.106-1.812-4.456-2.53s-2.5-1.414-3.484-1.922C273.312,238.493,272.218,237.844,272.218,237.844Z" transform="translate(-272.218 140.36)" fill="#272a30"/>
        <path id="Path_1253" data-name="Path 1253" d="M272.218,230.213s1.534.368,4.2,1.081c1.329.352,2.941.8,4.778,1.374l2.934.895,3.216,1.127c2.258.739,4.636,1.756,7.159,2.833,1.276.5,2.508,1.208,3.815,1.828a40.141,40.141,0,0,1,3.9,2.1q1.934,1.188,3.927,2.41c1.317.837,2.551,1.838,3.827,2.793l1.915,1.458c.618.512,1.2,1.079,1.8,1.618q1.795,1.641,3.6,3.293,1.607,1.819,3.206,3.637c.516.6,1.049,1.163,1.549,1.792l1.454,1.977c.951,1.318,1.96,2.6,2.778,3.949q1.2,2.031,2.365,4a41.808,41.808,0,0,1,2.065,3.982c.608,1.331,1.3,2.591,1.792,3.891,1.054,2.572,2.055,5,2.778,7.3q.578,1.714,1.1,3.279l.876,2.989c.558,1.872,1,3.518,1.347,4.875.7,2.718,1.056,4.283,1.056,4.283s-.708-1.436-1.885-3.973c-.581-1.268-1.292-2.805-2.1-4.569-.786-1.774-1.732-3.743-2.746-5.887-.971-2.166-2.21-4.406-3.4-6.821-.576-1.223-1.344-2.369-2.027-3.6-.738-1.2-1.344-2.512-2.193-3.692l-2.433-3.693c-.849-1.22-1.8-2.34-2.678-3.551l-1.349-1.793c-.491-.591-1.049-1.166-1.569-1.752l-3.116-3.436-3.339-3.154c-.561-.519-1.1-1.065-1.675-1.56l-1.782-1.4c-1.2-.907-2.328-1.91-3.529-2.773q-1.84-1.257-3.622-2.481c-1.162-.864-2.446-1.486-3.62-2.238-1.206-.7-2.333-1.482-3.532-2.068-2.37-1.216-4.563-2.482-6.691-3.47-2.1-1.034-4.033-2-5.772-2.8l-4.483-2.146C273.627,230.936,272.218,230.213,272.218,230.213Z" transform="translate(-272.218 134.882)" fill="#272a30"/>
        <path id="Path_1254" data-name="Path 1254" d="M272.218,222.546s1.815.529,4.986,1.457c3.159.947,7.695,2.213,13.091,3.989,2.693.9,5.624,1.871,8.658,3.123a86.723,86.723,0,0,1,9.419,4.324,73.74,73.74,0,0,1,9.5,5.915,80.507,80.507,0,0,1,8.818,7.589c1.367,1.531,2.6,2.735,3.87,4.35.623.768,1.264,1.525,1.862,2.3l1.715,2.341a74.914,74.914,0,0,1,5.8,9.69c.864,1.613,1.589,3.252,2.318,4.849.658,1.625,1.354,3.192,1.925,4.755,1.229,3.094,2.183,6.081,3.064,8.83,1.742,5.5,2.981,10.127,3.907,13.351.909,3.233,1.427,5.083,1.427,5.083l-.6-1.242c-.38-.813-.984-1.989-1.655-3.527-1.392-3.054-3.249-7.481-5.464-12.751-1.134-2.621-2.345-5.464-3.717-8.4s-2.914-5.983-4.628-9.034a90.414,90.414,0,0,0-5.827-9.015q-.819-1.09-1.647-2.188c-.566-.711-1.156-1.385-1.735-2.084-1.076-1.369-2.578-2.81-3.747-4.109a76.615,76.615,0,0,0-8.218-7.272,86.5,86.5,0,0,0-8.841-5.944c-2.994-1.749-5.967-3.334-8.858-4.722s-5.67-2.635-8.243-3.79c-5.169-2.257-9.507-4.149-12.506-5.569-1.512-.682-2.661-1.3-3.459-1.685Z" transform="translate(-272.218 129.379)" fill="#272a30"/>
        <path id="Path_1255" data-name="Path 1255" d="M272.218,214.55l1.487.562c.971.362,2.393.917,4.21,1.548,1.8.665,4.033,1.383,6.568,2.245l8.586,2.759c3.149,1.024,6.576,2.1,10.155,3.453a109.731,109.731,0,0,1,11.146,4.667,79.984,79.984,0,0,1,11.307,6.557q1.359.992,2.731,1.988c.891.689,1.75,1.434,2.631,2.152l1.317,1.089,1.249,1.17,2.543,2.408,2.24,2.467,1.121,1.239,1.084,1.361c.716.909,1.459,1.8,2.14,2.719q.98,1.4,1.947,2.783a81.653,81.653,0,0,1,6.436,11.528,114.006,114.006,0,0,1,4.581,11.367c1.319,3.65,2.383,7.143,3.382,10.355s1.9,6.148,2.706,8.754c.846,2.585,1.549,4.86,2.2,6.7.618,1.859,1.159,3.3,1.514,4.288s.548,1.519.548,1.519-.265-.491-.766-1.414-1.282-2.261-2.11-4.042c-.879-1.761-1.88-3.925-2.974-6.438s-2.28-5.361-3.512-8.484c-1.264-3.108-2.6-6.488-4.073-10s-3.129-7.163-4.991-10.828a93.618,93.618,0,0,0-6.453-10.805q-.931-1.3-1.87-2.608c-.646-.847-1.332-1.644-1.993-2.472l-1-1.235-1.126-1.221-2.268-2.443a77.436,77.436,0,0,0-9.682-8.316,89.861,89.861,0,0,0-10.6-6.583c-3.595-1.9-7.164-3.6-10.618-5.093s-6.763-2.865-9.81-4.15c-3.066-1.256-5.857-2.479-8.323-3.58s-4.588-2.139-6.32-3.032c-1.75-.849-3.044-1.651-3.96-2.147Z" transform="translate(-272.218 123.639)" fill="#272a30"/>
        <path id="Path_1256" data-name="Path 1256" d="M272.218,205.892l1.63.842c1.069.531,2.6,1.409,4.633,2.3,1.011.454,2.108.993,3.339,1.51s2.566,1.058,3.99,1.647c2.879,1.1,6.148,2.281,9.74,3.52,3.6,1.218,7.519,2.477,11.662,3.937,4.14,1.433,8.523,3.015,12.939,5.009a88.039,88.039,0,0,1,13.221,7.141q1.592,1.105,3.194,2.216c1.046.77,2.043,1.622,3.069,2.432l1.534,1.235,1.444,1.34,2.944,2.764,2.573,2.853,1.282,1.436,1.229,1.584c.809,1.06,1.662,2.1,2.421,3.173q1.092,1.634,2.173,3.254a90.319,90.319,0,0,1,7.006,13.483c1.955,4.5,3.512,8.971,4.914,13.195,1.432,4.221,2.671,8.218,3.862,11.893,1.212,3.661,2.365,6.993,3.449,9.929.576,1.453,1.116,2.815,1.614,4.071s1.039,2.377,1.484,3.412c.876,2.075,1.725,3.623,2.248,4.716l.826,1.663s-.361-.534-1.034-1.536c-.646-1.019-1.735-2.434-2.821-4.423-.556-.984-1.214-2.058-1.86-3.262-.621-1.218-1.292-2.537-2.01-3.946q-1-2.152-2.118-4.571-1.029-2.451-2.165-5.143c-1.462-3.6-2.984-7.517-4.578-11.63s-3.374-8.4-5.364-12.717a100.624,100.624,0,0,0-7.024-12.727q-1.044-1.525-2.088-3.059c-.718-.995-1.5-1.919-2.248-2.889l-1.134-1.44-1.289-1.416-2.6-2.833-2.633-2.506-1.349-1.28-1.434-1.177c-.961-.773-1.89-1.589-2.874-2.328q-1.506-1.064-3-2.125a96.076,96.076,0,0,0-12.483-7.169c-4.233-2.029-8.43-3.839-12.471-5.471s-7.88-3.18-11.407-4.669c-1.757-.763-3.452-1.484-5.041-2.207l-4.486-2.156c-1.379-.734-2.673-1.417-3.87-2.049-1.181-.658-2.24-1.331-3.2-1.9-1.957-1.106-3.329-2.211-4.333-2.87Z" transform="translate(-272.218 117.424)" fill="#272a30"/>
        <path id="Path_1257" data-name="Path 1257" d="M272.218,196.142s.593.431,1.7,1.239c.556.405,1.237.905,2.04,1.491l1.294.945,1.529.957c1.074.668,2.263,1.41,3.554,2.218q2.016,1.082,4.353,2.336c1.554.825,3.289,1.55,5.066,2.393,1.8.813,3.737,1.562,5.73,2.4,4.05,1.548,8.478,3.1,13.206,4.729s9.747,3.326,14.851,5.437a99.84,99.84,0,0,1,15.337,7.687,83.258,83.258,0,0,1,14.02,11.159l3,3.352c.483.553.979,1.079,1.454,1.656l1.384,1.831c.9,1.23,1.88,2.424,2.7,3.678l2.408,3.779a103.1,103.1,0,0,1,7.539,15.637c2.07,5.207,3.742,10.333,5.334,15.146s3.121,9.333,4.636,13.464c.824,2.03,1.557,4.011,2.355,5.841.829,1.814,1.539,3.582,2.345,5.167s1.582,3.066,2.29,4.437c.793,1.323,1.522,2.539,2.183,3.637q.5.827.939,1.561c.328.466.633.905.919,1.312l1.457,2.075,1.216,1.735-1.4-1.579c-.461-.515-1.024-1.151-1.69-1.9q-.5-.564-1.071-1.214-.514-.693-1.089-1.472c-.771-1.044-1.624-2.2-2.548-3.46-.831-1.328-1.732-2.764-2.691-4.3s-1.8-3.274-2.791-5.057c-.956-1.8-1.8-3.765-2.768-5.779-.881-2.046-1.81-4.181-2.716-6.4q-1.3-3.35-2.683-6.914c-1.807-4.752-3.707-9.725-5.825-14.763a112.644,112.644,0,0,0-7.577-14.87q-1.149-1.773-2.308-3.559c-.786-1.173-1.68-2.23-2.516-3.357l-1.269-1.67c-.458-.551-.976-1.089-1.462-1.63l-2.889-3.19a79.059,79.059,0,0,0-13.146-10.651,108.408,108.408,0,0,0-14.581-7.729c-4.944-2.159-9.815-4.1-14.478-5.939-2.325-.916-4.6-1.831-6.778-2.738-2.18-.924-4.273-1.869-6.28-2.769-1.975-.989-3.9-1.847-5.667-2.822-1.75-1.008-3.444-1.881-4.961-2.845s-2.914-1.895-4.215-2.742l-3.4-2.6q-.766-.59-1.449-1.113c-.418-.387-.816-.749-1.182-1.086l-1.86-1.72Z" transform="translate(-272.218 110.425)" fill="#272a30"/>
        <path id="Path_1258" data-name="Path 1258" d="M272.218,184.661s.566.625,1.625,1.8c1.016,1.2,2.7,2.829,4.763,4.839a90.828,90.828,0,0,0,8.213,6.595,56.9,56.9,0,0,0,5.384,3.477c1.89,1.24,4.065,2.223,6.24,3.4a155.516,155.516,0,0,0,14.786,6.145c5.347,1.979,11.106,3.82,17,6.1a118.614,118.614,0,0,1,17.815,8.234c1.467.828,2.856,1.821,4.3,2.73a43.8,43.8,0,0,1,4.16,3.008,45.578,45.578,0,0,1,3.995,3.279l3.877,3.6a86.837,86.837,0,0,1,12.23,16.507,122.3,122.3,0,0,1,8.08,18.163c2.233,6.011,4.042,11.879,5.982,17.335a162.293,162.293,0,0,0,6.025,15.077c1.151,2.216,2.115,4.437,3.332,6.361a58.8,58.8,0,0,0,3.417,5.5,92.542,92.542,0,0,0,6.446,8.35c2,2.128,3.587,3.843,4.758,4.874,1.151,1.079,1.762,1.654,1.762,1.654s-.668-.51-1.92-1.469a66.785,66.785,0,0,1-5.226-4.425,79.4,79.4,0,0,1-14.831-19.657c-.656-1.108-1.174-2.312-1.785-3.5-.576-1.2-1.242-2.4-1.77-3.678-1.116-2.529-2.25-5.159-3.3-7.89-2.173-5.44-4.235-11.238-6.533-17.1a133.094,133.094,0,0,0-8.138-17.41,82.159,82.159,0,0,0-11.8-15.649l-3.494-3.274a41.32,41.32,0,0,0-3.745-3.12,40.5,40.5,0,0,0-3.907-2.876c-1.362-.871-2.666-1.823-4.06-2.625a127.547,127.547,0,0,0-17.071-8.3c-5.747-2.34-11.429-4.451-16.768-6.662-2.678-1.072-5.257-2.221-7.735-3.365-1.252-.539-2.428-1.218-3.609-1.8-1.167-.624-2.343-1.151-3.432-1.821a78.321,78.321,0,0,1-19.267-15.1,66.784,66.784,0,0,1-4.355-5.342Z" transform="translate(-272.218 102.184)" fill="#272a30"/>
        <path id="Path_1259" data-name="Path 1259" d="M272.218,170.022s.491.857,1.409,2.467l1.692,2.963c.733,1.115,1.577,2.4,2.523,3.834.481.708.936,1.488,1.512,2.238s1.2,1.524,1.832,2.335,1.3,1.649,1.987,2.523c.731.833,1.547,1.646,2.358,2.511l2.521,2.656c.866.8,1.917,1.685,2.906,2.561a71.633,71.633,0,0,0,6.521,5.143,98.735,98.735,0,0,0,16.315,8.922c6.093,2.618,12.738,4.88,19.629,7.385a154.407,154.407,0,0,1,21.011,8.931A81.415,81.415,0,0,1,373.7,238.71l3.992,4.477c1.3,1.5,2.483,3.25,3.72,4.861a85.82,85.82,0,0,1,6.233,10.309,160.069,160.069,0,0,1,8.761,21.423c2.456,7.029,4.678,13.8,7.244,20.014a101.876,101.876,0,0,0,8.753,16.644,72.512,72.512,0,0,0,5.044,6.645c.843,1,1.7,2.051,2.476,2.931l2.636,2.6c.858.835,1.667,1.677,2.486,2.426q1.277,1.041,2.461,2.01c.794.648,1.554,1.271,2.278,1.862s1.5,1.053,2.2,1.546c1.409.965,2.668,1.824,3.762,2.571l2.9,1.725,2.418,1.436-2.531-1.22-3.049-1.47c-1.174-.625-2.483-1.429-3.967-2.3-.731-.452-1.539-.873-2.323-1.417s-1.594-1.142-2.443-1.749-1.74-1.251-2.661-1.909c-.876-.706-1.727-1.486-2.638-2.262l-2.794-2.427c-.979-.965-1.832-1.9-2.793-2.893a67.222,67.222,0,0,1-5.524-6.591,94.715,94.715,0,0,1-9.712-16.788c-2.839-6.275-5.342-13.064-7.885-20.015a174.767,174.767,0,0,0-8.873-20.743,81.466,81.466,0,0,0-5.955-9.714c-1.166-1.486-2.18-3.015-3.464-4.484l-3.88-4.308a77.19,77.19,0,0,0-18.148-13.562,166.911,166.911,0,0,0-20.338-9.05c-6.818-2.594-13.474-5.152-19.629-8.041a92.432,92.432,0,0,1-16.47-9.907,66.508,66.508,0,0,1-6.461-5.633c-.961-.967-1.862-1.826-2.8-2.812q-1.243-1.484-2.413-2.883c-.771-.938-1.547-1.819-2.238-2.712q-.961-1.4-1.86-2.7t-1.707-2.481c-.533-.8-.949-1.623-1.392-2.372-.859-1.515-1.647-2.85-2.26-4.049-.566-1.22-1.046-2.257-1.439-3.1C272.636,170.919,272.218,170.022,272.218,170.022Z" transform="translate(-272.218 91.675)" fill="#272a30"/>
        <path id="Path_1260" data-name="Path 1260" d="M272.218,150.376s1.762,4.43,4.851,12.183a140.448,140.448,0,0,0,6.3,13.569,82.843,82.843,0,0,0,10.833,15.787q1.78,1.922,3.63,3.92,2.035,1.83,4.145,3.724a77.612,77.612,0,0,0,9.339,6.744c6.753,4.193,14.513,7.457,22.721,10.5s16.954,5.872,25.462,9.982a82.942,82.942,0,0,1,23.6,16.44l2.436,2.725c.781.9,1.592,1.733,2.35,2.688,1.452,1.994,3.044,3.932,4.355,5.983a94.7,94.7,0,0,1,6.984,12.672c4.038,8.673,6.793,17.594,9.79,25.962s6.19,16.278,10.3,23.167a78.674,78.674,0,0,0,6.643,9.553q1.821,2.113,3.577,4.149l3.915,3.769a40.868,40.868,0,0,0,3.9,3.3,46.3,46.3,0,0,0,3.88,2.925q1.982,1.337,3.862,2.6c1.289.787,2.581,1.484,3.812,2.2a136.7,136.7,0,0,0,13.3,6.428l11.95,4.947-3.209-1.056c-2.1-.689-5.169-1.687-9.049-3.07a136.977,136.977,0,0,1-13.752-5.753,76.087,76.087,0,0,1-16.41-10.6l-4.055-3.611q-1.949-2.087-3.975-4.252a78.41,78.41,0,0,1-7.2-9.744,125.429,125.429,0,0,1-11.146-23.565c-3.134-8.426-6.108-17.132-10-25.475a90.237,90.237,0,0,0-6.718-12.047c-1.246-1.929-2.693-3.644-4.022-5.485-1.479-1.745-3.221-3.6-4.651-5.217a78.554,78.554,0,0,0-22.305-15.694c-8.18-3.975-16.721-7-24.984-10.2a121.163,121.163,0,0,1-23.109-11.369,76.473,76.473,0,0,1-9.584-7.375l-4.1-3.975q-1.84-2.144-3.607-4.205a78.088,78.088,0,0,1-10.375-16.708,142.4,142.4,0,0,1-5.645-14.021c-1.357-3.956-2.335-7.093-3.014-9.227S272.218,150.376,272.218,150.376Z" transform="translate(-272.218 77.572)" fill="#272a30"/>
        <path id="Path_1261" data-name="Path 1261" d="M272.218,131.906s.663,1.209,1.91,3.472c1.207,2.285,2.919,5.693,4.781,10.161,1.895,4.458,3.927,9.979,6.345,16.249a157.756,157.756,0,0,0,9.246,20.4,75.648,75.648,0,0,0,16.288,20.252,61.127,61.127,0,0,0,5.437,4.356,30.38,30.38,0,0,0,2.921,1.993l3.026,1.931c1.041.608,2.123,1.16,3.189,1.747,1.079.565,2.12,1.209,3.254,1.7,2.235,1.048,4.463,2.152,6.813,3.078,9.277,3.936,19.4,6.95,29.387,11.307a87.4,87.4,0,0,1,27.762,18.415l2.741,3.07A34.449,34.449,0,0,1,398,253.247l2.573,3.446c.873,1.142,1.534,2.374,2.31,3.554a100.723,100.723,0,0,1,7.614,14.888c4.28,10.175,7.229,20.5,11.091,29.963.909,2.4,1.99,4.669,3.019,6.947.486,1.156,1.111,2.221,1.67,3.317.578,1.087,1.119,2.192,1.715,3.252a79.113,79.113,0,0,0,8.135,11.628q1.141,1.3,2.263,2.587l.558.641a8.009,8.009,0,0,0,.566.572l1.234,1.2c.826.783,1.625,1.625,2.453,2.34l2.473,2.1c.793.718,1.67,1.347,2.526,1.982s1.692,1.28,2.553,1.878c1.77,1.115,3.437,2.331,5.217,3.29a152.437,152.437,0,0,0,20,9.429c6.15,2.467,11.564,4.54,15.935,6.471,4.385,1.9,7.72,3.645,9.962,4.875l3.407,1.95-3.514-1.73c-2.3-1.1-5.745-2.565-10.175-4.277s-9.91-3.527-16.185-5.708a135.869,135.869,0,0,1-20.666-8.739c-1.855-.924-3.622-2.116-5.489-3.211-.909-.589-1.8-1.232-2.708-1.855s-1.835-1.251-2.713-1.988q-1.333-1.072-2.691-2.158c-.891-.735-1.674-1.529-2.531-2.3l-1.262-1.17c-.225-.222-.391-.337-.666-.644l-.6-.654q-1.205-1.314-2.426-2.646a82.378,82.378,0,0,1-8.8-11.958,112.425,112.425,0,0,1-6.863-13.875c-4.063-9.673-7.262-19.917-11.422-29.779a96.115,96.115,0,0,0-7.352-14.22c-.736-1.1-1.384-2.305-2.185-3.334l-2.365-3.14a31.668,31.668,0,0,0-2.606-3.094l-2.753-3.058-2.839-2.651a31.744,31.744,0,0,0-2.991-2.621l-3.129-2.453c-1.031-.835-2.193-1.484-3.279-2.237a93.2,93.2,0,0,0-13.947-7.5c-9.67-4.248-19.717-7.507-29.2-11.649-2.388-.983-4.686-2.159-6.976-3.278-2.283-1.142-4.463-2.465-6.631-3.723q-1.569-1.054-3.121-2.1a32.181,32.181,0,0,1-3.029-2.178,66.434,66.434,0,0,1-5.6-4.712,75.859,75.859,0,0,1-16.283-21.483,141.556,141.556,0,0,1-8.571-21.073c-2.14-6.4-3.915-11.984-5.6-16.5s-3.111-8.024-4.2-10.374Z" transform="translate(-272.218 64.314)" fill="#272a30"/>
        <path id="Path_1262" data-name="Path 1262" d="M272.218,118.289l2.761,3.329a45.427,45.427,0,0,1,3.116,4.167c.573.85,1.269,1.723,1.87,2.738s1.244,2.092,1.92,3.231a134.366,134.366,0,0,1,8.133,17.324c2.751,6.861,5.457,14.742,8.994,23,3.572,8.222,8.158,16.871,15.006,24.335l2.583,2.8.275.3.363.33.728.661,1.464,1.33c.986.857,1.94,1.855,2.976,2.611q1.543,1.162,3.1,2.343a33.138,33.138,0,0,0,3.264,2.226c1.129.7,2.23,1.469,3.387,2.151,2.378,1.269,4.7,2.675,7.226,3.784,9.9,4.815,20.981,8,31.955,12.563a107.616,107.616,0,0,1,16.145,8.117l3.845,2.508c1.247.892,2.441,1.869,3.665,2.8l1.825,1.417,1.7,1.57,3.464,3.228,3,3.36,1.5,1.685,1.414,1.884c.929,1.263,1.907,2.5,2.788,3.788l2.461,3.922a111.967,111.967,0,0,1,7.96,16.462c4.481,11.187,7.6,22.492,12.323,32.582a79.63,79.63,0,0,0,18.2,25.879c7.292,6.957,15.785,11.645,23.845,15.285,8.1,3.609,15.83,6.361,22.558,9.172a129.853,129.853,0,0,1,16.989,8.292l3.171,1.958c.994.611,1.845,1.321,2.681,1.905a45.192,45.192,0,0,1,4.09,3.18l3.261,2.817s-1.184-.912-3.409-2.623a44.782,44.782,0,0,0-4.238-2.925c-.858-.536-1.74-1.178-2.756-1.739s-2.088-1.168-3.221-1.8a128.257,128.257,0,0,0-17.156-7.49c-6.8-2.491-14.633-4.9-22.951-8.4-8.283-3.489-17.184-8.074-25.049-15.194a79.859,79.859,0,0,1-19.534-26.6c-4.986-10.408-8.383-21.744-12.763-32.644a106.9,106.9,0,0,0-7.71-15.79l-2.345-3.7c-.823-1.189-1.717-2.3-2.568-3.461l-1.292-1.725-1.5-1.675L398.71,250.2l-3.116-2.907-1.6-1.489-1.715-1.34c-1.151-.885-2.268-1.814-3.447-2.661l-3.632-2.393a103.426,103.426,0,0,0-15.484-7.863c-10.686-4.471-21.8-7.926-32.015-13.014-2.583-1.178-5.006-2.678-7.459-4.037-1.2-.732-2.353-1.537-3.514-2.305a35.938,35.938,0,0,1-3.394-2.45q-1.637-1.312-3.259-2.611c-1.1-.855-1.967-1.824-2.951-2.724l-1.432-1.366-.711-.682-.355-.338c-.22-.227-.25-.28-.386-.428q-1.322-1.507-2.631-3c-6.959-7.991-11.467-17.077-14.886-25.522-3.439-8.479-5.8-16.472-8.243-23.4a133.254,133.254,0,0,0-7.347-17.491q-.935-1.739-1.772-3.285c-.546-1.038-1.176-1.931-1.7-2.805a45.144,45.144,0,0,0-2.874-4.324Z" transform="translate(-272.218 54.539)" fill="#272a30"/>
        <path id="Path_1263" data-name="Path 1263" d="M272.218,107.334l.909.746c.591.507,1.512,1.2,2.626,2.2,1.091,1.02,2.538,2.242,3.99,3.867a55.886,55.886,0,0,1,4.949,5.659A84.916,84.916,0,0,1,295.3,137.278c1.7,3.577,3.314,7.473,4.929,11.6s3.161,8.512,4.881,13.025c.884,2.242,1.727,4.563,2.731,6.846q.736,1.726,1.482,3.48.818,1.716,1.65,3.461l.836,1.75.939,1.709q.942,1.714,1.9,3.453c.693,1.124,1.434,2.228,2.155,3.355a33.276,33.276,0,0,0,2.3,3.31q1.239,1.608,2.488,3.236c.851,1.068,1.835,2.036,2.753,3.068l1.407,1.532c.215.228.516.575.661.706l.791.721q1.588,1.443,3.191,2.9a39.516,39.516,0,0,0,3.312,2.637c1.144.821,2.173,1.771,3.424,2.506l3.635,2.35c1.229.768,2.541,1.419,3.812,2.139,10.3,5.645,22.11,9.106,33.87,13.782a127.342,127.342,0,0,1,17.372,8.368,85.886,85.886,0,0,1,8.068,5.612,38.763,38.763,0,0,1,3.792,3.163l3.7,3.444a88.156,88.156,0,0,1,11.845,15.716,132.23,132.23,0,0,1,8.205,17.714c4.593,11.99,7.98,24.032,13.517,34.534a80.372,80.372,0,0,0,9.484,14.5q1.393,1.6,2.778,3.175l.686.79c.12.149.478.466.7.691l1.539,1.469c1.029.953,2.02,1.994,3.066,2.858l3.136,2.5a32.243,32.243,0,0,0,3.229,2.338c1.106.735,2.19,1.491,3.289,2.2q1.708.977,3.387,1.939l1.677.957,1.717.852,3.392,1.682q1.723.763,3.414,1.51c2.238,1.024,4.513,1.884,6.713,2.786,4.426,1.752,8.723,3.338,12.773,4.977s7.87,3.29,11.377,5.026a82.929,82.929,0,0,1,17.124,10.817,55.946,55.946,0,0,1,5.559,5.059,55.027,55.027,0,0,1,3.785,4.059c.989,1.137,1.67,2.082,2.163,2.683s.733.926.733.926-.265-.3-.781-.885-1.247-1.474-2.29-2.554c-1.066-1.067-2.305-2.445-3.972-3.838a65.219,65.219,0,0,0-5.722-4.753,81.626,81.626,0,0,0-17.284-9.986c-7.051-3.152-15.339-5.846-24.34-9.149-2.243-.857-4.551-1.666-6.859-2.654l-3.509-1.45q-1.742-.814-3.514-1.64l-1.785-.831-1.75-.941-3.547-1.92c-1.156-.7-2.3-1.458-3.469-2.2a34.5,34.5,0,0,1-3.452-2.376q-1.7-1.293-3.414-2.6c-1.121-.888-2.1-1.869-3.161-2.81l-1.572-1.429c-.285-.271-.478-.411-.841-.787l-.743-.809q-1.483-1.621-2.994-3.262a79.6,79.6,0,0,1-10.168-15.04c-5.865-10.9-9.549-23.081-14.06-34.817a128.07,128.07,0,0,0-7.97-17.044,83.58,83.58,0,0,0-11.364-14.938l-3.337-3.109a35.375,35.375,0,0,0-3.564-2.994,81.112,81.112,0,0,0-7.607-5.342,123.242,123.242,0,0,0-16.713-8.127c-11.509-4.607-23.454-8.357-34.145-14.34-1.322-.768-2.673-1.462-3.95-2.283q-1.9-1.26-3.785-2.51a45.212,45.212,0,0,1-3.625-2.74,42.735,42.735,0,0,1-3.427-2.874q-1.573-1.5-3.121-2.98l-.776-.739c-.37-.361-.518-.574-.789-.868l-1.437-1.639c-.936-1.106-1.937-2.144-2.8-3.283q-1.269-1.732-2.521-3.444a35.3,35.3,0,0,1-2.318-3.5c-.721-1.189-1.464-2.355-2.153-3.539q-.95-1.819-1.882-3.613l-.924-1.785-.816-1.817-1.607-3.585q-.721-1.806-1.422-3.578c-.971-2.353-1.765-4.707-2.606-6.993-3.241-9.178-5.88-17.63-8.971-24.818a84.019,84.019,0,0,0-9.79-17.616,65.971,65.971,0,0,0-4.671-5.846c-1.377-1.709-2.711-2.955-3.76-4.046-1.059-1.063-1.945-1.8-2.508-2.338Z" transform="translate(-272.218 46.675)" fill="#272a30"/>
        <path id="Path_1264" data-name="Path 1264" d="M272.218,97.912l4.145,2.515c1.284.928,2.966,1.948,4.768,3.384l2.919,2.305q1.464,1.348,3.111,2.855c1.146,1.022,2.113,2.214,3.257,3.4q.837.9,1.712,1.842c.586.629,1.094,1.367,1.662,2.07a80.671,80.671,0,0,1,6.646,9.647,113.144,113.144,0,0,1,5.995,11.915c.951,2.147,1.867,4.375,2.731,6.676.906,2.292,1.762,4.648,2.653,7.052,1.785,4.8,3.577,9.814,5.727,14.837,1.016,2.542,2.24,5.023,3.447,7.559.6,1.269,1.334,2.472,2,3.726a41.3,41.3,0,0,0,2.168,3.683q1.164,1.8,2.345,3.632,1.318,1.724,2.653,3.467c.453.576.879,1.173,1.354,1.735L333,191.838c.986,1.055,2.038,2.254,2.976,3.211A83.213,83.213,0,0,0,350.4,206.218a121.755,121.755,0,0,0,17.039,8.134c5.972,2.359,12.2,4.453,18.415,6.892a124.534,124.534,0,0,1,18.423,8.6c1.507.823,2.911,1.852,4.37,2.771.716.486,1.469.916,2.153,1.45l2.06,1.6a44.954,44.954,0,0,1,4.027,3.312l3.9,3.635a86.283,86.283,0,0,1,12.378,16.69,129.339,129.339,0,0,1,8.438,18.786c2.391,6.337,4.453,12.685,6.761,18.776a126.576,126.576,0,0,0,7.977,17.374,84.538,84.538,0,0,0,10.9,14.641l.185.211c-.055-.048.1.1.145.141l.416.4.823.787,1.647,1.568,1.635,1.558c.553.486,1.126.907,1.687,1.364q1.69,1.343,3.357,2.671l3.562,2.393a40.348,40.348,0,0,0,3.612,2.211c1.229.679,2.408,1.428,3.654,2.039,2.486,1.23,4.919,2.477,7.412,3.515,4.926,2.192,9.842,4.018,14.548,5.841,2.358.909,4.668,1.781,6.916,2.706q3.383,1.324,6.548,2.783a109.759,109.759,0,0,1,11.682,6.114,80.365,80.365,0,0,1,16.638,13.55q1.472,1.667,2.786,3.157,1.209,1.593,2.268,2.98c1.409,1.843,2.406,3.553,3.317,4.863l2.468,4.229s-.926-1.424-2.666-4.094a81.868,81.868,0,0,0-8.8-10.537,78.977,78.977,0,0,0-16.828-12.69c-7.1-4.011-15.694-7.285-25.179-10.673-4.743-1.711-9.725-3.429-14.8-5.547-2.553-1-5.081-2.218-7.662-3.424-1.3-.6-2.536-1.343-3.82-2.017a41.831,41.831,0,0,1-3.8-2.206l-3.762-2.409q-1.821-1.381-3.66-2.779c-.608-.472-1.244-.929-1.83-1.419l-1.667-1.522-1.682-1.529-.844-.768-.42-.385-.27-.253-.2-.217a83.616,83.616,0,0,1-11.674-15.215,129.972,129.972,0,0,1-8.468-17.872c-2.443-6.193-4.553-12.521-6.916-18.754a124.829,124.829,0,0,0-8.215-18.127,81.615,81.615,0,0,0-11.872-15.866l-3.529-3.291a42.625,42.625,0,0,0-3.785-3.137l-1.932-1.515c-.646-.507-1.359-.916-2.035-1.378-1.384-.874-2.7-1.857-4.135-2.645a120.319,120.319,0,0,0-17.78-8.376c-6.113-2.408-12.315-4.568-18.388-7.057a125.417,125.417,0,0,1-17.527-8.63,82.512,82.512,0,0,1-14.863-11.857c-1.184-1.24-2.105-2.367-3.159-3.546l-1.527-1.744c-.483-.6-.919-1.237-1.377-1.85q-1.355-1.855-2.691-3.688-1.19-1.93-2.36-3.838a42.135,42.135,0,0,1-2.165-3.872c-.661-1.309-1.392-2.575-1.978-3.894-1.184-2.632-2.383-5.21-3.359-7.814-2.077-5.171-3.762-10.25-5.442-15.088-3.322-9.67-6.528-18.436-10.465-25.673a79.4,79.4,0,0,0-6.158-9.687c-.533-.709-.994-1.445-1.554-2.094l-1.645-1.905c-1.086-1.211-2.063-2.494-3.1-3.48a80.912,80.912,0,0,0-10.323-8.965C273.617,98.857,272.218,97.912,272.218,97.912Z" transform="translate(-272.218 39.912)" fill="#272a30"/>
        <path id="Path_1265" data-name="Path 1265" d="M272.218,89.458l1.182.534c.778.361,1.95.852,3.427,1.606a76.489,76.489,0,0,1,20.258,14.095c1.357,1.383,2.626,2.807,4.022,4.295a25.176,25.176,0,0,1,2,2.395l1.995,2.572a27.79,27.79,0,0,1,1.932,2.742c.618.95,1.252,1.914,1.89,2.889,1.247,1.977,2.348,4.119,3.564,6.27a153.333,153.333,0,0,1,6.2,14.225q2.823,7.545,5.877,15.692a134.263,134.263,0,0,0,7.224,16.165,75.526,75.526,0,0,0,10.471,15.139c1.044,1.122,2.158,2.388,3.151,3.406q1.791,1.647,3.594,3.307a41.021,41.021,0,0,0,3.715,3.02,39.844,39.844,0,0,0,3.89,2.8c10.731,7.378,23.75,11.448,36.783,16.392a130.1,130.1,0,0,1,19.392,8.833,83.175,83.175,0,0,1,17.334,13.184,84.539,84.539,0,0,1,12.931,17.673,135.617,135.617,0,0,1,8.663,19.772c4.856,13.291,8.841,26.565,16.077,37.505A73.055,73.055,0,0,0,480.1,328.617c.583.545,1.154,1.125,1.742,1.634l1.795,1.426c1.216.924,2.328,1.95,3.612,2.785q1.9,1.278,3.782,2.541c1.266.828,2.606,1.517,3.892,2.274a128.825,128.825,0,0,0,15.85,7.37q7.975,3.108,15.389,5.994a147.725,147.725,0,0,1,13.952,6.318c2.108,1.242,4.208,2.364,6.148,3.635l2.836,1.929a27.519,27.519,0,0,1,2.683,1.963l2.506,2.027a23.668,23.668,0,0,1,2.353,2.041c1.467,1.431,2.9,2.757,4.235,4.126a77.609,77.609,0,0,1,6.548,8.046,79.415,79.415,0,0,1,7.264,12.6c.738,1.508,1.221,2.7,1.574,3.5s.523,1.2.523,1.2l-.581-1.178c-.388-.775-.924-1.941-1.729-3.41a86.314,86.314,0,0,0-7.742-12.183,75.623,75.623,0,0,0-6.746-7.718c-1.327-1.261-2.8-2.537-4.28-3.881a23.546,23.546,0,0,0-2.373-1.915c-.826-.622-1.67-1.252-2.523-1.893a26.233,26.233,0,0,0-2.691-1.824l-2.834-1.787c-1.937-1.172-4.038-2.2-6.133-3.334-4.33-2.037-8.921-4.09-13.88-5.887l-15.514-5.652a132.063,132.063,0,0,1-16.36-7.179c-1.349-.756-2.748-1.439-4.083-2.271l-4-2.561c-1.352-.842-2.6-1.927-3.92-2.893l-1.957-1.5c-.626-.519-1.189-1.07-1.79-1.606l-1.78-1.623-.894-.816-.448-.409-.285-.263-.213-.23q-1.675-1.848-3.367-3.716a45.483,45.483,0,0,1-3.169-3.954,43.82,43.82,0,0,1-2.956-4.173,101.6,101.6,0,0,1-9.5-18.477c-2.658-6.468-4.924-13.123-7.334-19.7a131.122,131.122,0,0,0-8.453-19.126,80.015,80.015,0,0,0-12.265-16.658A78.756,78.756,0,0,0,410.647,229.7a126.181,126.181,0,0,0-18.756-8.617c-6.451-2.46-12.974-4.776-19.317-7.485a98.055,98.055,0,0,1-18.12-9.683,43.443,43.443,0,0,1-4.125-3.041,45.82,45.82,0,0,1-3.88-3.235q-1.783-1.688-3.552-3.353c-1.247-1.318-2.233-2.511-3.349-3.766a79.175,79.175,0,0,1-10.6-16.036A137.4,137.4,0,0,1,321.91,157.8q-2.876-8.2-5.547-15.82c-1.76-5.057-3.775-9.737-5.77-14.155-1.116-2.137-2.123-4.279-3.272-6.253q-.89-1.466-1.752-2.889a26.349,26.349,0,0,0-1.785-2.737q-.939-1.3-1.847-2.56a23.438,23.438,0,0,0-1.882-2.426c-1.324-1.513-2.606-3.053-3.827-4.389a75.68,75.68,0,0,0-7.559-6.868,83.99,83.99,0,0,0-11.95-7.893c-1.437-.821-2.586-1.369-3.344-1.764Z" transform="translate(-272.218 33.843)" fill="#272a30"/>
        <path id="Path_1266" data-name="Path 1266" d="M272.218,81.576l4.961,1.876a108.647,108.647,0,0,1,13.6,6.389,75.182,75.182,0,0,1,18.41,14.59,85.768,85.768,0,0,1,16.28,26.061c2.258,5.193,4.215,10.731,6.325,16.4,2.075,5.681,4.278,11.5,6.991,17.223,1.294,2.9,2.886,5.671,4.453,8.491q1.314,2.028,2.636,4.082c.851,1.39,1.942,2.611,2.909,3.937l1.5,1.955,1.672,1.824,1.67,1.84.839.924c.04.048.2.213.148.168l.235.218.471.435q1.885,1.737,3.787,3.492c1.284,1.115,2.628,2.046,3.94,3.089a91.729,91.729,0,0,0,17.92,10.125c6.428,2.816,13.209,5.131,20.04,7.7a146.348,146.348,0,0,1,20.323,9.038L423.8,222.8l2.388,1.546a50.961,50.961,0,0,1,4.676,3.252l2.258,1.754a21.779,21.779,0,0,1,2.193,1.835l4.273,3.977,3.717,4.159a23.235,23.235,0,0,1,1.795,2.23l1.75,2.335a51.789,51.789,0,0,1,3.207,4.794l1.514,2.432,1.347,2.522a152.034,152.034,0,0,1,8.864,20.724c2.516,6.966,4.794,13.875,7.549,20.429a94.342,94.342,0,0,0,9.942,18.295,72.277,72.277,0,0,0,13.7,14.55c1.289.972,2.456,2.063,3.822,2.936q2.013,1.35,4,2.685c2.768,1.6,5.487,3.223,8.328,4.542,5.617,2.766,11.319,5.013,16.891,7.129,5.557,2.151,10.991,4.149,16.082,6.452a83.643,83.643,0,0,1,25.562,16.6,76.32,76.32,0,0,1,14.305,18.776,113.054,113.054,0,0,1,6.263,13.872c1.2,3.3,1.837,5.059,1.837,5.059s-.716-1.726-2.06-4.965a126.53,126.53,0,0,0-6.786-13.525,74.956,74.956,0,0,0-14.673-17.977,86.235,86.235,0,0,0-25.419-15.5c-5.046-2.156-10.478-4.027-16.088-6.061-5.619-2-11.457-4.157-17.289-6.876-2.941-1.3-5.8-2.915-8.706-4.52q-2.1-1.35-4.235-2.714c-1.437-.878-2.753-2.037-4.148-3.054a72.979,72.979,0,0,1-14.533-15.053,98.251,98.251,0,0,1-10.583-18.979c-2.929-6.722-5.282-13.7-7.78-20.592a148.154,148.154,0,0,0-8.666-20.1l-1.292-2.4-1.444-2.3a48.13,48.13,0,0,0-3.014-4.475l-1.6-2.132a20.188,20.188,0,0,0-1.7-2.111l-3.73-4.149-3.877-3.614a20.021,20.021,0,0,0-2.06-1.735l-2.125-1.661a47.1,47.1,0,0,0-4.41-3.09l-2.255-1.476-2.353-1.314a142,142,0,0,0-19.71-8.837c-6.758-2.546-13.6-4.954-20.193-7.936A95.455,95.455,0,0,1,360.7,197.738c-1.4-1.127-2.879-2.207-4.183-3.367q-1.885-1.778-3.752-3.534l-.466-.438-.233-.222c-.2-.2-.18-.2-.28-.3l-.871-.983-1.732-1.958-1.717-1.955-1.534-2.087c-.989-1.409-2.1-2.719-2.964-4.188q-1.34-2.172-2.663-4.317c-1.572-2.963-3.161-5.877-4.431-8.878-2.668-5.947-4.781-11.9-6.746-17.628-2-5.719-3.83-11.257-5.945-16.4a88.548,88.548,0,0,0-15.2-25.922A74.082,74.082,0,0,0,290.353,90.6a122.489,122.489,0,0,0-13.262-6.918C273.913,82.306,272.218,81.576,272.218,81.576Z" transform="translate(-272.218 28.185)" fill="#272a30"/>
        <path id="Path_1267" data-name="Path 1267" d="M272.218,73.945l5.224,1.8c3.387,1.23,8.426,2.877,14.571,5.7a83.428,83.428,0,0,1,20.7,12.978q1.329,1.2,2.7,2.432l.688.622.173.155.115.108.078.086.315.34c.421.452.841.909,1.269,1.369q1.28,1.384,2.593,2.8c.856.976,1.64,2.077,2.481,3.133A82.977,82.977,0,0,1,332,119.925a178.864,178.864,0,0,1,7.089,16.958c2.205,5.935,4.35,12.076,6.949,18.18a99.324,99.324,0,0,0,9.5,17.831,78.222,78.222,0,0,0,6.468,8.07l1.752,1.939.22.242c.007.014.135.143.048.06l.125.115.493.457.991.914c1.332,1.178,2.626,2.53,4,3.587s2.761,2.125,4.153,3.193q2.234,1.451,4.491,2.912a99.038,99.038,0,0,0,9.592,5.052c6.631,3.063,13.659,5.543,20.771,8.192a160.693,160.693,0,0,1,21.241,9.221,81.611,81.611,0,0,1,19.031,14.129l3.945,4.408c1.287,1.458,2.456,3.2,3.682,4.788l.909,1.218.8,1.266,1.592,2.532c1.111,1.659,1.985,3.448,2.931,5.193a167.51,167.51,0,0,1,9.044,21.659c2.6,7.253,5.036,14.419,8.035,21.181a83.8,83.8,0,0,0,10.991,18.651c1.054,1.426,2.31,2.668,3.447,4,.573.62,1.186,1.4,1.72,1.884l1.952,1.838a77.94,77.94,0,0,0,7.92,6.591,96.236,96.236,0,0,0,17.484,9.685c5.985,2.651,12.01,4.837,17.827,7.088a170.828,170.828,0,0,1,16.631,7.227,77.608,77.608,0,0,1,25,19.661,85.622,85.622,0,0,1,12.736,21.123c2.766,6.27,4.38,11.4,5.584,14.859,1.154,3.475,1.77,5.327,1.77,5.327s-.693-1.823-1.995-5.241c-.668-1.7-1.5-3.8-2.468-6.263-1.074-2.42-2.16-5.267-3.672-8.311a84.362,84.362,0,0,0-13.174-20.36,79.055,79.055,0,0,0-24.881-18.51,167.817,167.817,0,0,0-16.516-6.782c-5.822-2.122-11.932-4.2-18.095-6.779a99.432,99.432,0,0,1-18.293-9.668,73.622,73.622,0,0,1-8.418-6.792l-1.97-1.817c-.786-.72-1.284-1.374-1.942-2.068-1.214-1.393-2.548-2.7-3.675-4.185a87.666,87.666,0,0,1-11.714-19.406c-3.187-6.959-5.715-14.231-8.305-21.437a162.936,162.936,0,0,0-8.864-21.059c-.909-1.659-1.745-3.37-2.806-4.932l-1.512-2.393-.761-1.194-.838-1.11c-1.151-1.47-2.135-2.984-3.417-4.429l-3.817-4.253a77.332,77.332,0,0,0-17.955-13.413,157.082,157.082,0,0,0-20.656-9.039c-7.066-2.639-14.2-5.226-21.021-8.471a85.347,85.347,0,0,1-19.086-11.992c-1.477-1.17-2.681-2.462-4.025-3.678l-.981-.922-.488-.462-.123-.115a2.529,2.529,0,0,1-.178-.189l-.23-.258-1.827-2.06a74.2,74.2,0,0,1-6.661-8.589,102.638,102.638,0,0,1-9.482-18.649c-2.533-6.286-4.571-12.518-6.648-18.453a175.742,175.742,0,0,0-6.653-16.843,85.331,85.331,0,0,0-8.308-14.222c-.778-1.044-1.477-2.113-2.293-3.106q-1.269-1.464-2.5-2.884-.619-.714-1.224-1.414l-.305-.35-.075-.088c.03.033-.04-.034-.055-.05l-.163-.156-.653-.627q-1.3-1.247-2.563-2.462A82.214,82.214,0,0,0,291.65,82.24c-2.984-1.543-5.775-2.651-8.148-3.745l-6.143-2.517Z" transform="translate(-272.218 22.707)" fill="#272a30"/>
        <path id="Path_1268" data-name="Path 1268" d="M272.218,66.278s1.87.716,5.407,1.962c3.529,1.276,8.766,2.956,15.332,5.434,6.521,2.539,14.521,5.777,22.681,11.425A71.344,71.344,0,0,1,327.6,95.428q1.4,1.523,2.839,3.082L333.114,102q.676.886,1.357,1.785.6.94,1.216,1.89c.8,1.276,1.675,2.532,2.441,3.867a130.1,130.1,0,0,1,8.178,17.342c2.44,6.148,4.616,12.592,7.146,19.046a122.637,122.637,0,0,0,9.084,19.058A72.992,72.992,0,0,0,376.3,181.744l2.088,1.924,2.168,1.661a46.62,46.62,0,0,0,4.476,3.228,83.912,83.912,0,0,0,9.772,5.6,222.639,222.639,0,0,0,21.487,8.728,176.261,176.261,0,0,1,22.16,9.407,81.515,81.515,0,0,1,19.875,14.6l4.105,4.588c1.319,1.567,2.551,3.343,3.822,5.008a91.37,91.37,0,0,1,6.393,10.671,183.529,183.529,0,0,1,9.226,22.6,232.676,232.676,0,0,0,8.561,21.908,80.682,80.682,0,0,0,12.185,18.876l1.83,2.061c.29.309.646.764.876.953l1.024.964c1.372,1.257,2.7,2.62,4.09,3.772l4.178,3.285c1.459,1.022,2.959,1.991,4.425,2.984a118.076,118.076,0,0,0,18.691,9.264c6.328,2.578,12.646,4.8,18.676,7.289a125.778,125.778,0,0,1,17.006,8.338c1.307.783,2.541,1.673,3.792,2.489.623.416,1.239.83,1.855,1.242q.871.691,1.735,1.371,1.72,1.368,3.4,2.7,1.554,1.484,3.069,2.936.758.724,1.5,1.443c.556.507.936,1.01,1.4,1.51.9,1.007,1.8,1.955,2.621,3.025a75.487,75.487,0,0,1,4.6,6.213c5.539,8.323,8.713,16.481,11.2,23.132,2.43,6.694,4.077,12.035,5.329,15.632,1.222,3.608,1.925,5.514,1.925,5.514s-.781-1.874-2.15-5.428-3.309-8.8-5.907-15.4c-2.676-6.543-6.083-14.521-11.75-22.486a74.135,74.135,0,0,0-4.648-5.9c-.8-.988-1.752-1.927-2.676-2.9a37.688,37.688,0,0,0-2.9-2.771q-1.5-1.366-3.049-2.767-1.656-1.26-3.352-2.556-.845-.644-1.7-1.3c-.606-.387-1.211-.776-1.825-1.168-1.232-.77-2.435-1.61-3.725-2.345a122.664,122.664,0,0,0-16.786-7.828c-5.987-2.338-12.34-4.434-18.806-6.921a121.642,121.642,0,0,1-19.409-9.17c-1.557-1.008-3.136-1.987-4.7-3.039l-4.543-3.511c-1.469-1.2-2.761-2.506-4.163-3.762l-1.031-.953a14.674,14.674,0,0,1-1.051-1.108l-1.95-2.152a84.667,84.667,0,0,1-12.994-19.688,214.691,214.691,0,0,1-8.876-22.267,179.559,179.559,0,0,0-9.064-22.031,86.846,86.846,0,0,0-6.082-10.084c-1.189-1.532-2.253-3.1-3.534-4.618l-3.975-4.429a77.091,77.091,0,0,0-18.761-13.861,172.353,172.353,0,0,0-21.6-9.242,205.929,205.929,0,0,1-21.837-9.056,88.236,88.236,0,0,1-10.165-5.964,50.113,50.113,0,0,1-4.758-3.511l-2.323-1.833-2.07-1.946a74.229,74.229,0,0,1-14.23-17.768,126.389,126.389,0,0,1-8.994-19.791c-2.438-6.593-4.493-13.071-6.788-19.176a127.964,127.964,0,0,0-7.677-17.12c-.723-1.311-1.544-2.541-2.3-3.795-.385-.624-.766-1.245-1.146-1.86l-1.262-1.725q-1.258-1.716-2.483-3.391-1.4-1.6-2.756-3.161A69.54,69.54,0,0,0,314.7,86.469c-7.812-5.781-15.637-9.249-22.055-11.98-6.473-2.647-11.619-4.614-15.1-6.021S272.218,66.278,272.218,66.278Z" transform="translate(-272.218 17.204)" fill="#272a30"/>
        <path id="Path_1269" data-name="Path 1269" d="M272.218,58.282l1.4.62c.929.4,2.28,1.046,4.1,1.756,3.592,1.517,8.986,3.417,15.857,5.834,6.846,2.456,15.294,5.284,24.313,10.213a78.1,78.1,0,0,1,13.509,9.278c1.094.953,2.158,1.974,3.249,2.989.283.275.521.466.843.814l.748.821q.755.825,1.514,1.659a78.9,78.9,0,0,1,5.922,7.292,104.6,104.6,0,0,1,9.627,17.493c2.791,6.316,5.1,13.033,7.629,19.817a158.164,158.164,0,0,0,8.768,20.238c.9,1.63,1.752,3.309,2.816,4.853s1.93,3.238,3.129,4.7c1.166,1.482,2.218,3.073,3.484,4.489q1.885,2.085,3.78,4.186,2.159,2,4.34,4.021c1.469,1.287,3.006,2.355,4.508,3.556a83.805,83.805,0,0,0,9.93,6.181,174.008,174.008,0,0,0,22.183,9.355c7.68,2.817,15.562,5.647,23.1,9.558,1.855,1.044,3.74,2.027,5.569,3.125,1.782,1.182,3.612,2.3,5.357,3.544,1.692,1.326,3.427,2.6,5.081,3.98l4.816,4.473,4.19,4.7c1.352,1.68,2.643,3.494,3.957,5.239,1.234,1.793,2.318,3.649,3.479,5.47,1.079,1.866,2.043,3.79,3.064,5.679,3.837,7.691,6.611,15.728,9.374,23.56a181.316,181.316,0,0,0,9.176,22.619,78.689,78.689,0,0,0,13.429,19.087l4.21,3.956a23.678,23.678,0,0,0,2.18,1.807l2.193,1.716,1.091.857,1.167.778,2.335,1.539c1.512,1.084,3.159,1.95,4.758,2.871a151.177,151.177,0,0,0,19.845,8.941c6.651,2.578,13.239,4.935,19.432,7.782a101.308,101.308,0,0,1,17.156,9.817,78.2,78.2,0,0,1,7.151,6.038c1.094,1.082,2.238,2.024,3.249,3.187.981,1.1,1.965,2.156,2.9,3.269a79.8,79.8,0,0,1,9.119,13.806c4.831,9.194,7.6,17.811,10.015,24.79,2.368,7.007,4.23,12.506,5.72,16.172.7,1.855,1.332,3.231,1.72,4.176.4.941.608,1.428.608,1.428l-.663-1.4c-.426-.929-1.119-2.281-1.885-4.106-1.619-3.616-3.765-9.027-6.31-15.969-2.611-6.9-5.635-15.394-10.643-24.271a77.836,77.836,0,0,0-9.251-13.148c-.939-1.062-1.973-2.1-2.964-3.182-.936-1.044-2.112-1.982-3.174-3a75.4,75.4,0,0,0-7.029-5.717,98.322,98.322,0,0,0-16.849-9.227c-6.11-2.673-12.678-4.889-19.411-7.354a154.607,154.607,0,0,1-20.456-8.771c-1.682-.926-3.4-1.8-5.014-2.9l-2.458-1.6-1.227-.813-1.186-.916c-1.547-1.24-3.249-2.419-4.683-3.738l-4.363-4.056A82.74,82.74,0,0,1,497.5,292.277a185.36,185.36,0,0,1-9.529-23.071c-2.813-7.828-5.584-15.672-9.307-23.012-.986-1.8-1.917-3.632-2.954-5.4-1.109-1.709-2.16-3.487-3.317-5.147-1.229-1.6-2.375-3.214-3.657-4.8l-4.213-4.679-4.378-4.1c-1.552-1.306-3.184-2.517-4.768-3.783-1.642-1.19-3.374-2.254-5.056-3.389-1.732-1.053-3.534-2-5.294-3.011-7.2-3.793-14.891-6.619-22.568-9.488a177.726,177.726,0,0,1-22.626-9.718,87.218,87.218,0,0,1-10.4-6.562c-1.6-1.288-3.312-2.522-4.806-3.853q-2.166-2.03-4.318-4.047a80.187,80.187,0,0,1-13.8-19.365,161.2,161.2,0,0,1-8.6-20.853c-2.416-6.87-4.593-13.567-7.211-19.8a101.763,101.763,0,0,0-9.051-17.18,75.936,75.936,0,0,0-5.6-7.165q-.747-.848-1.484-1.685l-.736-.838c-.175-.2-.5-.493-.738-.732-1.046-1-2.038-2.032-3.076-2.987a76.359,76.359,0,0,0-12.921-9.453c-8.706-5.109-17.036-8.189-23.8-10.852-6.809-2.594-12.113-4.784-15.659-6.432-1.792-.783-3.116-1.488-4.028-1.922Z" transform="translate(-272.218 11.464)" fill="#272a30"/>
        <path id="Path_1270" data-name="Path 1270" d="M272.218,49.624l1.382.8c.924.5,2.233,1.362,4.05,2.269a137.923,137.923,0,0,0,16.118,6.971c7.069,2.694,15.887,5.365,25.629,9.637a88.385,88.385,0,0,1,14.889,8.2q.935.636,1.882,1.282.9.709,1.812,1.428c1.192.986,2.478,1.891,3.609,3.015,1.167,1.108,2.335,2.115,3.539,3.345q1.618,1.778,3.274,3.592A87.131,87.131,0,0,1,359.889,107.5a194.532,194.532,0,0,1,8.471,20.48c2.606,7.095,5.2,14.371,8.576,21.4a83.732,83.732,0,0,0,12.836,19.747l2.007,2.226.5.558.5.466,1.131,1.048a55.866,55.866,0,0,0,4.6,4.049,76.9,76.9,0,0,0,10.015,6.811c7.106,4.087,14.9,7.15,22.868,10.085s16.175,5.83,24.062,9.793a80.487,80.487,0,0,1,21.672,15.51l4.431,4.959c1.384,1.8,2.743,3.65,4.105,5.476,1.2,1.9,2.408,3.8,3.567,5.719,1.036,1.982,2.14,3.937,3.114,5.942,3.887,8.043,6.716,16.407,9.6,24.536s5.88,16.074,9.89,23.32a74.593,74.593,0,0,0,14.871,19.128c.751.689,1.484,1.419,2.24,2.07l2.3,1.8,2.29,1.8,2.448,1.623,2.438,1.61c.826.514,1.692.962,2.531,1.445l2.523,1.434c.841.472,1.727.866,2.586,1.3,6.891,3.441,14.025,6.088,20.986,8.747a185.627,185.627,0,0,1,20.083,8.637A85.143,85.143,0,0,1,604.12,350.91q1.81,1.716,3.577,3.4c1.2,1.218,2.163,2.383,3.234,3.558,1.074,1.122,1.993,2.465,2.961,3.685.473.625.961,1.235,1.412,1.86q.634.966,1.256,1.919a91.1,91.1,0,0,1,8.045,15.182c4.188,9.936,6.808,18.927,9.447,26.137a143.386,143.386,0,0,0,6.839,16.436c.889,1.854,1.73,3.187,2.223,4.13.513.928.781,1.407.781,1.407l-.833-1.376c-.528-.921-1.422-2.225-2.383-4.045a130.437,130.437,0,0,1-7.432-16.239c-2.849-7.153-5.732-16.076-10.145-25.755a89.11,89.11,0,0,0-8.3-14.636,73.157,73.157,0,0,0-12.32-13.736,82.479,82.479,0,0,0-16.631-11.018,183.057,183.057,0,0,0-19.912-8.137c-6.986-2.529-14.265-5.075-21.447-8.5-.894-.435-1.812-.825-2.7-1.3l-2.651-1.445c-.879-.5-1.78-.96-2.648-1.489l-2.566-1.671-2.576-1.69-2.488-1.924-2.493-1.939c-.786-.672-1.5-1.379-2.263-2.068a78.6,78.6,0,0,1-15.752-20.018c-4.233-7.555-7.362-15.725-10.3-23.875s-5.782-16.343-9.557-24.038c-.946-1.921-2.007-3.767-3.009-5.659l-3.4-5.4-3.782-5-4.313-4.8a76.145,76.145,0,0,0-20.448-14.8c-7.547-3.853-15.577-6.741-23.574-9.745s-16-6.189-23.414-10.508a79.739,79.739,0,0,1-10.583-7.306,58.214,58.214,0,0,1-4.678-4.169l-1.126-1.055-.621-.591-.531-.591-2.1-2.357a83.3,83.3,0,0,1-13.251-20.772c-3.359-7.323-5.857-14.748-8.335-21.871a191.664,191.664,0,0,0-7.982-20.3,84.3,84.3,0,0,0-10.788-16.934,80.195,80.195,0,0,0-27.845-21.047c-9.5-4.5-18.245-7.44-25.259-10.345a125.648,125.648,0,0,1-15.93-7.577c-1.785-.979-3.059-1.89-3.965-2.427Z" transform="translate(-272.218 5.249)" fill="#272a30"/>
        <path id="Path_1271" data-name="Path 1271" d="M272.218,39.874l5.131,4.028a96.866,96.866,0,0,0,15.93,8.993c7.176,3.286,16.275,6.237,26.631,10.065a126.234,126.234,0,0,1,16.138,7.162c1.354.782,2.788,1.467,4.13,2.359s2.711,1.778,4.09,2.683A79.64,79.64,0,0,1,352.11,81.6q.957.879,1.922,1.769c.7.7,1.2,1.294,1.81,1.951,1.154,1.318,2.4,2.517,3.512,3.97s2.228,2.919,3.357,4.4q1.5,2.327,3.029,4.695a129.578,129.578,0,0,1,9.827,20.97c2.828,7.4,5.394,15.064,8.608,22.567A92.826,92.826,0,0,0,396.44,163.3l.946,1.245,1.046,1.161,2.1,2.328,1.051,1.17.13.146c-.075-.077.065.057.088.076l.3.275.593.548,2.375,2.2a54.234,54.234,0,0,0,4.889,4.006,61.515,61.515,0,0,0,5.229,3.589c7.221,4.556,15.261,7.924,23.557,10.979,8.288,3.089,16.851,6.018,25.1,10.07a81.563,81.563,0,0,1,22.686,16l4.611,5.179c1.414,1.912,2.894,3.8,4.233,5.741,1.217,2,2.556,3.934,3.66,5.99,1.061,2.077,2.278,4.083,3.189,6.22,3.972,8.416,6.846,17.147,9.872,25.6,3,8.462,6.3,16.658,10.768,24.022a62.809,62.809,0,0,0,3.534,5.353,55.533,55.533,0,0,0,3.937,4.99l2.1,2.359c.328.359.743.856,1,1.106l1.179,1.1,2.345,2.2,1.169,1.1,1.207.948a78.114,78.114,0,0,0,10.078,6.969,114.193,114.193,0,0,0,10.836,5.49c7.359,3.278,14.878,5.894,22.13,8.778a124.993,124.993,0,0,1,20.566,10.024,74.946,74.946,0,0,1,16.465,13.9,80.281,80.281,0,0,1,6.308,7.993q1.333,2.108,2.633,4.171c.874,1.366,1.549,2.828,2.315,4.21a131.035,131.035,0,0,1,7.021,16.457c3.755,10.558,6.648,19.837,9.867,27.154a99.669,99.669,0,0,0,8.821,16.251c2.576,3.41,3.947,5.227,3.947,5.227l-4.14-5.083a93.83,93.83,0,0,1-9.412-16.029c-3.439-7.27-6.608-16.536-10.623-26.915a129.752,129.752,0,0,0-7.354-16.017c-.783-1.328-1.489-2.733-2.355-4.052s-1.737-2.654-2.621-4.008a78.4,78.4,0,0,0-6.243-7.641,72.236,72.236,0,0,0-16.11-13.135,121.858,121.858,0,0,0-20.233-9.429c-7.216-2.73-14.811-5.222-22.41-8.45a89.2,89.2,0,0,1-21.99-12.9l-1.3-1.022-1.174-1.089-2.358-2.185-1.181-1.1c-.516-.5-.783-.845-1.186-1.278L527.4,302.82a59.13,59.13,0,0,1-4.18-5.238,65.946,65.946,0,0,1-3.747-5.609c-4.733-7.7-8.188-16.191-11.257-24.7-3.1-8.508-5.982-17.082-9.847-25.146-.889-2.061-2.06-3.951-3.081-5.932-1.061-1.957-2.343-3.769-3.5-5.664-1.259-1.8-2.608-3.491-3.9-5.248l-4.486-5a77.1,77.1,0,0,0-21.427-15.268c-7.907-3.943-16.313-6.882-24.658-10.042-8.345-3.128-16.668-6.651-24.223-11.475a65,65,0,0,1-5.522-3.838,59.346,59.346,0,0,1-5.141-4.267l-2.363-2.216-.591-.551-.293-.277-.21-.2-.14-.155-1.1-1.235-2.2-2.469-1.094-1.232-.991-1.314a92.005,92.005,0,0,1-12.6-22.371c-3.164-7.751-5.609-15.493-8.288-22.851a126.417,126.417,0,0,0-9.249-20.635q-1.434-2.311-2.846-4.583-1.566-2.128-3.1-4.221c-1.021-1.4-2.3-2.671-3.414-3.994-.563-.627-1.176-1.366-1.695-1.89q-.916-.876-1.827-1.74a77.932,77.932,0,0,0-7.492-6.365L339,74.421c-1.292-.883-2.668-1.6-3.972-2.4a124.6,124.6,0,0,0-15.71-7.5c-10.178-4.092-19.266-7.321-26.4-10.831a91.452,91.452,0,0,1-15.722-9.6C273.95,41.343,272.218,39.874,272.218,39.874Z" transform="translate(-272.218 -1.75)" fill="#272a30"/>
        <path id="Path_1272" data-name="Path 1272" d="M272.218,28.393l1.134,1.338c.741.885,1.83,2.214,3.4,3.8,1.474,1.675,3.6,3.412,5.99,5.6a85.416,85.416,0,0,0,8.961,6.418A97.012,97.012,0,0,0,303.8,51.872q6.852,2.937,15.021,5.789c5.414,1.962,11.244,3.906,17.241,6.476a96.5,96.5,0,0,1,18.057,9.926,75.35,75.35,0,0,1,16.158,15.754A95.944,95.944,0,0,1,382.225,111c3.264,7.67,5.937,15.754,9.044,23.766,3.119,8,6.653,15.988,11.609,23.208q1.968,2.613,3.95,5.25,2.181,2.409,4.375,4.837c1.665,1.527,3.322,3.116,5.011,4.609,1.752,1.314,3.424,2.719,5.249,3.982,7.344,5.1,15.672,8.831,24.305,12.116s17.622,6.248,26.3,10.41A82.955,82.955,0,0,1,496,215.818c1.587,1.79,3.192,3.518,4.748,5.375l2.243,3a36.308,36.308,0,0,1,2.143,3.039c1.269,2.1,2.7,4.109,3.777,6.308l1.72,3.236c.563,1.084,1.031,2.2,1.552,3.305,4.08,8.845,6.976,18.018,10.208,26.815s6.881,17.294,11.882,24.783c1.244,1.871,2.653,3.611,3.96,5.416,1.442,1.694,2.946,3.324,4.408,4.983q2.437,2.3,4.863,4.578,2.553,1.994,5.084,3.972c7.076,5.061,14.921,8.651,22.761,11.832,7.857,3.168,15.785,5.9,23.306,9.225A93.145,93.145,0,0,1,619.4,343.846q1.153.912,2.29,1.817c.751.618,1.424,1.318,2.133,1.97s1.4,1.323,2.09,1.979l1.076,1.027.926,1.05c1.224,1.4,2.46,2.761,3.647,4.164q1.667,2.262,3.309,4.483a99.813,99.813,0,0,1,9.74,18.419c2.521,6.116,4.428,12.063,6.35,17.584q2.79,8.32,5.674,15.316a100.36,100.36,0,0,0,6.2,12.331,87.329,87.329,0,0,0,6.3,9.146c2.143,2.42,3.837,4.59,5.489,6.1,1.557,1.611,2.856,2.714,3.722,3.474s1.312,1.154,1.312,1.154l-1.352-1.106c-.894-.728-2.238-1.792-3.845-3.341-1.7-1.446-3.494-3.575-5.73-5.932a78.306,78.306,0,0,1-6.626-9.027,101.1,101.1,0,0,1-6.588-12.289c-2.058-4.643-4.105-9.752-6.11-15.248-4.09-10.925-8.418-23.522-16.56-35.09q-1.581-2.079-3.2-4.207c-1.194-1.366-2.461-2.716-3.7-4.094l-.941-1.034-.976-.886q-1.018-.93-2.043-1.872c-.693-.615-1.349-1.282-2.08-1.866q-1.111-.853-2.235-1.711a90.085,90.085,0,0,0-20.278-11.437c-7.412-3.14-15.332-5.722-23.359-8.8a107.073,107.073,0,0,1-23.644-12.075c-1.84-1.39-3.685-2.828-5.507-4.269l-2.478-2.3-1.244-1.153-.623-.577-.31-.289-.155-.144a2.465,2.465,0,0,1-.213-.223c-1.552-1.735-3.146-3.449-4.673-5.229-1.394-1.893-2.886-3.726-4.208-5.686-5.307-7.859-9.146-16.691-12.458-25.592s-6.238-17.946-10.218-26.439c-.5-1.055-.964-2.139-1.507-3.171l-1.66-3.082c-1.041-2.1-2.4-3.98-3.615-5.968a32.029,32.029,0,0,0-2-2.8l-2.055-2.736c-1.507-1.792-3.169-3.544-4.738-5.325l-2.461-2.293c-.854-.778-1.66-1.61-2.551-2.341L485,212.1a31.631,31.631,0,0,0-2.776-2.06c-1.947-1.235-3.795-2.627-5.855-3.686l-3.019-1.694c-1.014-.553-2.075-1.02-3.111-1.537-8.328-4.056-17.186-7.024-25.927-10.414s-17.392-7.294-25.1-12.705c-1.93-1.352-3.767-2.9-5.639-4.344-1.717-1.536-3.339-3.109-5.006-4.652-1.7-1.833-3.136-3.5-4.706-5.246q-2.1-2.767-4.133-5.55a110.572,110.572,0,0,1-11.832-24.11c-3.024-8.189-5.557-16.261-8.633-23.818a93.137,93.137,0,0,0-11.2-20.654,72.728,72.728,0,0,0-15.384-15.5c-11.357-8.311-23.7-12.721-34.418-16.891-5.389-2.043-10.4-4.13-14.954-6.227a97.7,97.7,0,0,1-12.052-6.715,77.879,77.879,0,0,1-8.861-6.765c-2.3-2.269-4.383-4.094-5.81-5.834-1.527-1.646-2.563-3.01-3.276-3.922Z" transform="translate(-272.218 -9.992)" fill="#272a30"/>
        <path id="Path_1273" data-name="Path 1273" d="M273.629,17.681l.976,1.532c.648,1.008,1.569,2.537,2.964,4.382a70.858,70.858,0,0,0,5.357,6.6,87.368,87.368,0,0,0,8.338,7.861c6.6,5.415,15.765,10.491,26.871,14.672,5.539,2.146,11.562,4.133,17.847,6.493A123.528,123.528,0,0,1,355.29,68.1a77.546,77.546,0,0,1,18.09,14.725q1.006,1.105,2.022,2.221c.653.785,1.269,1.639,1.907,2.462l1.907,2.508c.651.835,1.154,1.749,1.742,2.625a61.858,61.858,0,0,1,3.279,5.447q.766,1.407,1.537,2.822c.508.948.931,1.938,1.4,2.91,3.73,7.808,6.611,16.179,9.7,24.551s6.446,16.787,11.254,24.484a74.1,74.1,0,0,0,18.35,20.21,84.578,84.578,0,0,0,11.772,7.378c2.12,1.008,4.218,2.072,6.39,3.008,2.185.914,4.345,1.878,6.591,2.709,8.891,3.489,18.2,6.437,27.2,10.682a84.646,84.646,0,0,1,24.768,17l2.536,2.831c.811.948,1.667,1.78,2.438,2.824l2.318,3.1,1.154,1.553c.368.524.686,1.072,1.029,1.606,1.352,2.151,2.738,4.281,3.865,6.548.583,1.122,1.209,2.225,1.757,3.358l1.579,3.432c4.163,9.177,7.054,18.675,10.476,27.738.814,2.29,1.76,4.494,2.653,6.724.919,2.214,1.962,4.351,2.951,6.514a86.673,86.673,0,0,0,7.254,12.03l2.078,2.788c.676.938,1.512,1.742,2.258,2.618l2.293,2.575.143.16c.058.069-.02-.012.09.093l.323.3.641.6,1.286,1.2,2.563,2.4,2.643,2.061c.894.672,1.72,1.41,2.663,2.029l2.819,1.859c7.549,4.908,15.81,8.314,24.015,11.468s16.42,6.091,24.077,9.895a82.769,82.769,0,0,1,20.59,14.073c.734.7,1.469,1.391,2.2,2.084.818.785,1.352,1.491,2.038,2.237l1.938,2.2c.318.369.646.718.954,1.1l.889,1.2c1.151,1.608,2.4,3.14,3.429,4.77,1.009,1.639,2.033,3.247,3,4.867a128.58,128.58,0,0,1,8.713,19.686c2.315,6.411,4.263,12.552,6.368,18.2,4.1,11.333,9.064,20.657,14.4,27.415a87.3,87.3,0,0,0,7.7,8.491,70.473,70.473,0,0,0,6.466,5.459c1.812,1.424,3.307,2.36,4.3,3.022s1.5,1,1.5,1-.521-.321-1.534-.943-2.538-1.512-4.4-2.876a73.274,73.274,0,0,1-14.7-13.593c-5.562-6.688-10.844-16.043-15.267-27.358-2.263-5.64-4.365-11.736-6.821-18.036a132.264,132.264,0,0,0-8.874-19.178q-1.472-2.311-2.976-4.669c-1.014-1.56-2.215-2.968-3.324-4.484l-.854-1.122c-.3-.368-.643-.72-.966-1.08l-1.97-2.163c-.651-.687-1.342-1.537-1.97-2.1l-2.15-1.97a79.641,79.641,0,0,0-20.06-13.246c-7.494-3.577-15.624-6.351-23.945-9.391a123.157,123.157,0,0,1-24.8-11.626l-2.966-1.934c-.991-.646-1.917-1.448-2.881-2.17l-2.866-2.228-2.576-2.386-1.289-1.2-.648-.6-.32-.3c0,.007-.188-.175-.223-.218l-.152-.17-2.436-2.7c-.791-.921-1.672-1.768-2.393-2.752l-2.208-2.927a90.663,90.663,0,0,1-7.675-12.581c-1.036-2.231-2.133-4.453-3.089-6.725-.931-2.281-1.917-4.554-2.753-6.866-3.522-9.2-6.446-18.609-10.508-27.427l-1.534-3.3c-.533-1.086-1.134-2.13-1.7-3.2a71.691,71.691,0,0,0-3.7-6.2c-.325-.5-.631-1.027-.976-1.512l-1.064-1.412-2.125-2.829c-1.484-1.833-3.339-3.743-4.816-5.444a80.242,80.242,0,0,0-23.432-16.232c-8.646-4.142-17.87-7.122-26.9-10.714-2.265-.854-4.5-1.859-6.731-2.809-2.23-.974-4.41-2.091-6.6-3.149a88.063,88.063,0,0,1-12.363-7.845,78.032,78.032,0,0,1-19.179-21.349c-4.981-8.107-8.456-16.8-11.4-25.288-2.984-8.486-5.7-16.775-9.214-24.416-.446-.952-.841-1.927-1.322-2.848s-.964-1.838-1.444-2.75a59.333,59.333,0,0,0-3.081-5.3c-.548-.847-1.031-1.756-1.63-2.546s-1.176-1.6-1.76-2.388-1.144-1.594-1.765-2.367q-1-1.131-1.988-2.254a75,75,0,0,0-17.254-14.492,127.534,127.534,0,0,0-18.806-9.048c-6.18-2.506-12.158-4.648-17.689-6.957-11.1-4.513-20.258-9.881-26.841-15.576a79.346,79.346,0,0,1-8.16-8.156,71.349,71.349,0,0,1-5.161-6.816c-1.339-1.9-2.205-3.456-2.818-4.489Z" transform="translate(-270.097 -17.681)" fill="#272a30"/>
        <path id="Path_1274" data-name="Path 1274" d="M279.97,17.681s.388.45,1.141,1.321c.378.436.846.979,1.4,1.622l2.04,2.122c.743.828,1.685,1.622,2.7,2.544,1.024.9,2.11,1.934,3.339,2.967l4.123,3.1c1.459,1.1,3.169,2.065,4.886,3.2s3.695,2.049,5.669,3.161c2.023,1.032,4.2,2,6.446,3.027q6.852,2.883,15,5.715c5.407,1.943,11.2,3.929,17.181,6.488A94.19,94.19,0,0,1,361.809,63c1.422,1.111,2.906,2.18,4.323,3.362l4.123,3.783.523.479c.25.253.34.366.516.557l.944,1.036c.631.691,1.262,1.386,1.9,2.084a50.672,50.672,0,0,1,3.662,4.532,97.762,97.762,0,0,1,11.777,21.179c3.229,7.653,5.892,15.71,9,23.687,3.126,7.959,6.661,15.924,11.655,23.083,1.324,1.725,2.593,3.5,3.972,5.205,1.454,1.586,2.956,3.339,4.383,4.808,1.665,1.508,3.3,3.133,5,4.566,1.755,1.3,3.394,2.726,5.246,3.954,7.337,5.061,15.644,8.766,24.253,12.035s17.569,6.234,26.21,10.386a83.057,83.057,0,0,1,23.785,16.527l2.443,2.73c.786.905,1.6,1.737,2.358,2.7l2.235,2.986a35.879,35.879,0,0,1,2.14,3.029c1.264,2.092,2.691,4.094,3.767,6.282l1.717,3.23c.568,1.075,1.031,2.2,1.549,3.293,4.073,8.813,6.969,17.955,10.185,26.73s6.841,17.247,11.8,24.728c1.209,1.89,2.636,3.606,3.932,5.41,1.4,1.725,2.926,3.322,4.373,4.985l.275.309c.055.065-.025-.017.083.086l.155.144.618.579,1.232,1.154,2.461,2.305c1.672,1.405,3.377,2.663,5.049,4,7.014,5.1,14.831,8.689,22.633,11.877,7.825,3.169,15.727,5.885,23.232,9.177a95.026,95.026,0,0,1,20.751,12,77.857,77.857,0,0,1,8.571,7.744q1.84,2.085,3.647,4.133c1.156,1.438,2.225,2.975,3.322,4.434a97.257,97.257,0,0,1,9.87,18.281c2.511,6.1,4.458,12.009,6.363,17.52q2.786,8.292,5.6,15.294c1.009,2.293,1.955,4.511,2.969,6.571,1.091,2.017,1.988,4.028,3.1,5.782s2.047,3.491,3.134,4.985,2.1,2.9,3.044,4.209c1.011,1.251,2.015,2.353,2.9,3.4s1.68,1.994,2.5,2.755q1.179,1.18,2.082,2.08l1.587,1.426,1.294,1.163s-.453-.38-1.334-1.115c-.441-.369-.991-.828-1.642-1.373q-.931-.863-2.155-2c-.839-.73-1.664-1.678-2.6-2.676s-1.975-2.085-3.036-3.31l-3.209-4.131c-1.136-1.479-2.128-3.206-3.3-4.947s-2.128-3.743-3.284-5.756c-1.076-2.053-2.09-4.265-3.169-6.555-2.023-4.642-4.033-9.74-6.033-15.218-2.047-5.459-4.143-11.295-6.768-17.225a98.38,98.38,0,0,0-9.917-17.634c-1.071-1.376-2.083-2.8-3.226-4.178q-1.836-2.017-3.71-4.073a75.684,75.684,0,0,0-8.313-7.254,91.807,91.807,0,0,0-20.29-11.279c-7.4-3.106-15.294-5.676-23.3-8.761a104.654,104.654,0,0,1-23.532-12.128c-1.807-1.419-3.695-2.814-5.452-4.284l-2.471-2.29-1.242-1.149-.618-.575-.155-.143c.005.007-.183-.172-.215-.213l-.293-.323c-1.539-1.74-3.156-3.424-4.641-5.233-1.379-1.89-2.891-3.7-4.173-5.679-5.267-7.849-9.079-16.654-12.375-25.53s-6.218-17.884-10.188-26.347c-.506-1.051-.959-2.134-1.509-3.159l-1.655-3.072c-1.034-2.092-2.4-3.963-3.6-5.945a32.907,32.907,0,0,0-1.993-2.788l-2.05-2.726c-1.477-1.754-3.232-3.606-4.656-5.236a78.768,78.768,0,0,0-22.483-15.777c-8.3-4.049-17.124-7.017-25.84-10.388s-17.342-7.251-25.036-12.621c-1.945-1.3-3.762-2.881-5.632-4.308-1.762-1.507-3.342-3.09-5.016-4.626-1.72-1.771-3.136-3.47-4.706-5.2-1.442-1.8-2.773-3.678-4.153-5.5A108.069,108.069,0,0,1,395.2,125.032c-3.026-8.158-5.549-16.21-8.6-23.754a94.94,94.94,0,0,0-11.046-20.671,71.2,71.2,0,0,0-15.214-15.564,95.745,95.745,0,0,0-17.3-10.12c-5.817-2.678-11.539-4.812-16.891-6.9-5.374-2.041-10.375-4.092-14.926-6.152-2.245-1.1-4.415-2.134-6.43-3.231-1.972-1.18-3.935-2.156-5.645-3.346s-3.4-2.2-4.851-3.362-2.8-2.261-4.06-3.279c-1.2-1.081-2.245-2.146-3.239-3.087-.974-.952-1.9-1.8-2.623-2.654q-1.119-1.247-1.967-2.2c-.533-.663-.984-1.22-1.344-1.67Z" transform="translate(-260.566 -17.681)" fill="#272a30"/>
        <path id="Path_1275" data-name="Path 1275" d="M287.344,17.681s1.767,1.422,5.141,4A97.109,97.109,0,0,0,308.43,30.6c7.176,3.266,16.27,6.2,26.608,10.037a124.187,124.187,0,0,1,16.1,7.189c1.352.787,2.793,1.455,4.118,2.371q2.02,1.324,4.083,2.682l3.967,3.066,1,.78.941.866q.946.868,1.9,1.749t1.92,1.768l1.792,1.96q.879.964,1.767,1.938a20.8,20.8,0,0,1,1.73,2.044q1.656,2.18,3.347,4.4,1.494,2.329,3.014,4.7A131.043,131.043,0,0,1,390.5,97.11c2.821,7.387,5.384,15.045,8.6,22.535a92.393,92.393,0,0,0,12.283,21.332,22.61,22.61,0,0,0,2,2.4l2.1,2.326,1.051,1.168,1.111,1.039,2.373,2.2A55.5,55.5,0,0,0,424.9,154.1a62.593,62.593,0,0,0,5.227,3.578c7.216,4.545,15.254,7.9,23.542,10.951,8.278,3.083,16.828,6.012,25.071,10.06A81.385,81.385,0,0,1,501.4,194.672l4.608,5.171c1.412,1.909,2.889,3.793,4.23,5.734,1.211,2,2.551,3.929,3.654,5.982,1.059,2.075,2.278,4.078,3.187,6.213,3.97,8.4,6.843,17.123,9.867,25.565,2.994,8.452,6.283,16.644,10.738,24,1.174,1.792,2.188,3.7,3.525,5.351a56.973,56.973,0,0,0,3.922,4.99l2.1,2.357.989,1.11,1.177,1.1,2.343,2.194,1.169,1.1c.393.349.8.637,1.2.96l2.406,1.879a24.1,24.1,0,0,0,2.471,1.8l2.566,1.69a26.193,26.193,0,0,0,2.608,1.6,115.361,115.361,0,0,0,10.816,5.5c7.347,3.281,14.856,5.9,22.1,8.771a126.259,126.259,0,0,1,20.558,9.976,75.715,75.715,0,0,1,16.488,13.844q.849.961,1.687,1.907l.836.947.771,1.032q1.536,2.061,3.034,4.075,1.329,2.105,2.631,4.162c.9,1.354,1.557,2.819,2.325,4.2a129.038,129.038,0,0,1,7.049,16.426c3.765,10.541,6.641,19.814,9.842,27.13a100.465,100.465,0,0,0,8.753,16.264c2.521,3.434,3.917,5.239,3.917,5.239s-1.457-1.745-4.113-5.1a94.175,94.175,0,0,1-9.342-16.045c-3.422-7.268-6.576-16.529-10.6-26.889a126.9,126.9,0,0,0-7.382-15.981c-.788-1.324-1.474-2.735-2.363-4.039q-1.3-1.974-2.618-4-1.464-1.9-2.954-3.834l-.748-.971L634,335.16q-.856-.935-1.72-1.876a72.878,72.878,0,0,0-16.12-13.074,123.215,123.215,0,0,0-20.23-9.383c-7.212-2.721-14.8-5.214-22.388-8.445A88.888,88.888,0,0,1,551.6,289.467c-.43-.344-.888-.67-1.292-1.027l-1.176-1.086-2.353-2.183-1.184-1.1c-.5-.517-.776-.85-1.177-1.285l-2.228-2.47a60.243,60.243,0,0,1-4.165-5.238c-1.417-1.744-2.5-3.728-3.74-5.609-4.718-7.7-8.158-16.179-11.221-24.677-3.1-8.5-5.98-17.06-9.84-25.115-.889-2.06-2.063-3.944-3.081-5.925-1.064-1.953-2.341-3.762-3.5-5.655-1.257-1.792-2.6-3.486-3.895-5.241l-4.481-5a77.062,77.062,0,0,0-21.4-15.256c-7.9-3.937-16.3-6.877-24.631-10.032-8.335-3.125-16.651-6.633-24.2-11.443a66.5,66.5,0,0,1-5.522-3.829,60.754,60.754,0,0,1-5.141-4.255l-2.36-2.214-1.239-1.172-1.1-1.235-2.2-2.463a24.585,24.585,0,0,1-2.093-2.536,91.658,91.658,0,0,1-12.616-22.33c-3.166-7.739-5.612-15.474-8.283-22.825a127.887,127.887,0,0,0-9.2-20.631q-1.431-2.314-2.834-4.587-1.562-2.128-3.1-4.219a19.359,19.359,0,0,0-1.655-2.029q-.871-.989-1.735-1.969-.845-.956-1.68-1.905-.92-.874-1.827-1.738t-1.812-1.723l-.9-.854-.956-.771q-1.923-1.536-3.795-3.035-1.982-1.353-3.922-2.673c-1.279-.907-2.661-1.611-3.957-2.412A122.544,122.544,0,0,0,334.447,42.2c-10.163-4.1-19.244-7.315-26.37-10.8a91.826,91.826,0,0,1-15.742-9.531C289.056,19.169,287.344,17.681,287.344,17.681Z" transform="translate(-249.482 -17.681)" fill="#272a30"/>
        <path id="Path_1276" data-name="Path 1276" d="M296.509,17.681l1.392.706c.931.441,2.263,1.215,4.093,2,3.589,1.732,9.041,3.834,16.037,6.342,6.976,2.541,15.632,5.238,25.054,9.8a86.823,86.823,0,0,1,14.263,8.709c1.151.931,2.34,1.848,3.5,2.828q1.671,1.559,3.379,3.156c1.186,1.16,2.128,2.292,3.222,3.46q.792.871,1.6,1.752c.521.612,1,1.288,1.507,1.936C378.919,68.661,384.2,82.1,389.2,96.013a192.44,192.44,0,0,0,8.608,20.879,80.049,80.049,0,0,0,13.1,19.018l.984,1.094.248.271c.1.1,0,.017.065.074l.14.127.553.514,2.22,2.056c.746.672,1.474,1.414,2.24,2.029l2.315,1.785,2.323,1.793,2.5,1.629L427,148.915l2.636,1.457c7.039,3.91,14.706,6.864,22.543,9.74s15.882,5.746,23.612,9.673a81.117,81.117,0,0,1,21.231,15.3l4.35,4.87c1.367,1.742,2.7,3.577,4.035,5.363,1.219,1.85,2.356,3.733,3.532,5.6l3.091,5.818c3.85,7.881,6.658,16.089,9.487,24.076s5.717,15.811,9.549,22.988a76.666,76.666,0,0,0,14.155,19.08l2.19,2.055a21.768,21.768,0,0,0,2.215,1.924c1.527,1.151,2.954,2.391,4.533,3.468,1.61,1.043,3.179,2.134,4.8,3.126l4.944,2.8a184.275,184.275,0,0,0,20.476,8.78c6.823,2.591,13.527,5.147,19.785,8.213a82.7,82.7,0,0,1,17.1,10.773c.631.514,1.287.993,1.89,1.525q.879.835,1.747,1.659c1.156,1.124,2.315,2.127,3.427,3.315l3.044,3.394c.966,1.191,1.88,2.412,2.8,3.6a89.339,89.339,0,0,1,8.543,14.55c4.471,9.61,7.116,18.432,9.607,25.551,2.461,7.131,4.521,12.69,6.22,16.354.773,1.866,1.529,3.219,1.962,4.169l.691,1.422-.746-1.393c-.468-.931-1.279-2.257-2.125-4.094a167.763,167.763,0,0,1-6.811-16.156c-2.7-7.048-5.6-15.782-10.278-25.1a86.851,86.851,0,0,0-8.748-13.961q-1.359-1.667-2.756-3.374-1.536-1.649-3.1-3.339c-1.009-1.039-2.215-2.056-3.332-3.1q-.856-.783-1.717-1.572c-.593-.508-1.234-.96-1.855-1.445a80.112,80.112,0,0,0-16.766-10.137c-6.16-2.881-12.8-5.281-19.679-7.747a187.372,187.372,0,0,1-21.006-8.565q-2.583-1.4-5.2-2.821c-1.7-1.027-3.351-2.159-5.044-3.243-1.672-1.127-3.254-2.47-4.9-3.711a23.416,23.416,0,0,1-2.3-1.977l-2.2-2.041a80.427,80.427,0,0,1-15.064-20.025c-4.045-7.471-7.059-15.495-9.937-23.495s-5.69-16.021-9.427-23.555l-2.984-5.535c-1.126-1.754-2.223-3.544-3.372-5.272-1.249-1.634-2.44-3.279-3.722-4.91l-4.233-4.705a76.84,76.84,0,0,0-20.025-14.593c-7.389-3.812-15.256-6.676-23.1-9.615s-15.714-6.007-23.039-10.132l-2.743-1.539-2.628-1.732-2.618-1.728-2.506-1.953-2.488-1.957c-.806-.663-1.5-1.379-2.25-2.063l-2.208-2.072-.551-.515-.138-.129a2.255,2.255,0,0,1-.2-.2l-.258-.287-1.031-1.156a80,80,0,0,1-13.544-20.052,196.1,196.1,0,0,1-8.4-21.418c-2.418-7.014-4.773-13.787-7.6-20.068A82.4,82.4,0,0,0,368.654,60a76.837,76.837,0,0,0-26.3-21.968c-9.141-4.765-17.71-7.729-24.618-10.475a160.966,160.966,0,0,1-15.847-6.945c-1.8-.864-3.1-1.687-4.015-2.164Z" transform="translate(-235.706 -17.681)" fill="#272a30"/>
        <path id="Path_1277" data-name="Path 1277" d="M308.939,17.681l5.272,1.819c3.424,1.223,8.508,2.872,14.756,5.6a86.323,86.323,0,0,1,21.2,12.587c1.782,1.635,3.662,3.193,5.527,5.045q1.292,1.394,2.618,2.828.661.716,1.334,1.443c.438.5.836,1.06,1.259,1.592q1.258,1.626,2.543,3.293c.841,1.125,1.542,2.345,2.333,3.535,1.63,2.357,2.916,4.987,4.378,7.591a178.893,178.893,0,0,1,7.287,17.068c2.228,5.987,4.406,12.19,6.966,18.383a97.593,97.593,0,0,0,9.419,18.1,48.246,48.246,0,0,0,3.056,4.21l1.582,2.087,1.76,1.951,1.77,1.955.886.983.934.862,4.023,3.7a84.887,84.887,0,0,0,18.31,11.379c6.668,3.128,13.757,5.643,20.931,8.309a164.535,164.535,0,0,1,21.447,9.264A81.584,81.584,0,0,1,487.744,175.5l3.983,4.447c1.294,1.481,2.476,3.23,3.712,4.836a84.954,84.954,0,0,1,6.27,10.312,171.317,171.317,0,0,1,9.084,21.868c2.613,7.318,5.089,14.541,8.153,21.342a86.723,86.723,0,0,0,11.216,18.735,78.865,78.865,0,0,0,15.389,14.219,94.462,94.462,0,0,0,17.745,9.6c6.073,2.613,12.153,4.832,18.025,7.1a171.562,171.562,0,0,1,16.738,7.433c2.556,1.491,5.134,2.805,7.447,4.463,1.167.807,2.368,1.529,3.462,2.379q1.626,1.3,3.209,2.57c.521.43,1.061.83,1.557,1.278.481.464.961.922,1.434,1.381q1.423,1.368,2.808,2.7c1.817,1.908,3.309,3.781,4.9,5.585A88.669,88.669,0,0,1,635.242,337.4c2.671,6.375,4.288,11.556,5.487,15.048,1.161,3.506,1.782,5.377,1.782,5.377l-2.007-5.293c-1.327-3.443-3.224-8.52-6.05-14.775a87.531,87.531,0,0,0-12.8-20.872,79.408,79.408,0,0,0-24.723-19.223,169.722,169.722,0,0,0-16.6-6.973c-5.875-2.14-12.027-4.246-18.265-6.78a97.835,97.835,0,0,1-18.538-9.574,79.155,79.155,0,0,1-16.368-14.751,90.818,90.818,0,0,1-11.955-19.5c-3.259-7.007-5.822-14.346-8.433-21.621a167.086,167.086,0,0,0-8.909-21.279,81.256,81.256,0,0,0-5.952-9.728c-1.164-1.484-2.163-3.01-3.444-4.472l-3.852-4.293a77.2,77.2,0,0,0-18.138-13.511,159.885,159.885,0,0,0-20.864-9.087c-7.136-2.659-14.33-5.281-21.2-8.6a88.261,88.261,0,0,1-19.191-12.25q-2.005-1.878-3.99-3.745l-1.049-1-.929-1.041-1.845-2.079-1.827-2.075-1.637-2.213a52.724,52.724,0,0,1-3.121-4.482,101.207,101.207,0,0,1-9.387-18.9c-2.488-6.361-4.551-12.635-6.651-18.625a176.41,176.41,0,0,0-6.841-16.926c-1.377-2.558-2.581-5.157-4.118-7.471-.746-1.166-1.414-2.383-2.2-3.473s-1.567-2.161-2.338-3.221c-.393-.527-.751-1.07-1.164-1.577q-.65-.75-1.289-1.488l-2.528-2.91c-1.67-1.764-3.522-3.413-5.194-5.05a85.234,85.234,0,0,0-20.5-13.071c-6.133-2.881-11.114-4.815-14.491-6.169Z" transform="translate(-217.022 -17.681)" fill="#272a30"/>
        <path id="Path_1278" data-name="Path 1278" d="M322.161,17.681l4.473,2.264a81.934,81.934,0,0,1,11.937,7.732c1.227.928,2.378,2.08,3.67,3.2l1.952,1.744c.691.642,1.244,1.312,1.892,1.988a75.473,75.473,0,0,1,7.642,9.36,92.375,92.375,0,0,1,6.919,11.949q.792,1.644,1.6,3.333.728,1.721,1.472,3.485c1.029,2.343,1.9,4.791,2.884,7.268,3.785,9.914,7.267,20.9,13.119,31.282l1.076,1.962,1.219,1.888c.831,1.247,1.589,2.56,2.5,3.776s1.847,2.41,2.781,3.626l.7.91.779.849,1.562,1.7,1.569,1.713.393.429a4.3,4.3,0,0,0,.368.35l.884.806q1.761,1.621,3.544,3.26a82.812,82.812,0,0,0,7.6,5.555c10.688,7.119,23.534,11.087,36.4,15.993a126.435,126.435,0,0,1,19.109,8.766,83.518,83.518,0,0,1,17.074,13.04,85.107,85.107,0,0,1,12.791,17.409,131.7,131.7,0,0,1,8.6,19.487c2.418,6.569,4.588,13.1,7.026,19.382a101.571,101.571,0,0,0,8.661,17.728,83.781,83.781,0,0,0,5.5,7.808q1.57,1.77,3.119,3.52l.771.88c.1.119.305.359.335.374l.433.412,1.72,1.641,1.712,1.63.854.813.884.7,3.512,2.8c1.179.912,2.476,1.7,3.695,2.542l1.852,1.24,1.922,1.1c10.185,5.966,20.953,9.522,30.675,13.38,2.431,1,4.831,1.891,7.129,2.941q1.727.758,3.417,1.5,1.656.827,3.272,1.63a90.513,90.513,0,0,1,11.717,7.057,79.069,79.069,0,0,1,15.96,15.447,83.321,83.321,0,0,1,7.592,12.185c1.449,2.975,2.22,4.563,2.22,4.563l-2.431-4.446a91.427,91.427,0,0,0-8.027-11.719,77.573,77.573,0,0,0-16.24-14.636c-7.011-4.7-15.725-8.551-25.477-12.137-9.735-3.625-20.681-6.942-31.381-12.885l-2.017-1.1-1.955-1.247c-1.3-.857-2.646-1.63-3.925-2.575l-3.832-2.924-.961-.74-.871-.794-1.747-1.594-1.755-1.6-.44-.4a6.645,6.645,0,0,1-.483-.5l-.831-.9q-1.648-1.827-3.322-3.668a87.345,87.345,0,0,1-5.875-8.144c-7.424-11.394-11.647-24.811-16.408-37.724a127.018,127.018,0,0,0-8.385-18.834A80.3,80.3,0,0,0,474.14,169.1a79.082,79.082,0,0,0-16.088-12.372,122.274,122.274,0,0,0-18.47-8.548c-12.663-4.863-25.822-9.165-36.994-16.735a85.437,85.437,0,0,1-8.047-6.045q-1.757-1.662-3.5-3.307l-.866-.826c-.168-.167-.235-.2-.486-.481l-.405-.46-1.609-1.835-1.6-1.824-.8-.909-.718-.971q-1.423-1.943-2.828-3.862c-.916-1.292-1.685-2.676-2.521-4l-1.222-1.994-1.076-2.056c-5.83-10.912-9.084-22.069-12.636-32-3.519-9.945-7.294-18.831-11.9-25.982a74.31,74.31,0,0,0-7.184-9.46c-.606-.68-1.191-1.433-1.782-2.012-.638-.61-1.257-1.2-1.862-1.787-1.232-1.144-2.333-2.326-3.514-3.286a89.456,89.456,0,0,0-11.507-8.2Z" transform="translate(-197.148 -17.681)" fill="#272a30"/>
        <path id="Path_1279" data-name="Path 1279" d="M332.014,17.681l3.595,2.912a76.45,76.45,0,0,1,9.094,9.453q1.314,1.69,2.766,3.558,1.3,1.974,2.713,4.13c.238.359.476.723.718,1.089.213.383.431.77.648,1.16l1.337,2.386c.951,1.6,1.762,3.348,2.633,5.138,3.484,7.163,6.541,15.627,9.912,24.728,1.757,4.514,3.552,9.239,5.85,13.875,1.054,2.371,2.393,4.624,3.662,6.964.631,1.173,1.422,2.25,2.133,3.391a40.025,40.025,0,0,0,2.28,3.353c.826,1.077,1.662,2.161,2.5,3.252l.628.819.7.763,1.407,1.529L386,107.721l.706.771.178.194c-.053-.046.1.091.14.127l.4.364q1.6,1.448,3.2,2.915a33.108,33.108,0,0,0,3.319,2.69c1.144.831,2.2,1.766,3.414,2.542l3.652,2.36c1.2.819,2.546,1.438,3.82,2.173,10.315,5.726,22.19,9.187,34,13.884a128.4,128.4,0,0,1,17.464,8.385,86.982,86.982,0,0,1,8.108,5.633,39.579,39.579,0,0,1,3.812,3.175l3.715,3.46a88.455,88.455,0,0,1,11.892,15.8A133.208,133.208,0,0,1,492.048,190c4.613,12.046,8,24.151,13.619,34.671a76.188,76.188,0,0,0,21.627,25.984,39.051,39.051,0,0,0,3.277,2.319c1.119.721,2.175,1.532,3.327,2.173,2.29,1.294,4.5,2.659,6.828,3.735,4.548,2.343,9.176,4.171,13.6,5.966,4.458,1.747,8.773,3.338,12.841,5,2.03.84,4.015,1.634,5.912,2.515,1.905.847,3.755,1.668,5.5,2.591,1.755.886,3.467,1.716,5.036,2.685.8.462,1.574.919,2.343,1.364l1.136.663c.358.246.716.49,1.066.728q2.114,1.448,4.05,2.769,1.825,1.477,3.479,2.814a76.154,76.154,0,0,1,9.277,9.278l2.856,3.671-3.031-3.5a84.293,84.293,0,0,0-9.637-8.758q-1.678-1.25-3.534-2.637-1.96-1.229-4.1-2.568c-.355-.223-.713-.45-1.076-.675l-1.146-.61-2.355-1.251c-1.58-.892-3.3-1.642-5.064-2.446-7.061-3.216-15.377-5.957-24.423-9.249-4.508-1.7-9.237-3.434-13.965-5.724-2.406-1.044-4.726-2.4-7.124-3.678-1.2-.636-2.328-1.446-3.507-2.171a41.469,41.469,0,0,1-3.487-2.347q-1.708-1.3-3.434-2.613l-.864-.661-.781-.711-1.57-1.429-1.582-1.436-.794-.723-.2-.18a2.714,2.714,0,0,1-.248-.256l-.373-.405q-1.494-1.628-3.009-3.276a37.216,37.216,0,0,1-2.851-3.479c-.888-1.22-1.882-2.378-2.7-3.666l-2.473-3.874c-.856-1.283-1.507-2.688-2.276-4.037a135.575,135.575,0,0,1-7.612-17.166c-2.253-5.89-4.278-11.91-6.558-17.8a128.918,128.918,0,0,0-7.985-17.141,83.723,83.723,0,0,0-11.414-15.014l-3.352-3.125a36.414,36.414,0,0,0-3.582-3.008,82.807,82.807,0,0,0-7.644-5.361,124.4,124.4,0,0,0-16.809-8.144c-5.782-2.323-11.682-4.4-17.462-6.693a130.042,130.042,0,0,1-16.833-7.759c-1.322-.783-2.7-1.445-3.957-2.317l-3.8-2.522c-1.262-.833-2.431-1.862-3.632-2.786a37.051,37.051,0,0,1-3.4-2.907q-1.577-1.5-3.136-2.994l-.391-.371-.248-.244-.183-.208-.723-.828-1.447-1.649-1.432-1.635-.713-.816-.638-.873q-1.273-1.742-2.531-3.46c-.881-1.117-1.54-2.369-2.3-3.546-.708-1.2-1.5-2.348-2.128-3.575-1.257-2.446-2.583-4.812-3.607-7.263-2.245-4.82-3.947-9.644-5.615-14.241-3.232-9.221-5.917-17.7-9.071-24.9-.791-1.8-1.524-3.554-2.4-5.162q-.623-1.224-1.227-2.4-.3-.59-.6-1.17-.338-.554-.663-1.1L346.625,34.2q-1.356-1.886-2.578-3.6l-1.2-1.663q-.653-.76-1.271-1.474-1.224-1.438-2.29-2.692a27.683,27.683,0,0,0-2.058-2.209q-.98-.987-1.775-1.793Z" transform="translate(-182.338 -17.681)" fill="#272a30"/>
        <path id="Path_1280" data-name="Path 1280" d="M339.741,17.681,342.519,21c.441.551.991,1.122,1.489,1.835s1.056,1.488,1.65,2.326,1.279,1.723,1.887,2.735,1.249,2.094,1.93,3.233a132.5,132.5,0,0,1,8.188,17.336c2.763,6.871,5.467,14.768,9,23.052,3.574,8.234,8.128,16.924,14.976,24.416q1.284,1.394,2.591,2.805l.325.354.08.089c-.08-.077.03.026.038.029l.18.165.731.663,1.464,1.333c.989.864,1.95,1.843,2.979,2.63l3.1,2.347c.526.387,1.024.8,1.574,1.168l1.685,1.07c1.131.711,2.238,1.464,3.389,2.164,2.385,1.266,4.706,2.688,7.234,3.8,9.91,4.831,21.011,8.031,32.007,12.592a108.225,108.225,0,0,1,16.173,8.122,82.59,82.59,0,0,1,14.458,11.472l3.076,3.439,1.5,1.689,1.417,1.89c.929,1.264,1.912,2.506,2.788,3.795l2.468,3.927a111.925,111.925,0,0,1,7.965,16.495c4.481,11.209,7.612,22.531,12.35,32.634A79.549,79.549,0,0,0,519.5,236.494c7.312,6.947,15.85,11.613,23.92,15.253,8.123,3.6,15.87,6.356,22.606,9.178a127.667,127.667,0,0,1,17,8.349q1.678,1.041,3.169,1.972c.994.62,1.845,1.328,2.678,1.919q1.235.91,2.28,1.683c.7.509,1.262,1.07,1.8,1.52,2.125,1.848,3.257,2.836,3.257,2.836l-3.4-2.644c-.566-.416-1.154-.941-1.877-1.407s-1.5-.986-2.355-1.541-1.74-1.187-2.753-1.754-2.088-1.177-3.221-1.817a126.2,126.2,0,0,0-17.164-7.545c-6.806-2.5-14.661-4.911-23-8.409-8.3-3.494-17.229-8.038-25.129-15.165a79.775,79.775,0,0,1-19.612-26.6c-5.006-10.426-8.415-21.78-12.793-32.7a107.529,107.529,0,0,0-7.717-15.821l-2.35-3.712c-.824-1.194-1.72-2.309-2.573-3.468l-1.292-1.728-1.5-1.678-2.951-3.285a78.447,78.447,0,0,0-13.6-10.881,103.767,103.767,0,0,0-15.514-7.868c-10.708-4.473-21.847-7.942-32.07-13.047-2.591-1.18-5.011-2.7-7.469-4.051-1.194-.752-2.355-1.544-3.517-2.319l-1.732-1.168c-.573-.4-1.111-.868-1.662-1.3l-3.267-2.616c-1.069-.871-1.962-1.831-2.941-2.735l-1.432-1.369-.713-.682-.178-.17-.143-.139-.083-.094-.333-.38q-1.325-1.507-2.636-3c-6.956-8.021-11.432-17.144-14.853-25.6-3.432-8.5-5.792-16.507-8.248-23.447a131.282,131.282,0,0,0-7.4-17.5q-.946-1.737-1.782-3.285c-.558-1.034-1.189-1.927-1.717-2.8q-.819-1.3-1.512-2.4c-.456-.739-.976-1.34-1.384-1.915C340.642,18.89,339.741,17.681,339.741,17.681Z" transform="translate(-170.723 -17.681)" fill="#272a30"/>
        <path id="Path_1281" data-name="Path 1281" d="M346.3,17.681s.746,1.2,2.15,3.463A104.8,104.8,0,0,1,353.8,31.386c2.053,4.545,4.263,10.192,6.713,16.672,1.232,3.238,2.548,6.674,4.02,10.247.733,1.788,1.544,3.59,2.33,5.454.886,1.812,1.7,3.714,2.7,5.562a78.168,78.168,0,0,0,15.89,21.49,60.51,60.51,0,0,0,5.517,4.729l2.874,2.185c1.016.68,2.07,1.328,3.111,2a97.958,97.958,0,0,0,13.449,7.048c9.5,4.147,19.907,7.227,30.2,11.654a87.825,87.825,0,0,1,28.583,18.719l2.891,3.233,1.409,1.58c.473.526.9,1.163,1.344,1.738l2.648,3.549c.841,1.2,1.562,2.45,2.348,3.673,1.622,2.408,2.836,5.035,4.225,7.555,1.181,2.609,2.483,5.172,3.494,7.818,4.348,10.494,7.364,21.105,11.432,30.8A86.524,86.524,0,0,0,514.615,222.5l1.166,1.337,1.247,1.208q1.288,1.247,2.561,2.475c.859.775,1.74,1.46,2.6,2.187s1.692,1.455,2.618,2.085c1.8,1.319,3.567,2.627,5.422,3.731,1.8,1.2,3.664,2.2,5.484,3.2s3.677,1.85,5.454,2.754c1.827.806,3.594,1.629,5.349,2.374,3.5,1.5,6.871,2.845,10.048,4.1,6.355,2.5,11.892,4.757,16.348,6.851a101.448,101.448,0,0,1,10.045,5.452l3.394,2.194-3.514-1.979c-2.3-1.276-5.78-2.931-10.268-4.86-4.518-1.878-10.108-3.865-16.568-6.076-6.438-2.254-13.81-4.666-21.437-8.495-1.9-.969-3.85-1.938-5.747-3.109-1.95-1.079-3.822-2.372-5.737-3.681a34.227,34.227,0,0,1-2.823-2.12c-.924-.747-1.9-1.482-2.8-2.261q-1.3-1.2-2.613-2.415l-1.367-1.264-1.254-1.364A87.023,87.023,0,0,1,495.4,198.676c-4.283-9.921-7.562-20.5-11.79-30.677-1-2.58-2.26-5.02-3.407-7.531-1.342-2.393-2.511-4.908-4.058-7.175-.746-1.146-1.447-2.348-2.228-3.456l-2.436-3.233c-.421-.536-.773-1.089-1.246-1.613l-1.417-1.574-2.764-3.075a83.444,83.444,0,0,0-27.121-17.9c-9.98-4.319-20.355-7.658-30.085-12.027A95.337,95.337,0,0,1,395,102.857c-1.074-.73-2.15-1.429-3.2-2.171q-1.528-1.216-3.036-2.42a63.339,63.339,0,0,1-5.537-4.971A78.26,78.26,0,0,1,367.3,70.487c-3.757-7.775-6.12-15.3-8.333-21.858-2.168-6.588-4.118-12.288-5.96-16.893-1.895-4.581-3.512-8.119-4.766-10.469Z" transform="translate(-160.86 -17.681)" fill="#272a30"/>
        <path id="Path_1282" data-name="Path 1282" d="M352.13,17.681s.583,1.2,1.682,3.449c1.056,2.268,2.591,5.621,4.285,9.984,1.732,4.348,3.672,9.7,6.1,15.715a127.416,127.416,0,0,0,9.539,19.4,79.182,79.182,0,0,0,7.252,9.824c.653.826,1.439,1.546,2.153,2.338l1.1,1.172.508.538.613.557c1.647,1.45,3.269,3.084,5.011,4.446a78.952,78.952,0,0,0,11.311,7.526q1.539.832,3.1,1.675L408,95.825c2.133,1.062,4.39,1.946,6.638,2.891,9.039,3.686,18.843,6.648,28.483,10.92a87.344,87.344,0,0,1,26.778,18l2.653,2.968a36.573,36.573,0,0,1,2.6,3.084,73.111,73.111,0,0,1,4.758,6.761,101.473,101.473,0,0,1,7.5,14.347c4.2,9.828,7.094,19.829,10.713,29.043,3.592,9.216,7.882,17.738,13.394,24.792,1.344,1.783,2.884,3.364,4.283,5.023l.533.613.548.543,1.174,1.148c.788.739,1.534,1.572,2.328,2.225a77.764,77.764,0,0,0,9.6,7.366,123.763,123.763,0,0,0,19.019,9.728c5.9,2.475,11.146,4.453,15.412,6.222,4.278,1.728,7.562,3.291,9.79,4.37l3.382,1.716-3.479-1.491c-2.28-.95-5.662-2.228-10-3.772s-9.647-3.274-15.7-5.475a112.373,112.373,0,0,1-19.757-9.086c-1.7-1.065-3.464-2.128-5.149-3.388-1.74-1.165-3.4-2.565-5.119-3.954-.881-.684-1.607-1.445-2.423-2.18l-1.2-1.12-.638-.6-.573-.625c-1.5-1.689-3.149-3.305-4.6-5.133-5.945-7.224-10.676-16.038-14.448-25.424-3.8-9.393-6.936-19.262-11.011-28.781a97.147,97.147,0,0,0-7.231-13.688,70.82,70.82,0,0,0-4.423-6.239,33.272,33.272,0,0,0-2.546-2.986l-2.661-2.962-2.746-2.56a33.82,33.82,0,0,0-2.881-2.554,69.221,69.221,0,0,0-6.18-4.563,94.1,94.1,0,0,0-13.424-7.375c-9.332-4.161-19.011-7.354-28.223-11.233-9.229-3.863-17.8-8.63-24.981-14.772-1.8-1.488-3.314-3.1-4.949-4.611l-.6-.572c-.3-.3-.406-.445-.616-.673l-1.121-1.249c-.731-.842-1.512-1.625-2.168-2.506a82.141,82.141,0,0,1-7.171-10.438,116.672,116.672,0,0,1-8.911-20.143c-2.16-6.17-3.845-11.592-5.372-16.009s-2.768-7.864-3.7-10.19C352.638,18.916,352.13,17.681,352.13,17.681Z" transform="translate(-152.101 -17.681)" fill="#272a30"/>
        <path id="Path_1283" data-name="Path 1283" d="M357.511,17.681l1.387,3.331c.876,2.183,2.18,5.384,3.732,9.488,1.584,4.092,3.492,9.068,6.03,14.588,1.312,2.737,2.716,5.641,4.44,8.551a80.6,80.6,0,0,0,5.827,8.854,70.715,70.715,0,0,0,7.557,8.515q2.238,2.02,4.553,4.1,2.4,1.811,4.876,3.681c6.866,4.779,14.928,8.443,23.512,11.724,8.573,3.327,17.787,6.138,26.776,10.371a84.77,84.77,0,0,1,25.016,17.158c1.649,1.888,3.346,3.652,4.949,5.648l2.34,3.13,1.164,1.565,1.029,1.625,2.035,3.248c.688,1.075,1.221,2.233,1.84,3.341.583,1.127,1.221,2.228,1.755,3.372l1.574,3.434c4.163,9.163,6.911,18.565,10.175,27.3,3.219,8.752,6.816,16.971,11.5,23.974q1.859,2.546,3.657,5.023,2,2.311,3.942,4.551c.558.706,1.377,1.417,2.04,2.116.7.7,1.389,1.415,2.1,2.017q1.055.946,2.09,1.871,1.092.879,2.16,1.742a78.4,78.4,0,0,0,8.678,5.942c2.856,1.757,5.707,3.188,8.388,4.527,5.409,2.589,10.29,4.537,14.3,6.152,4.025,1.586,7.164,2.915,9.3,3.808l3.267,1.414-3.349-1.184c-2.2-.74-5.419-1.828-9.514-3.211-4.093-1.41-9.076-3.1-14.678-5.442a86.938,86.938,0,0,1-17.917-9.924q-1.137-.85-2.3-1.721-1.13-.938-2.278-1.895c-.793-.629-1.484-1.307-2.213-1.979-.726-.708-1.452-1.275-2.2-2.113l-4.243-4.621q-1.945-2.533-3.95-5.141c-5.076-7.175-9.061-15.627-12.428-24.476-3.417-8.84-6.408-18.091-10.421-26.91l-1.534-3.3c-.516-1.1-1.134-2.137-1.7-3.211-.591-1.055-1.1-2.166-1.767-3.178l-1.945-3.066-.974-1.532-1.079-1.424-2.143-2.855c-1.519-1.888-3.3-3.712-4.929-5.574l-2.576-2.4c-.9-.8-1.717-1.7-2.683-2.427l-2.841-2.226-1.422-1.113-1.5-1-3.009-1.984c-.991-.673-2.08-1.2-3.114-1.8-1.054-.572-2.073-1.2-3.151-1.726l-3.234-1.567c-8.646-4.1-17.72-7.141-26.388-10.627-8.681-3.434-16.964-7.5-24-12.672q-2.587-2.067-5.094-4.075-2.257-2.154-4.441-4.243a73.23,73.23,0,0,1-7.6-9.2,89.85,89.85,0,0,1-9.732-18.267c-2.29-5.712-3.955-10.793-5.337-14.964-1.359-4.179-2.423-7.462-3.151-9.7C357.914,18.87,357.511,17.681,357.511,17.681Z" transform="translate(-144.013 -17.681)" fill="#272a30"/>
        <path id="Path_1284" data-name="Path 1284" d="M362.671,17.681l1.244,3.14c.828,2.039,2.043,5.03,3.587,8.837a126.422,126.422,0,0,0,6.4,13.263c1.314,2.518,3.029,4.987,4.766,7.622.911,1.288,1.947,2.529,2.944,3.846.516.646,1,1.333,1.554,1.962q.864.925,1.742,1.871t1.775,1.907l.858.924,1.009.905c1.359,1.2,2.726,2.472,4.143,3.686l4.446,3.339c1.557,1.07,3.221,2.068,4.859,3.128,6.723,4.02,14.39,7.179,22.5,10.144,8.1,2.991,16.706,5.8,25.079,9.876A82.345,82.345,0,0,1,472.8,108.385l2.4,2.685c.771.883,1.564,1.718,2.318,2.64,1.437,1.963,2.986,3.879,4.308,5.889a95.7,95.7,0,0,1,6.916,12.463c4,8.536,6.751,17.316,9.684,25.572a138.135,138.135,0,0,0,9.95,22.942c1.041,1.671,2.015,3.364,3.069,4.961q1.682,2.324,3.314,4.573c1.176,1.429,2.388,2.79,3.549,4.152l.868,1.012.921.892,1.9,1.843q.943.912,1.867,1.8c.623.574,1.282,1.05,1.912,1.574,1.279,1.007,2.483,2.049,3.745,2.977A87.435,87.435,0,0,0,537,209.22,120.816,120.816,0,0,0,550,215.748c7.437,3.193,11.742,4.929,11.742,4.929l-3.161-1.039c-2.06-.68-5.089-1.666-8.9-3.07a122.576,122.576,0,0,1-13.469-5.865,89.362,89.362,0,0,1-7.895-4.544c-1.357-.876-2.661-1.933-4.043-2.934-.676-.521-1.4-1.014-2.058-1.572l-1.935-1.73q-.976-.874-1.975-1.763l-1.044-.941-.944-1.012c-1.256-1.362-2.568-2.728-3.85-4.167l-3.6-4.654c-1.144-1.629-2.205-3.353-3.337-5.069a130.671,130.671,0,0,1-10.776-23.3c-3.066-8.3-6.028-16.862-9.885-25.065a91.455,91.455,0,0,0-6.653-11.844c-1.252-1.876-2.658-3.582-3.975-5.392-1.472-1.713-3.177-3.54-4.586-5.133a77.963,77.963,0,0,0-21.94-15.517c-8.04-3.941-16.44-6.956-24.581-10.084A125.954,125.954,0,0,1,400.3,74.99c-1.685-1.153-3.372-2.23-4.979-3.4l-4.606-3.711c-1.392-1.288-2.7-2.594-4.01-3.857l-.974-.943L384.786,62q-.89-1.036-1.762-2.048t-1.725-2c-.553-.673-1.024-1.4-1.529-2.089-.976-1.4-2-2.714-2.854-4.092a91.653,91.653,0,0,1-4.458-8.048A128.241,128.241,0,0,1,366.7,29.979c-1.377-3.886-2.345-6.973-3.011-9.074Z" transform="translate(-136.257 -17.681)" fill="#272a30"/>
        <path id="Path_1285" data-name="Path 1285" d="M367.807,17.681s.433,1.007,1.247,2.891c.393.948.909,2.106,1.544,3.448s1.327,2.9,2.2,4.6a90.889,90.889,0,0,0,6.919,11.8q1.156,1.592,2.391,3.288,1.337,1.6,2.753,3.293c.926,1.139,2.027,2.168,3.066,3.3.528.527,1.064,1.185,1.6,1.625l1.8,1.61q.909.814,1.842,1.646l.934.835.986.734q1.979,1.469,4.028,3l4.433,2.793c1.5.941,3.134,1.72,4.728,2.606a180.7,180.7,0,0,0,21.344,8.8c7.584,2.759,15.594,5.492,23.354,9.424,1.93,1,3.827,2.094,5.752,3.145q2.767,1.8,5.554,3.616c1.755,1.364,3.532,2.711,5.271,4.1l4.991,4.633,4.343,4.872c1.379,1.787,2.728,3.631,4.085,5.446q1.776,2.84,3.547,5.667c1.029,1.962,2.105,3.9,3.084,5.865,3.865,7.909,6.538,16.081,9.244,23.813a188.845,188.845,0,0,0,8.633,21.765c.871,1.625,1.632,3.29,2.556,4.822s1.842,3.035,2.741,4.516q1.509,2.11,2.969,4.145l.726,1.017.8.933c.533.622,1.064,1.237,1.584,1.843s1.041,1.215,1.552,1.811c.426.55,1.089,1.111,1.614,1.658,1.121,1.07,2.17,2.226,3.272,3.159l3.2,2.785q1.663,1.255,3.224,2.436a88.516,88.516,0,0,0,11.577,7.057c1.662.89,3.189,1.6,4.508,2.244s2.45,1.173,3.379,1.575l2.833,1.271-2.924-1.043c-.959-.33-2.13-.761-3.494-1.307-1.377-.522-2.951-1.142-4.671-1.943a89.461,89.461,0,0,1-12.125-6.454q-1.667-1.113-3.434-2.3-1.7-1.314-3.5-2.7c-1.224-.914-2.265-1.994-3.444-3.025-.581-.557-1.154-.983-1.76-1.663l-1.68-1.8-1.717-1.84-.871-.936-.8-1.015q-1.6-2.051-3.259-4.174-1.472-2.257-3-4.592c-1-1.562-1.845-3.252-2.793-4.911a169.6,169.6,0,0,1-9.372-21.969,239.411,239.411,0,0,0-9.4-23.225c-.949-1.879-1.987-3.714-2.979-5.583q-1.693-2.667-3.392-5.348-1.877-2.481-3.765-4.975l-4.368-4.849-4.541-4.248-4.949-3.9q-2.628-1.737-5.244-3.46c-1.835-1.012-3.632-2.068-5.477-3.039A227.252,227.252,0,0,0,428.29,77.68a163.257,163.257,0,0,1-21.542-9.558c-1.63-.967-3.287-1.823-4.819-2.848s-3.026-2.055-4.5-3.059L393.3,58.859l-1-.819-.9-.873q-.894-.871-1.772-1.721A69.076,69.076,0,0,1,378.35,41.351a92.408,92.408,0,0,1-6.33-12.362c-.786-1.754-1.394-3.362-1.907-4.764-.536-1.393-.959-2.587-1.284-3.563Z" transform="translate(-128.537 -17.681)" fill="#272a30"/>
        <path id="Path_1286" data-name="Path 1286" d="M373.113,17.681s.461.9,1.329,2.592,2.248,4.1,4.078,7.112a80.1,80.1,0,0,0,7.537,10.139c.806.907,1.62,1.86,2.548,2.757l1.377,1.393.35.352.088.089c-.038-.034.045.038.06.053l.19.167.771.675q1.547,1.366,3.166,2.8l.816.723.861.641,1.755,1.3a82.232,82.232,0,0,0,7.67,5.057L410,55.817c1.437.8,3,1.417,4.526,2.151,6.185,2.795,12.979,5.145,20.035,7.7S449,70.906,456.119,74.706a88.3,88.3,0,0,1,10.373,6.447c1.609,1.28,3.294,2.477,4.854,3.834l4.626,4.3,4.023,4.514c1.317,1.563,2.541,3.338,3.8,5a90.158,90.158,0,0,1,6.333,10.589c3.732,7.254,6.355,14.8,8.866,21.985s4.813,14.121,7.552,20.429c.718,1.555,1.329,3.149,2.11,4.614q1.134,2.221,2.238,4.374a84.306,84.306,0,0,0,4.976,7.844q.65.91,1.287,1.8l.633.886.7.814q1.385,1.628,2.706,3.181c.841,1.069,1.782,1.96,2.7,2.92.9.964,1.82,1.778,2.7,2.6a78.678,78.678,0,0,0,9.935,7.679c2.951,1.866,5.324,3.269,6.974,4.159s2.541,1.359,2.541,1.359l-2.643-1.135c-1.715-.766-4.233-1.907-7.309-3.625a79.751,79.751,0,0,1-10.571-7.158c-.966-.79-1.987-1.592-2.926-2.482-.941-.868-2.005-1.762-2.941-2.805a66.5,66.5,0,0,1-5.81-6.621,86.574,86.574,0,0,1-5.509-7.881l-2.473-4.43c-.856-1.493-1.534-3.1-2.323-4.678-3.016-6.385-5.617-13.346-8.213-20.48a185.718,185.718,0,0,0-8.991-21.32,86.047,86.047,0,0,0-6.06-9.993c-1.186-1.525-2.25-3.087-3.532-4.6L472.7,92.331l-4.2-3.93c-1.459-1.292-3.044-2.426-4.556-3.647a83.874,83.874,0,0,0-9.812-6.188,176.635,176.635,0,0,0-20.908-9.17c-7-2.649-13.82-5.3-20.085-8.376-1.549-.807-3.121-1.5-4.588-2.369q-2.2-1.283-4.343-2.524a85.1,85.1,0,0,1-7.75-5.631,65.933,65.933,0,0,1-6.451-5.889l-.728-.723-.18-.179-.12-.124-.088-.1-.338-.387c-.446-.512-.889-1.017-1.322-1.515-.891-.977-1.667-2.006-2.433-2.984a81.367,81.367,0,0,1-7.019-10.769c-1.682-3.138-2.806-5.71-3.554-7.455C373.5,18.619,373.113,17.681,373.113,17.681Z" transform="translate(-120.562 -17.681)" fill="#272a30"/>
        <path id="Path_1287" data-name="Path 1287" d="M378.8,17.681l1.5,2.207c.934,1.472,2.506,3.477,4.481,6.009a70.249,70.249,0,0,0,8,8.314A56.069,56.069,0,0,0,398.3,38.69q1.491,1.087,3.061,2.228,1.656,1.028,3.389,2.1a104.487,104.487,0,0,0,15.765,7.643c5.792,2.324,12.07,4.406,18.558,6.779a134.262,134.262,0,0,1,19.675,8.665l2.43,1.349,2.35,1.527a49.232,49.232,0,0,1,4.628,3.216l2.243,1.735a21.577,21.577,0,0,1,2.178,1.821l4.25,3.944,3.687,4.14a21.786,21.786,0,0,1,1.78,2.213l1.73,2.319a50.2,50.2,0,0,1,3.174,4.745l1.5,2.4,1.324,2.481a138.838,138.838,0,0,1,8.5,20.061c2.325,6.614,4.373,13.013,6.651,18.922a108.66,108.66,0,0,0,7.492,16.074q1.052,1.768,2.06,3.458,1.126,1.61,2.2,3.142a79.592,79.592,0,0,0,8.618,10.183c1.354,1.4,2.731,2.484,3.91,3.577,2.483,2.02,4.453,3.623,5.89,4.573L537.5,179.5s-.8-.459-2.29-1.319a65.208,65.208,0,0,1-6.3-4.085,70.747,70.747,0,0,1-8.831-7.711,58.2,58.2,0,0,1-4.851-5.411c-.8-1-1.63-2.029-2.443-3.106q-1.119-1.688-2.293-3.451c-.388-.593-.781-1.187-1.177-1.79-.355-.625-.716-1.259-1.076-1.9-.711-1.285-1.494-2.57-2.185-3.924-1.352-2.728-2.728-5.564-3.955-8.55-2.528-5.939-4.844-12.315-7.247-18.827a151.025,151.025,0,0,0-8.588-19.333l-1.277-2.357-1.439-2.262a46.767,46.767,0,0,0-2.994-4.417l-1.59-2.111a19.652,19.652,0,0,0-1.7-2.092l-3.715-4.116-3.845-3.6a19.314,19.314,0,0,0-2.043-1.732l-2.105-1.651A45.225,45.225,0,0,0,461.2,72.69l-2.218-1.467-2.313-1.3a143.993,143.993,0,0,0-18.959-8.759c-6.385-2.45-12.636-4.817-18.46-7.392-2.926-1.251-5.71-2.651-8.383-4.033-1.332-.7-2.591-1.5-3.85-2.226l-1.862-1.1q-.886-.606-1.752-1.2-1.731-1.193-3.387-2.338c-1.064-.83-2.08-1.683-3.069-2.506a57.561,57.561,0,0,1-5.274-4.918,71.577,71.577,0,0,1-7.577-9.015,67.579,67.579,0,0,1-4-6.416C379.25,18.494,378.8,17.681,378.8,17.681Z" transform="translate(-112.01 -17.681)" fill="#272a30"/>
        <path id="Path_1288" data-name="Path 1288" d="M385.143,17.681l1.627,1.764c.528.579,1.179,1.3,2,2.067q.608.59,1.3,1.266a17.389,17.389,0,0,0,1.507,1.376c1.106.948,2.333,2,3.665,3.14,1.357,1.113,2.914,2.139,4.511,3.327a95.946,95.946,0,0,0,11.584,6.715c4.466,2.056,9.354,4.125,14.693,6.011,5.309,1.951,11.011,3.776,16.851,6.043a119.221,119.221,0,0,1,17.642,8.192,85.83,85.83,0,0,1,16.1,12.453l3.392,3.81a44.669,44.669,0,0,1,3.194,4.03,82.844,82.844,0,0,1,5.627,8.575,123.291,123.291,0,0,1,8.038,17.986c2.223,5.956,4.017,11.769,5.927,17.185,1.85,5.444,3.88,10.427,5.895,14.981a99.059,99.059,0,0,0,6.588,11.817c1.172,1.639,2.19,3.24,3.272,4.609l3.054,3.712c.894,1.154,1.85,2.024,2.608,2.879s1.457,1.5,2.02,2.039c1.126,1.082,1.727,1.658,1.727,1.658l-1.887-1.474c-.621-.479-1.387-1.07-2.225-1.829a37.7,37.7,0,0,1-2.873-2.647q-1.543-1.577-3.4-3.489c-1.224-1.287-2.35-2.853-3.664-4.439l-.981-1.228c-.3-.44-.6-.886-.909-1.338q-.924-1.363-1.9-2.8a33.783,33.783,0,0,1-1.847-3.047q-.909-1.587-1.852-3.248a145.335,145.335,0,0,1-6.718-14.961c-2.058-5.384-4.228-11.063-6.47-16.936a134.624,134.624,0,0,0-8.1-17.232,78.708,78.708,0,0,0-5.334-8,39.376,39.376,0,0,0-3.034-3.779l-3.282-3.64A81.4,81.4,0,0,0,458.374,61.35a128.779,128.779,0,0,0-16.9-8.259l-16.611-6.6a140.973,140.973,0,0,1-14.671-6.849l-3.187-1.888a32.783,32.783,0,0,1-2.986-1.886q-1.412-.992-2.746-1.936c-.445-.314-.881-.624-1.314-.928l-1.211-1c-1.562-1.345-3.114-2.51-4.363-3.748s-2.37-2.4-3.4-3.439a38.269,38.269,0,0,1-2.608-2.946c-.751-.861-1.324-1.635-1.795-2.266Z" transform="translate(-102.479 -17.681)" fill="#272a30"/>
        <path id="Path_1289" data-name="Path 1289" d="M392.516,17.681l1.7,1.228c.556.4,1.239.895,2.04,1.476l1.294.933,1.529.948q1.607.995,3.552,2.2l4.343,2.314c1.552.813,3.282,1.534,5.054,2.371,1.795.8,3.73,1.549,5.715,2.379,4.04,1.536,8.451,3.08,13.164,4.7s9.712,3.314,14.8,5.423a99.517,99.517,0,0,1,15.277,7.672q1.84,1.219,3.692,2.444c1.219.838,2.358,1.811,3.547,2.714l1.765,1.383c.568.486,1.1,1.012,1.662,1.517l3.367,3.137,2.921,3.269c.483.551.976,1.075,1.452,1.651l1.379,1.824c.9,1.225,1.872,2.414,2.7,3.662q1.2,1.889,2.4,3.764a102.432,102.432,0,0,1,7.529,15.576c2.065,5.188,3.734,10.293,5.319,15.091s3.106,9.3,4.611,13.421c.814,2.027,1.542,4,2.333,5.827.818,1.807,1.527,3.571,2.323,5.155.811,1.58,1.567,3.061,2.268,4.429.786,1.321,1.507,2.537,2.16,3.633q.492.822.931,1.56c.32.466.626.9.909,1.311.568.818,1.051,1.512,1.442,2.077.786,1.13,1.2,1.733,1.2,1.733s-.483-.55-1.392-1.577c-.453-.519-1.014-1.154-1.675-1.9-.328-.378-.683-.782-1.061-1.213q-.511-.693-1.081-1.474c-.763-1.043-1.607-2.2-2.526-3.455-.824-1.326-1.715-2.761-2.668-4.291-.936-1.546-1.787-3.269-2.768-5.049-.946-1.8-1.785-3.752-2.746-5.762-.876-2.039-1.8-4.167-2.7-6.382-.861-2.225-1.757-4.523-2.671-6.889-1.8-4.734-3.7-9.685-5.812-14.7A112.423,112.423,0,0,0,482.225,77q-1.149-1.768-2.3-3.546c-.786-1.168-1.675-2.221-2.506-3.345l-1.269-1.663c-.458-.548-.971-1.082-1.454-1.623l-2.946-3.247-3.021-2.845c-.518-.481-1.019-.983-1.549-1.446l-1.657-1.316c-1.114-.861-2.173-1.792-3.324-2.594q-1.742-1.178-3.477-2.348A107.723,107.723,0,0,0,444.2,45.311c-4.919-2.154-9.775-4.094-14.418-5.923q-3.477-1.4-6.756-2.726c-2.173-.919-4.258-1.859-6.258-2.752-1.97-.983-3.892-1.835-5.652-2.8-1.745-1-3.434-1.867-4.949-2.822s-2.909-1.878-4.21-2.718l-3.4-2.584-1.444-1.1c-.423-.383-.816-.742-1.184-1.077-.731-.672-1.354-1.24-1.86-1.7Z" transform="translate(-91.397 -17.681)" fill="#272a30"/>
        <path id="Path_1290" data-name="Path 1290" d="M401.681,17.681l1.569.7c1.026.445,2.518,1.154,4.455,1.909,1.907.811,4.28,1.668,6.989,2.68,2.731.955,5.822,1.993,9.207,3.116s7.081,2.28,10.958,3.683a128.463,128.463,0,0,1,12.09,4.846,84.012,84.012,0,0,1,12.31,6.875,81.751,81.751,0,0,1,11.312,9.374l2.471,2.728,1.2,1.343,1.164,1.476c.766.988,1.564,1.957,2.29,2.958q1.036,1.518,2.068,3.029a86.059,86.059,0,0,1,6.746,12.551c1.9,4.2,3.412,8.373,4.753,12.331,1.377,3.953,2.52,7.713,3.614,11.173s2.118,6.6,3.054,9.388c.989,2.761,1.832,5.183,2.628,7.134.741,1.979,1.429,3.487,1.867,4.535s.681,1.6.681,1.6-.31-.517-.9-1.486c-.563-.983-1.5-2.371-2.451-4.267-1.021-1.864-2.16-4.176-3.4-6.868q-.9-2.033-1.9-4.317-.942-2.3-1.977-4.832c-1.334-3.365-2.784-7.011-4.313-10.867-1.534-3.836-3.254-7.814-5.189-11.819a96.5,96.5,0,0,0-6.763-11.81q-.988-1.417-1.982-2.843c-.686-.924-1.422-1.788-2.13-2.69l-1.071-1.343-1.214-1.321-2.385-2.589A77.271,77.271,0,0,0,456.862,45.1a92.851,92.851,0,0,0-11.582-6.9c-3.927-1.97-7.827-3.728-11.592-5.291-3.78-1.562-7.354-3.035-10.656-4.4q-2.478-1.051-4.738-2.013l-4.235-1.934c-2.636-1.264-4.909-2.429-6.741-3.472-1.865-.972-3.214-1.919-4.178-2.494Z" transform="translate(-77.621 -17.681)" fill="#272a30"/>
        <path id="Path_1291" data-name="Path 1291" d="M414.112,17.681s1.6.392,4.38,1.144c1.384.378,3.071.845,4.989,1.434l3.061.926q1.6.546,3.364,1.153c2.36.759,4.856,1.8,7.5,2.9,1.337.508,2.628,1.237,4,1.871a41.064,41.064,0,0,1,4.1,2.159l4.12,2.484c1.382.864,2.673,1.9,4.015,2.895l2.008,1.51c.648.534,1.254,1.125,1.885,1.689q1.915,1.752,3.837,3.511,1.637,1.866,3.267,3.726c.538.629,1.094,1.218,1.617,1.874l1.507,2.075c.986,1.381,2.035,2.728,2.881,4.142q1.239,2.131,2.438,4.2a43.549,43.549,0,0,1,2.118,4.176c.621,1.4,1.337,2.716,1.835,4.08,1.079,2.694,2.1,5.236,2.839,7.644.4,1.194.773,2.34,1.131,3.429.32,1.1.623,2.144.906,3.123.576,1.957,1.036,3.676,1.4,5.092.738,2.833,1.119,4.465,1.119,4.465s-.731-1.5-1.947-4.159c-.6-1.328-1.327-2.941-2.165-4.791-.811-1.86-1.772-3.929-2.8-6.182-1-2.276-2.255-4.635-3.474-7.175-.586-1.287-1.374-2.5-2.075-3.79-.756-1.259-1.372-2.642-2.248-3.886l-2.5-3.884a22.972,22.972,0,0,0-1.377-1.864c-.465-.62-.928-1.242-1.4-1.867l-1.4-1.883c-.506-.62-1.089-1.221-1.632-1.835l-3.322-3.674q-1.712-1.608-3.422-3.209c-.586-.539-1.149-1.11-1.752-1.623L451.035,38.1c-1.267-.94-2.443-1.981-3.707-2.871l-3.812-2.553c-1.219-.89-2.573-1.524-3.807-2.3-1.269-.713-2.456-1.519-3.717-2.113-2.493-1.244-4.8-2.532-7.036-3.542-2.213-1.053-4.24-2.037-6.065-2.86l-4.7-2.206C415.586,18.427,414.112,17.681,414.112,17.681Z" transform="translate(-58.936 -17.681)" fill="#272a30"/>
        <path id="Path_1292" data-name="Path 1292" d="M427.334,17.681s.833.225,2.245.7c.706.242,1.569.522,2.533.893.483.186,1,.361,1.542.586.533.244,1.079.529,1.66.814,1.161.57,2.425,1.2,3.737,1.919,1.3.737,2.578,1.632,3.925,2.546l2.035,1.422c.683.486,1.294,1.081,1.942,1.639l1.935,1.723,2,1.842c1.119,1.275,2.243,2.544,3.319,3.824.536.651,1.091,1.235,1.577,1.941s.954,1.412,1.419,2.1c.911,1.39,1.812,2.726,2.531,4.046.7,1.328,1.312,2.608,1.87,3.788.275.587.541,1.153.8,1.689.223.551.4,1.093.583,1.591.368.993.646,1.878.884,2.6.466,1.445.681,2.286.681,2.286s-.566-.672-1.467-1.876c-.448-.6-1-1.326-1.585-2.176-.571-.861-1.294-1.776-2.07-2.774s-1.61-2.075-2.435-3.243c-.864-1.137-1.9-2.2-2.844-3.406-.476-.593-.964-1.2-1.454-1.807s-1.119-1.192-1.67-1.811c-1.146-1.211-2.278-2.477-3.414-3.735L445.889,33.2q-.882-.853-1.757-1.7c-.593-.548-1.131-1.158-1.737-1.67s-1.207-1.017-1.8-1.513c-1.189-.976-2.268-2.053-3.379-2.929-1.136-.835-2.185-1.683-3.159-2.47s-1.875-1.531-2.733-2.12-1.559-1.168-2.155-1.623C427.987,18.253,427.334,17.681,427.334,17.681Z" transform="translate(-39.061 -17.681)" fill="#272a30"/>
        <path id="Path_1293" data-name="Path 1293" d="M437.186,17.681a7.03,7.03,0,0,1,.868.156,14.838,14.838,0,0,1,2.085.656,11.38,11.38,0,0,1,2.616,1.417,23.485,23.485,0,0,1,2.653,2.189c.468.522.778.864,1.139,1.328.35.431.668.881.966,1.323a13.022,13.022,0,0,1,1.414,2.69,14.649,14.649,0,0,1,.666,2.163,6.22,6.22,0,0,1,.148.883,7.844,7.844,0,0,1-.831-.318,15.521,15.521,0,0,1-1.912-1c-.363-.227-.738-.481-1.119-.763s-.821-.579-1.229-.912-.836-.682-1.236-1.067c-.388-.347-.841-.831-1.136-1.135a20.273,20.273,0,0,1-2.105-2.377c-.6-.835-1.2-1.661-1.667-2.419a15.377,15.377,0,0,1-1.011-1.974A7.272,7.272,0,0,1,437.186,17.681Z" transform="translate(-24.253 -17.681)" fill="#272a30"/>
      </g>
    </g>
  </g>
</svg>
